<svg xmlns="http://www.w3.org/2000/svg" xmlns:xlink="http://www.w3.org/1999/xlink" width="500" zoomAndPan="magnify" viewBox="0 0 375 374.999991" height="500" preserveAspectRatio="xMidYMid meet" version="1.0"><defs><clipPath id="cc7ed80c41"><path d="M 62.386719 80 L 312.886719 80 L 312.886719 364.308594 L 62.386719 364.308594 Z M 62.386719 80 " clip-rule="nonzero"/></clipPath><clipPath id="f67dd848d0"><path d="M 121 11.058594 L 160 11.058594 L 160 59 L 121 59 Z M 121 11.058594 " clip-rule="nonzero"/></clipPath><clipPath id="f70fe43ebc"><path d="M 166 11.058594 L 205 11.058594 L 205 60 L 166 60 Z M 166 11.058594 " clip-rule="nonzero"/></clipPath><clipPath id="17a134d9b2"><path d="M 212 11.058594 L 251 11.058594 L 251 60 L 212 60 Z M 212 11.058594 " clip-rule="nonzero"/></clipPath></defs><g clip-path="url(#cc7ed80c41)"><path fill="#ce2c5a" d="M 187.527344 364.296875 L 85.324219 335.929688 L 62.550781 80.480469 L 312.8125 80.476562 L 290.023438 335.886719 L 187.535156 364.292969 Z M 187.527344 364.296875 " fill-opacity="1" fill-rule="nonzero"/></g><path fill="#ce2c5a" d="M 270.503906 319.625 L 289.988281 101.367188 L 187.683594 101.363281 L 187.683594 342.574219 L 270.503906 319.621094 Z M 270.503906 319.625 " fill-opacity="1" fill-rule="nonzero"/><path fill="#ffffff" d="M 114.765625 196.109375 L 117.570312 227.433594 L 187.683594 227.433594 L 187.683594 196.109375 Z M 114.765625 196.109375 " fill-opacity="1" fill-rule="nonzero"/><path fill="#ffffff" d="M 109.121094 132.6875 L 111.96875 164.023438 L 187.683594 164.023438 L 187.683594 132.6875 Z M 109.121094 132.6875 " fill-opacity="1" fill-rule="nonzero"/><path fill="#ffffff" d="M 187.683594 277.472656 L 187.546875 277.511719 L 152.65625 268.082031 L 150.421875 243.097656 L 118.972656 243.097656 L 123.359375 292.292969 L 187.539062 310.109375 L 187.683594 310.070312 Z M 187.683594 277.472656 " fill-opacity="1" fill-rule="nonzero"/><g clip-path="url(#f67dd848d0)"><path fill="#ce2c5a" d="M 121.449219 11.058594 L 159.398438 11.058594 L 159.398438 26.925781 L 137.316406 26.925781 L 137.316406 42.792969 L 159.398438 42.792969 L 159.398438 58.660156 L 121.449219 58.660156 Z M 121.449219 11.058594 " fill-opacity="1" fill-rule="nonzero"/></g><g clip-path="url(#f70fe43ebc)"><path fill="#ce2c5a" d="M 166.984375 11.058594 L 204.933594 11.058594 L 204.933594 24.855469 L 182.859375 24.855469 L 182.859375 27.617188 L 204.933594 27.617188 L 204.933594 59.351562 L 166.984375 59.351562 L 166.984375 44.863281 L 189.070312 44.863281 L 189.070312 42.105469 L 166.984375 42.105469 Z M 166.984375 11.058594 " fill-opacity="1" fill-rule="nonzero"/></g><g clip-path="url(#17a134d9b2)"><path fill="#ce2c5a" d="M 212.523438 11.058594 L 250.472656 11.058594 L 250.472656 24.855469 L 228.390625 24.855469 L 228.390625 27.617188 L 250.472656 27.617188 L 250.472656 59.351562 L 212.523438 59.351562 L 212.523438 44.863281 L 234.597656 44.863281 L 234.597656 42.105469 L 212.523438 42.105469 Z M 212.523438 11.058594 " fill-opacity="1" fill-rule="nonzero"/></g><path fill="#ffffff" d="M 260.410156 196.109375 L 266.058594 132.6875 L 187.578125 132.6875 L 187.578125 164.023438 L 231.722656 164.023438 L 228.878906 196.109375 L 187.578125 196.109375 L 187.578125 227.433594 L 226.160156 227.433594 L 222.523438 268.0625 L 187.578125 277.5 L 187.578125 310.089844 L 251.804688 292.292969 L 252.277344 286.996094 L 259.644531 204.515625 Z M 260.410156 196.109375 " fill-opacity="1" fill-rule="nonzero"/></svg>