<svg xmlns="http://www.w3.org/2000/svg" xmlns:xlink="http://www.w3.org/1999/xlink" width="500" zoomAndPan="magnify" viewBox="0 0 375 374.999991" height="500" preserveAspectRatio="xMidYMid meet" version="1.0"><defs><clipPath id="274efe14a7"><path d="M 9.375 9.375 L 365.625 9.375 L 365.625 365.625 L 9.375 365.625 Z M 9.375 9.375 " clip-rule="nonzero"/></clipPath></defs><g clip-path="url(#274efe14a7)"><path fill="#fff" d="M 276.28125 9.375 L 98.4375 9.375 C 49.523438 9.375 9.375 49.523438 9.375 98.71875 L 9.375 276.5625 C 9.375 325.476562 49.523438 365.625 98.4375 365.625 L 276.28125 365.625 C 325.476562 365.625 365.625 325.476562 365.625 276.28125 L 365.625 98.71875 C 365.625 49.523438 325.476562 9.375 276.28125 9.375 Z M 235.28125 187.5 L 201.636719 187.5 L 201.636719 297.769531 L 159.226562 297.769531 L 159.226562 187.5 L 136.605469 187.5 L 136.605469 142.261719 L 156.398438 142.261719 L 156.398438 123.035156 C 156.398438 104.941406 165.445312 76.382812 203.617188 76.382812 L 238.394531 76.382812 L 238.394531 113.988281 L 213.792969 113.988281 C 209.835938 113.988281 204.464844 116.53125 204.464844 125.296875 L 204.464844 142.261719 L 239.242188 142.261719 Z M 235.28125 187.5 " fill-opacity="1" fill-rule="nonzero"/></g></svg>