<svg xmlns="http://www.w3.org/2000/svg" xmlns:xlink="http://www.w3.org/1999/xlink" width="500" zoomAndPan="magnify" viewBox="0 0 375 374.999991" height="500" preserveAspectRatio="xMidYMid meet" version="1.0"><defs><clipPath id="c609e89662"><path d="M 13.203125 13.203125 L 361.953125 13.203125 L 361.953125 361.953125 L 13.203125 361.953125 Z M 13.203125 13.203125 " clip-rule="nonzero"/></clipPath></defs><g clip-path="url(#c609e89662)"><path fill="#ce2c5a" d="M 187.578125 13.203125 C 91.269531 13.203125 13.203125 91.269531 13.203125 187.578125 C 13.203125 283.882812 91.269531 361.953125 187.578125 361.953125 C 283.882812 361.953125 361.953125 283.882812 361.953125 187.578125 C 361.953125 91.269531 283.882812 13.203125 187.578125 13.203125 Z M 220.882812 290.351562 C 215.546875 291.382812 213.644531 288.105469 213.644531 285.277344 C 213.644531 281.808594 213.785156 270.441406 213.785156 256.316406 C 213.785156 246.464844 210.417969 240.027344 206.652344 236.769531 C 230.070312 234.152344 254.675781 225.222656 254.675781 184.664062 C 254.675781 173.136719 250.613281 163.703125 243.863281 156.328125 C 244.945312 153.660156 248.554688 142.917969 242.820312 128.394531 C 242.820312 128.394531 234.011719 125.550781 213.925781 139.222656 C 205.519531 136.886719 196.523438 135.71875 187.59375 135.664062 C 178.648438 135.71875 169.652344 136.886719 161.261719 139.222656 C 141.175781 125.570312 132.351562 128.394531 132.351562 128.394531 C 126.632812 142.9375 130.242188 153.660156 131.324219 156.328125 C 124.59375 163.703125 120.496094 173.136719 120.496094 184.664062 C 120.496094 225.121094 145.046875 234.167969 168.394531 236.835938 C 165.394531 239.46875 162.675781 244.125 161.714844 250.945312 C 155.71875 253.648438 140.496094 258.304688 131.113281 242.171875 C 131.113281 242.171875 125.570312 232.042969 115.019531 231.292969 C 115.019531 231.292969 104.75 231.152344 114.304688 237.710938 C 114.304688 237.710938 121.191406 240.953125 125.96875 253.160156 C 125.96875 253.160156 132.144531 273.699219 161.402344 267.316406 C 161.457031 276.125 161.542969 282.769531 161.542969 285.277344 C 161.542969 288.070312 159.625 291.328125 154.359375 290.371094 C 112.558594 276.402344 82.429688 236.835938 82.429688 190.191406 C 82.429688 131.863281 129.507812 84.609375 187.59375 84.609375 C 245.679688 84.609375 292.757812 131.882812 292.757812 190.191406 C 292.757812 236.820312 262.664062 276.367188 220.898438 290.351562 Z M 220.882812 290.351562 " fill-opacity="1" fill-rule="nonzero"/></g></svg>