<svg id="svg" version="1.1" xmlns="http://www.w3.org/2000/svg" xmlns:xlink="http://www.w3.org/1999/xlink" width="400" height="400" viewBox="0, 0, 400,400"><g id="svgg"><path id="path0" d="M272.400 17.588 C 271.850 17.771,270.731 17.938,269.914 17.960 C 268.864 17.988,268.303 18.235,268.000 18.800 C 267.759 19.250,267.162 19.600,266.635 19.600 C 266.120 19.600,265.474 19.870,265.200 20.200 C 264.926 20.530,264.296 20.800,263.800 20.800 C 263.304 20.800,262.684 21.058,262.422 21.374 C 262.160 21.689,261.246 22.312,260.392 22.758 C 258.707 23.636,255.200 26.891,255.200 27.577 C 255.200 27.810,254.913 28.000,254.563 28.000 C 254.212 28.000,253.831 28.360,253.716 28.800 C 253.601 29.240,253.241 29.600,252.916 29.600 C 252.591 29.600,252.231 29.960,252.116 30.400 C 252.001 30.840,251.750 31.200,251.559 31.200 C 251.367 31.200,250.939 31.785,250.606 32.500 C 250.274 33.215,249.643 34.340,249.205 35.000 C 248.401 36.211,248.259 36.505,247.514 38.500 C 247.288 39.105,246.965 39.600,246.796 39.600 C 246.627 39.600,246.363 40.275,246.209 41.100 C 246.055 41.925,245.720 42.853,245.464 43.161 C 245.000 43.723,244.733 46.061,244.022 55.800 C 243.495 63.022,243.536 280.995,244.066 289.400 C 244.288 292.920,244.557 297.690,244.663 299.999 C 244.793 302.843,245.039 304.402,245.426 304.828 C 245.739 305.175,246.111 306.300,246.252 307.329 C 246.400 308.406,246.718 309.200,247.002 309.200 C 247.278 309.200,247.593 309.934,247.718 310.868 C 247.841 311.785,248.225 312.694,248.571 312.888 C 248.917 313.081,249.200 313.596,249.200 314.032 C 249.200 314.468,249.470 314.929,249.800 315.055 C 250.130 315.182,250.401 315.671,250.402 316.143 C 250.404 317.008,252.517 319.600,253.220 319.600 C 253.429 319.600,253.600 319.842,253.600 320.138 C 253.600 320.434,253.960 321.002,254.400 321.400 C 254.840 321.798,255.200 322.334,255.200 322.591 C 255.200 323.056,258.166 325.200,258.809 325.200 C 258.994 325.200,259.260 325.560,259.400 326.000 C 259.540 326.440,259.891 326.800,260.180 326.800 C 260.470 326.800,260.801 327.160,260.916 327.600 C 261.063 328.164,261.462 328.400,262.266 328.400 C 262.974 328.400,263.597 328.704,263.907 329.200 C 264.219 329.700,264.840 330.000,265.561 330.000 C 266.217 330.000,266.814 330.259,266.945 330.600 C 267.078 330.948,267.676 331.200,268.368 331.200 C 269.033 331.200,269.715 331.476,269.910 331.826 C 270.163 332.277,271.145 332.514,273.430 332.678 C 275.280 332.810,276.870 333.139,277.249 333.468 C 278.605 334.646,289.180 334.480,289.970 333.268 C 290.096 333.074,291.442 332.818,292.961 332.699 C 294.912 332.546,295.827 332.294,296.081 331.841 C 296.284 331.479,296.953 331.200,297.621 331.200 C 298.271 331.200,299.475 330.840,300.296 330.400 C 301.116 329.960,302.007 329.600,302.274 329.600 C 302.542 329.600,302.904 329.361,303.080 329.070 C 303.256 328.778,303.715 328.424,304.100 328.282 C 304.485 328.141,304.800 327.749,304.800 327.413 C 304.800 327.020,305.172 326.800,305.835 326.800 C 306.558 326.800,307.527 326.137,309.052 324.600 C 310.252 323.390,311.407 322.400,311.617 322.400 C 311.828 322.400,312.000 322.229,312.000 322.019 C 312.000 321.810,312.630 321.027,313.400 320.279 C 314.273 319.431,314.800 318.538,314.800 317.906 C 314.800 317.230,315.066 316.824,315.600 316.684 C 316.124 316.547,316.400 316.138,316.400 315.499 C 316.400 314.963,316.760 314.198,317.200 313.800 C 317.640 313.402,318.000 312.694,318.000 312.227 C 318.000 311.760,318.360 311.070,318.800 310.693 C 319.240 310.316,319.600 309.668,319.600 309.253 C 319.600 308.837,319.870 307.851,320.200 307.062 C 320.530 306.272,320.800 304.465,320.800 303.046 C 320.800 301.482,320.978 300.407,321.253 300.316 C 322.748 299.817,322.751 50.191,321.257 48.697 C 321.005 48.445,320.792 47.331,320.782 46.220 C 320.773 45.109,320.505 43.480,320.188 42.600 C 319.871 41.720,319.609 40.593,319.606 40.096 C 319.603 39.599,319.240 38.884,318.800 38.507 C 318.360 38.130,318.000 37.343,318.000 36.758 C 318.000 36.030,317.747 35.627,317.200 35.484 C 316.684 35.349,316.400 34.938,316.400 34.326 C 316.400 33.791,315.814 32.771,315.056 31.988 C 314.317 31.225,313.584 30.192,313.427 29.694 C 313.080 28.589,309.688 25.188,308.131 24.384 C 307.509 24.063,306.289 23.125,305.419 22.300 C 304.550 21.475,303.537 20.800,303.168 20.800 C 302.800 20.800,302.274 20.530,302.000 20.200 C 301.726 19.870,300.967 19.600,300.314 19.600 C 299.480 19.600,299.065 19.372,298.925 18.835 C 298.619 17.663,275.450 16.574,272.400 17.588 M176.811 136.009 C 176.047 136.188,175.357 136.530,175.277 136.768 C 175.198 137.005,174.412 137.200,173.530 137.200 C 172.532 137.200,171.542 137.502,170.909 138.000 C 170.350 138.440,169.558 138.800,169.149 138.800 C 168.741 138.800,168.182 139.160,167.907 139.600 C 167.574 140.134,166.974 140.400,166.104 140.400 C 165.387 140.400,164.800 140.578,164.800 140.795 C 164.800 141.012,164.215 141.472,163.500 141.817 C 160.846 143.098,160.400 143.402,160.400 143.932 C 160.400 144.231,160.040 144.569,159.600 144.684 C 159.160 144.799,158.800 145.045,158.800 145.231 C 158.800 145.687,155.632 148.800,155.168 148.800 C 154.966 148.800,154.800 148.948,154.800 149.128 C 154.800 149.308,154.239 150.073,153.553 150.828 C 152.866 151.583,152.054 152.785,151.747 153.500 C 151.440 154.215,151.012 154.800,150.795 154.800 C 150.578 154.800,150.400 155.342,150.400 156.004 C 150.400 156.713,150.071 157.489,149.600 157.893 C 149.160 158.270,148.799 158.853,148.797 159.189 C 148.796 159.525,148.437 160.340,148.000 161.000 C 147.509 161.741,147.204 162.877,147.203 163.969 C 147.201 165.088,146.943 166.021,146.500 166.511 C 145.839 167.241,145.800 171.001,145.800 233.542 C 145.800 295.860,145.842 299.881,146.500 301.161 C 146.885 301.910,147.201 303.350,147.203 304.361 C 147.204 305.523,147.498 306.642,148.000 307.400 C 148.437 308.060,148.796 309.074,148.797 309.653 C 148.799 310.369,149.057 310.774,149.600 310.916 C 150.148 311.059,150.400 311.462,150.400 312.191 C 150.400 312.777,150.670 313.527,151.000 313.857 C 151.330 314.187,151.600 314.894,151.600 315.429 C 151.600 315.963,151.776 316.400,151.992 316.400 C 152.207 316.400,152.765 317.148,153.232 318.062 C 154.272 320.101,160.850 326.800,161.812 326.800 C 162.195 326.800,162.917 327.205,163.416 327.700 C 164.914 329.184,165.407 329.494,166.733 329.785 C 167.430 329.938,168.000 330.212,168.000 330.394 C 168.000 330.576,168.900 330.849,170.000 331.000 C 171.224 331.168,172.000 331.475,172.000 331.791 C 172.000 332.428,173.261 332.787,175.520 332.795 C 176.466 332.798,177.726 333.049,178.320 333.353 C 180.683 334.564,189.737 334.606,190.932 333.411 C 191.202 333.141,192.727 332.827,194.322 332.713 C 196.199 332.578,197.475 332.275,197.942 331.853 C 198.338 331.494,199.131 331.200,199.703 331.200 C 200.275 331.200,201.013 330.930,201.343 330.600 C 201.673 330.270,202.309 330.000,202.757 330.000 C 203.205 330.000,203.765 329.640,204.000 329.200 C 204.266 328.704,204.840 328.399,205.514 328.396 C 206.276 328.393,207.018 327.917,208.000 326.800 C 208.770 325.924,209.709 325.206,210.086 325.204 C 210.463 325.202,210.965 324.840,211.200 324.400 C 211.435 323.960,211.847 323.600,212.114 323.599 C 212.381 323.599,213.126 322.744,213.769 321.699 C 214.412 320.655,215.439 319.322,216.052 318.738 C 216.664 318.154,217.283 317.209,217.426 316.638 C 217.569 316.067,217.826 315.600,217.996 315.600 C 218.455 315.600,220.400 311.456,220.400 310.480 C 220.400 310.018,220.646 309.496,220.946 309.320 C 221.251 309.141,221.579 308.056,221.691 306.857 C 221.803 305.654,222.134 304.564,222.445 304.372 C 223.373 303.798,223.211 166.910,222.280 164.400 C 221.912 163.410,221.609 162.118,221.606 161.529 C 221.603 160.939,221.330 160.187,221.000 159.857 C 220.670 159.527,220.400 158.744,220.400 158.117 C 220.400 157.473,220.053 156.680,219.600 156.293 C 219.160 155.916,218.794 155.291,218.787 154.904 C 218.774 154.147,217.070 152.000,216.483 152.000 C 216.287 152.000,215.920 151.325,215.668 150.500 C 215.223 149.040,212.727 146.000,211.975 146.000 C 211.769 146.000,211.600 145.730,211.600 145.400 C 211.600 145.070,211.336 144.800,211.014 144.800 C 210.692 144.800,210.235 144.440,210.000 144.000 C 209.765 143.560,209.216 143.200,208.782 143.200 C 208.348 143.200,207.684 142.840,207.307 142.400 C 206.930 141.960,206.469 141.600,206.283 141.600 C 206.096 141.600,205.673 141.330,205.343 141.000 C 205.013 140.670,204.402 140.400,203.986 140.400 C 203.569 140.400,203.035 140.040,202.800 139.600 C 202.549 139.132,201.962 138.800,201.384 138.800 C 200.841 138.800,199.725 138.440,198.904 138.000 C 198.084 137.560,196.770 137.200,195.986 137.200 C 195.202 137.200,194.376 137.016,194.151 136.791 C 193.171 135.811,180.147 135.224,176.811 136.009 M82.100 255.471 C 81.165 255.567,80.400 255.795,80.400 255.976 C 80.400 256.158,79.005 256.432,77.300 256.587 C 75.595 256.741,73.801 257.122,73.314 257.434 C 72.827 257.745,72.090 258.000,71.676 258.000 C 71.262 258.000,70.598 258.360,70.200 258.800 C 69.802 259.240,69.172 259.600,68.800 259.600 C 68.428 259.600,67.798 259.960,67.400 260.400 C 67.002 260.840,66.248 261.200,65.725 261.200 C 65.203 261.200,64.671 261.470,64.545 261.800 C 64.418 262.130,64.047 262.400,63.720 262.400 C 63.393 262.400,63.031 262.760,62.916 263.200 C 62.801 263.640,62.477 264.000,62.197 264.000 C 61.384 264.000,57.619 267.585,57.364 268.601 C 57.237 269.109,56.787 269.615,56.366 269.725 C 55.945 269.835,55.600 270.212,55.600 270.563 C 55.600 270.913,55.340 271.200,55.022 271.200 C 54.454 271.200,53.669 272.349,52.788 274.468 C 52.544 275.055,52.087 275.635,51.772 275.755 C 51.457 275.876,51.200 276.481,51.200 277.099 C 51.200 277.717,50.858 278.515,50.439 278.874 C 48.417 280.605,48.418 308.996,50.440 310.727 C 50.858 311.085,51.200 311.793,51.200 312.301 C 51.200 312.809,51.459 313.324,51.776 313.446 C 52.092 313.567,52.469 314.204,52.613 314.860 C 52.757 315.517,53.128 316.151,53.438 316.270 C 53.747 316.388,54.001 316.691,54.002 316.943 C 54.003 317.194,54.723 318.010,55.602 318.756 C 56.481 319.502,57.200 320.344,57.200 320.626 C 57.200 321.810,59.881 324.223,62.100 325.037 C 62.485 325.178,62.800 325.497,62.800 325.747 C 62.800 326.332,65.385 328.400,66.117 328.400 C 66.424 328.400,67.002 328.760,67.400 329.200 C 67.798 329.640,68.411 330.006,68.762 330.013 C 69.113 330.020,69.749 330.290,70.176 330.613 C 70.604 330.936,71.375 331.200,71.891 331.200 C 72.406 331.200,73.247 331.474,73.759 331.810 C 74.271 332.145,75.930 332.533,77.445 332.671 C 78.960 332.809,80.313 333.094,80.451 333.306 C 81.190 334.434,91.273 334.528,93.002 333.423 C 93.443 333.141,94.948 332.828,96.346 332.726 C 98.174 332.594,98.994 332.354,99.264 331.871 C 99.505 331.441,100.171 331.190,101.120 331.173 C 101.994 331.158,103.419 330.668,104.600 329.977 C 105.700 329.333,107.005 328.629,107.500 328.413 C 107.995 328.197,108.400 327.745,108.400 327.410 C 108.400 327.064,108.751 326.800,109.211 326.800 C 109.657 326.800,110.664 326.215,111.448 325.500 C 114.730 322.510,116.671 320.514,116.915 319.877 C 117.058 319.505,117.451 319.200,117.787 319.200 C 118.124 319.200,118.400 318.923,118.400 318.584 C 118.400 317.898,119.923 315.577,120.700 315.080 C 120.975 314.904,121.200 314.499,121.200 314.179 C 121.200 313.859,121.560 312.925,122.000 312.104 C 122.440 311.284,122.800 310.136,122.800 309.555 C 122.800 308.974,123.050 308.290,123.357 308.036 C 123.663 307.782,124.040 306.725,124.196 305.687 C 124.352 304.649,124.668 303.446,124.900 303.014 C 126.084 300.800,126.069 287.326,124.880 286.137 C 124.548 285.805,124.191 284.652,124.088 283.574 C 123.984 282.496,123.652 281.409,123.350 281.158 C 123.047 280.907,122.800 280.107,122.800 279.380 C 122.800 278.652,122.575 277.815,122.300 277.518 C 122.025 277.222,121.365 276.119,120.833 275.068 C 120.301 274.016,119.536 272.980,119.133 272.764 C 118.675 272.519,118.400 271.926,118.400 271.186 C 118.400 270.534,118.249 270.000,118.064 270.000 C 117.578 270.000,114.000 266.554,114.000 266.086 C 114.000 265.870,113.640 265.599,113.200 265.484 C 112.760 265.369,112.400 264.988,112.400 264.637 C 112.400 264.287,112.233 264.000,112.029 264.000 C 111.824 264.000,111.419 263.773,111.129 263.495 C 110.838 263.218,110.150 262.769,109.600 262.498 C 107.969 261.695,107.045 261.043,106.483 260.300 C 106.190 259.912,105.430 259.600,104.777 259.600 C 104.130 259.600,103.600 259.449,103.600 259.264 C 103.600 258.779,101.731 258.000,100.569 258.000 C 100.022 258.000,99.479 257.750,99.361 257.444 C 99.226 257.090,98.175 256.784,96.474 256.603 C 95.003 256.446,93.530 256.174,93.200 255.999 C 92.468 255.609,84.451 255.228,82.100 255.471 M76.927 340.595 C 65.159 346.388,65.081 364.198,76.800 369.684 C 88.649 375.231,101.585 366.917,99.803 354.900 L 99.551 353.200 91.775 353.200 L 84.000 353.200 84.000 356.000 L 84.000 358.800 89.027 358.800 C 94.054 358.800,94.054 358.800,93.784 359.700 C 91.182 368.363,78.431 368.147,74.582 359.375 C 70.516 350.107,81.870 340.269,90.098 345.930 C 92.425 347.531,92.295 347.548,94.417 345.368 L 96.200 343.537 94.800 342.356 C 91.904 339.913,90.264 339.410,84.800 339.290 L 79.800 339.180 76.927 340.595 M166.800 355.400 L 166.800 370.800 169.400 370.800 L 172.000 370.800 172.000 355.400 L 172.000 340.000 169.400 340.000 L 166.800 340.000 166.800 355.400 M206.001 346.482 C 204.685 350.124,202.222 356.652,199.994 362.400 C 198.129 367.213,196.400 372.124,196.400 372.606 C 196.400 372.734,197.517 372.785,198.883 372.719 L 201.366 372.600 202.776 368.900 L 204.186 365.200 209.460 365.200 L 214.734 365.200 216.000 369.000 L 217.266 372.800 219.833 372.800 C 221.245 372.800,222.400 372.718,222.400 372.618 C 222.400 372.518,220.945 368.603,219.166 363.918 C 217.388 359.233,215.593 354.410,215.178 353.200 C 214.762 351.990,213.820 349.470,213.084 347.600 L 211.745 344.200 209.328 344.082 L 206.911 343.965 206.001 346.482 M262.800 358.400 L 262.800 372.800 265.200 372.800 L 267.600 372.800 267.600 358.400 L 267.600 344.000 265.200 344.000 L 262.800 344.000 262.800 358.400 M303.229 345.054 C 301.424 347.349,302.603 349.600,305.609 349.600 C 307.844 349.600,308.400 349.012,308.400 346.649 C 308.400 344.032,304.885 342.948,303.229 345.054 M291.600 350.180 L 291.600 353.200 287.595 353.200 L 283.590 353.200 282.563 355.500 C 281.653 357.536,280.384 360.702,279.104 364.122 C 278.624 365.407,278.374 365.234,277.480 363.000 C 276.568 360.720,274.451 355.597,273.885 354.300 C 273.394 353.175,268.800 352.534,268.800 353.591 C 268.800 354.460,273.112 364.729,275.137 368.684 C 276.288 370.930,276.293 370.897,274.006 375.653 C 271.479 380.908,271.472 380.800,274.321 380.800 L 276.641 380.800 277.563 378.700 C 279.960 373.239,281.357 370.002,282.266 367.800 C 282.811 366.480,283.596 364.680,284.009 363.800 C 284.422 362.920,285.573 360.310,286.566 358.000 C 288.309 353.946,288.373 353.859,288.386 355.500 L 288.400 357.200 289.972 357.200 L 291.545 357.200 291.672 363.575 L 291.800 369.950 292.966 371.166 C 295.290 373.589,303.145 373.855,301.260 371.447 C 301.068 371.201,300.792 370.505,300.648 369.900 C 300.425 368.966,300.178 368.800,299.021 368.800 C 296.649 368.800,296.400 368.190,296.400 362.371 L 296.400 357.200 298.553 357.200 C 300.891 357.200,301.125 356.954,301.041 354.581 C 301.001 353.431,300.941 353.397,298.717 353.281 L 296.434 353.161 296.317 350.281 L 296.200 347.400 293.900 347.280 L 291.600 347.160 291.600 350.180 M107.588 350.614 C 100.271 352.870,97.978 363.398,103.665 368.628 C 109.004 373.537,118.361 371.754,121.061 365.313 C 124.721 356.577,116.685 347.810,107.588 350.614 M130.400 350.374 C 118.865 353.896,120.174 370.038,132.108 371.441 C 140.315 372.405,146.165 364.334,143.072 356.314 C 141.377 351.920,135.050 348.954,130.400 350.374 M152.200 350.252 C 147.230 351.430,143.481 358.103,144.770 363.477 C 146.188 369.385,154.141 373.559,158.518 370.691 L 159.600 369.982 159.599 371.091 C 159.593 375.478,154.623 376.929,151.228 373.534 L 149.551 371.857 147.376 372.924 C 144.674 374.249,144.687 374.592,147.561 377.737 C 151.106 381.615,158.295 381.678,162.311 377.866 C 164.540 375.751,164.800 374.062,164.800 361.727 L 164.800 350.800 162.400 350.800 C 161.027 350.800,160.000 350.975,160.000 351.210 C 160.000 351.439,159.441 351.331,158.735 350.966 C 157.465 350.310,153.695 349.898,152.200 350.252 M179.000 350.921 C 170.946 354.804,170.764 366.718,178.702 370.482 C 185.218 373.572,195.925 368.463,190.604 364.803 C 188.710 363.499,188.009 363.543,186.767 365.040 C 185.500 366.568,183.695 366.917,181.802 366.001 C 178.963 364.627,179.181 364.278,184.129 362.281 C 193.653 358.436,193.361 358.667,192.019 356.037 C 189.348 350.802,183.783 348.615,179.000 350.921 M209.948 352.500 C 211.317 355.904,212.793 360.540,212.576 360.758 C 212.271 361.063,205.600 361.359,205.600 361.067 C 205.600 360.948,206.105 359.534,206.723 357.925 C 207.341 356.316,208.084 354.145,208.375 353.100 C 209.000 350.856,209.248 350.761,209.948 352.500 M229.100 353.357 C 227.623 354.150,227.200 354.246,227.200 353.789 C 227.200 353.349,226.694 353.200,225.200 353.200 L 223.200 353.200 223.200 363.000 L 223.200 372.800 225.400 372.800 L 227.600 372.800 227.600 366.562 C 227.600 358.740,228.508 356.841,232.264 356.813 C 235.516 356.788,236.000 357.983,236.000 366.031 L 236.000 372.800 238.229 372.800 L 240.459 372.800 240.321 364.700 C 240.226 359.145,240.021 356.283,239.669 355.593 C 238.129 352.570,232.703 351.423,229.100 353.357 M247.822 352.691 C 246.572 353.009,244.071 354.721,243.617 355.568 C 242.471 357.710,246.013 359.679,247.871 357.933 C 249.468 356.433,252.714 356.425,254.312 357.918 C 256.059 359.550,256.054 360.475,254.303 359.972 C 246.284 357.672,239.736 363.973,243.585 370.284 C 245.369 373.208,251.282 374.472,253.950 372.500 C 255.385 371.439,255.600 371.400,255.600 372.200 C 255.600 372.661,256.111 372.800,257.800 372.800 L 260.000 372.800 260.000 365.335 C 260.000 354.149,256.475 350.489,247.822 352.691 M314.495 353.447 C 304.020 358.515,309.516 375.393,320.949 373.267 C 326.321 372.268,329.865 367.777,326.466 366.277 C 324.356 365.346,323.906 365.419,323.109 366.819 C 319.837 372.568,311.558 366.481,314.303 360.345 C 316.104 356.320,321.262 355.440,323.029 358.856 C 323.698 360.151,324.462 360.267,326.551 359.395 C 328.165 358.720,328.255 358.454,327.420 356.840 C 325.299 352.737,319.247 351.148,314.495 353.447 M333.433 352.993 C 330.889 353.900,329.964 355.117,329.748 357.842 C 329.436 361.764,330.711 363.151,335.824 364.450 C 341.011 365.768,342.364 367.387,339.335 368.653 C 336.934 369.656,333.200 368.023,333.200 365.969 C 333.200 365.406,332.181 365.526,330.614 366.274 C 327.495 367.761,330.601 372.165,335.512 373.218 C 346.135 375.497,349.616 363.627,339.136 360.859 C 333.922 359.481,332.734 357.808,336.277 356.830 C 338.010 356.351,339.486 356.843,340.685 358.300 L 341.569 359.374 343.385 358.492 C 348.849 355.838,339.676 350.769,333.433 352.993 M303.200 363.000 L 303.200 372.800 305.600 372.800 L 308.000 372.800 308.000 363.000 L 308.000 353.200 305.600 353.200 L 303.200 353.200 303.200 363.000 M114.054 356.029 C 116.014 357.078,116.818 360.883,115.608 363.382 C 113.638 367.454,108.736 367.399,106.743 363.283 C 104.365 358.371,109.293 353.481,114.054 356.029 M134.806 355.595 C 138.682 356.672,139.416 361.966,136.183 365.537 C 135.638 366.140,132.892 366.663,132.015 366.332 C 126.484 364.244,127.227 355.886,133.000 355.249 C 133.220 355.224,134.033 355.380,134.806 355.595 M156.959 355.584 C 159.870 356.691,160.879 361.466,158.807 364.327 C 156.770 367.139,153.967 367.235,151.630 364.573 C 147.920 360.348,151.888 353.656,156.959 355.584 M185.200 355.784 L 186.200 356.340 185.200 356.732 C 184.650 356.947,182.959 357.685,181.442 358.371 C 178.343 359.773,178.095 359.750,178.930 358.136 C 180.305 355.476,182.897 354.504,185.200 355.784 M254.400 363.968 C 256.587 364.599,254.891 367.981,251.945 368.864 C 248.088 370.019,245.410 365.979,248.894 364.262 C 250.246 363.596,252.661 363.467,254.400 363.968 " stroke="none" fill="#ce2c5a" fill-rule="evenodd"></path></g></svg>