<svg xmlns="http://www.w3.org/2000/svg" xmlns:xlink="http://www.w3.org/1999/xlink" width="500" zoomAndPan="magnify" viewBox="0 0 375 374.999991" height="500" preserveAspectRatio="xMidYMid meet" version="1.0"><defs><clipPath id="87df221095"><path d="M 80 95 L 295.132812 95 L 295.132812 339.484375 L 80 339.484375 Z M 80 95 " clip-rule="nonzero"/></clipPath><clipPath id="10965c1e53"><path d="M 100 35.734375 L 140 35.734375 L 140 77 L 100 77 Z M 100 35.734375 " clip-rule="nonzero"/></clipPath><clipPath id="203504afdc"><path d="M 145 35.734375 L 184 35.734375 L 184 77 L 145 77 Z M 145 35.734375 " clip-rule="nonzero"/></clipPath><clipPath id="28f4531ffb"><path d="M 189 35.734375 L 236 35.734375 L 236 77 L 189 77 Z M 189 35.734375 " clip-rule="nonzero"/></clipPath><clipPath id="2340059e9d"><path d="M 242 35.734375 L 276 35.734375 L 276 77 L 242 77 Z M 242 35.734375 " clip-rule="nonzero"/></clipPath></defs><g clip-path="url(#87df221095)"><path fill="#ce2c5a" d="M 295.074219 95.425781 L 275.484375 315.042969 L 187.417969 339.472656 L 99.59375 315.078125 L 80.023438 95.425781 L 295.070312 95.421875 L 295.078125 95.421875 Z M 295.074219 95.425781 " fill-opacity="1" fill-rule="nonzero"/></g><path fill="#ce2c5a" d="M 187.550781 320.800781 L 258.714844 301.0625 L 275.457031 113.386719 L 187.550781 113.386719 Z M 187.550781 320.800781 " fill-opacity="1" fill-rule="nonzero"/><path fill="#ffffff" d="M 149.464844 167.265625 L 187.550781 167.265625 L 187.550781 140.320312 L 120.042969 140.320312 L 120.6875 147.550781 L 127.304688 221.789062 L 187.550781 221.789062 L 187.550781 194.855469 L 151.925781 194.855469 Z M 149.464844 167.265625 " fill-opacity="1" fill-rule="nonzero"/><path fill="#ffffff" d="M 155.53125 235.257812 L 128.507812 235.257812 L 132.277344 277.5625 L 187.425781 292.878906 L 187.550781 292.847656 L 187.550781 264.816406 L 187.433594 264.851562 L 157.449219 256.742188 Z M 155.53125 235.257812 " fill-opacity="1" fill-rule="nonzero"/><g clip-path="url(#10965c1e53)"><path fill="#ce2c5a" d="M 100.035156 35.734375 L 113.714844 35.734375 L 113.714844 49.261719 L 126.230469 49.261719 L 126.230469 35.734375 L 139.914062 35.734375 L 139.914062 76.695312 L 126.230469 76.695312 L 126.230469 62.976562 L 113.714844 62.976562 L 113.714844 76.695312 L 100.035156 76.695312 Z M 100.035156 35.734375 " fill-opacity="1" fill-rule="nonzero"/></g><g clip-path="url(#203504afdc)"><path fill="#ce2c5a" d="M 157.90625 49.316406 L 145.859375 49.316406 L 145.859375 35.734375 L 183.640625 35.734375 L 183.640625 49.316406 L 171.585938 49.316406 L 171.585938 76.695312 L 157.90625 76.695312 Z M 157.90625 49.316406 " fill-opacity="1" fill-rule="nonzero"/></g><g clip-path="url(#28f4531ffb)"><path fill="#ce2c5a" d="M 189.632812 35.734375 L 203.898438 35.734375 L 212.671875 50.125 L 221.441406 35.734375 L 235.710938 35.734375 L 235.710938 76.695312 L 222.089844 76.695312 L 222.089844 56.390625 L 212.671875 70.957031 L 212.4375 70.957031 L 203.019531 56.390625 L 203.019531 76.695312 L 189.632812 76.695312 Z M 189.632812 35.734375 " fill-opacity="1" fill-rule="nonzero"/></g><g clip-path="url(#2340059e9d)"><path fill="#ce2c5a" d="M 242.523438 35.734375 L 256.203125 35.734375 L 256.203125 63.15625 L 275.449219 63.15625 L 275.449219 76.695312 L 242.523438 76.695312 Z M 242.523438 35.734375 " fill-opacity="1" fill-rule="nonzero"/></g><path fill="#ffffff" d="M 187.457031 221.789062 L 220.613281 221.789062 L 217.484375 256.726562 L 187.457031 264.839844 L 187.457031 292.863281 L 242.648438 277.5625 L 243.054688 273.007812 L 249.382812 202.085938 L 250.042969 194.855469 L 187.457031 194.855469 Z M 187.457031 221.789062 " fill-opacity="1" fill-rule="nonzero"/><path fill="#ffffff" d="M 187.457031 167.195312 L 187.457031 167.265625 L 252.488281 167.265625 L 253.027344 161.207031 L 254.257812 147.550781 L 254.898438 140.320312 L 187.457031 140.320312 Z M 187.457031 167.195312 " fill-opacity="1" fill-rule="nonzero"/></svg>