<svg xmlns="http://www.w3.org/2000/svg" xmlns:xlink="http://www.w3.org/1999/xlink" width="500" zoomAndPan="magnify" viewBox="0 0 375 374.999991" height="500" preserveAspectRatio="xMidYMid meet" version="1.0"><defs><clipPath id="02bf5a1485"><path d="M 26.722656 26.722656 L 348.472656 26.722656 L 348.472656 348.472656 L 26.722656 348.472656 Z M 26.722656 26.722656 " clip-rule="nonzero"/></clipPath></defs><g clip-path="url(#02bf5a1485)"><path fill="#ce2c5a" d="M 26.722656 26.722656 L 348.472656 26.722656 L 348.472656 348.472656 L 26.722656 348.472656 Z M 26.722656 26.722656 " fill-opacity="1" fill-rule="nonzero"/></g><path fill="#ffffff" d="M 111.320312 295.597656 L 135.945312 280.703125 C 140.695312 289.125 145.015625 296.25 155.382812 296.25 C 165.3125 296.25 171.585938 292.355469 171.585938 277.246094 L 171.585938 174.4375 L 201.8125 174.4375 L 201.8125 277.675781 C 201.8125 308.980469 183.460938 323.246094 156.679688 323.246094 C 132.488281 323.246094 118.449219 310.714844 111.320312 295.597656 " fill-opacity="1" fill-rule="nonzero"/><path fill="#ffffff" d="M 218.238281 292.355469 L 242.859375 278.101562 C 249.34375 288.683594 257.765625 296.464844 272.660156 296.464844 C 285.191406 296.464844 293.183594 290.203125 293.183594 281.558594 C 293.183594 271.1875 284.976562 267.519531 271.152344 261.472656 L 263.597656 258.230469 C 241.777344 248.941406 227.3125 237.292969 227.3125 212.660156 C 227.3125 189.984375 244.582031 172.703125 271.589844 172.703125 C 290.808594 172.703125 304.632812 179.402344 314.5625 196.898438 L 291.023438 212.015625 C 285.84375 202.730469 280.226562 199.058594 271.589844 199.058594 C 262.730469 199.058594 257.113281 204.675781 257.113281 212.015625 C 257.113281 221.089844 262.730469 224.761719 275.6875 230.378906 L 283.242188 233.609375 C 308.945312 244.632812 323.421875 255.855469 323.421875 281.128906 C 323.421875 308.339844 302.042969 323.246094 273.3125 323.246094 C 245.234375 323.246094 227.097656 309.847656 218.238281 292.355469 " fill-opacity="1" fill-rule="nonzero"/></svg>