<svg xmlns="http://www.w3.org/2000/svg" xmlns:xlink="http://www.w3.org/1999/xlink" width="500" zoomAndPan="magnify" viewBox="0 0 375 374.999991" height="500" preserveAspectRatio="xMidYMid meet" version="1.0"><defs><clipPath id="df401619dd"><path d="M 20.535156 20.535156 L 354 20.535156 L 354 354.285156 L 20.535156 354.285156 Z M 20.535156 20.535156 " clip-rule="nonzero"/></clipPath></defs><g clip-path="url(#df401619dd)"><path fill="#fff" d="M 326.402344 20.535156 L 48.585938 20.535156 C 33.222656 20.535156 20.871094 33.058594 20.871094 48.25 L 20.871094 326.570312 C 20.871094 341.929688 33.390625 354.285156 48.585938 354.285156 L 326.238281 354.285156 C 341.597656 354.285156 353.953125 341.765625 353.953125 326.570312 L 353.953125 48.25 C 354.117188 33.058594 341.765625 20.535156 326.402344 20.535156 Z M 119.542969 295.851562 L 70.289062 295.851562 L 70.289062 147.925781 L 119.542969 147.925781 Z M 94.832031 130.058594 C 79.304688 130.058594 66.785156 117.539062 66.785156 102.011719 C 66.785156 86.484375 79.304688 73.960938 94.832031 73.960938 C 110.359375 73.960938 122.882812 86.484375 122.882812 102.011719 C 122.882812 117.539062 110.359375 130.058594 94.832031 130.058594 Z M 304.867188 295.851562 L 255.445312 295.851562 L 254.277344 208.03125 C 254.277344 208.03125 255.445312 184.65625 229.902344 184.824219 C 204.355469 184.988281 200.851562 208.03125 200.851562 208.03125 L 200.851562 295.851562 L 151.097656 295.851562 L 151.097656 147.925781 L 198.847656 147.925781 L 198.847656 168.292969 C 198.847656 168.292969 200.851562 161.617188 211.871094 153.769531 C 222.890625 145.921875 241.085938 144.253906 248.933594 144.585938 C 256.78125 144.917969 267.46875 143.585938 285.332031 155.9375 C 304.53125 169.128906 305.03125 203.6875 305.03125 203.6875 Z M 304.867188 295.851562 " fill-opacity="1" fill-rule="nonzero"/></g></svg>