<svg id="svg" xmlns="http://www.w3.org/2000/svg" xmlns:xlink="http://www.w3.org/1999/xlink" width="100" height="469.3333333333333" viewBox="0, 0, 400,469.3333333333333"><g id="svgg"><path id="path0" d="M190.667 8.348 C 167.084 10.047,156.078 15.660,145.115 31.580 C 134.576 46.884,132.217 72.314,137.022 118.833 C 137.381 122.317,137.996 128.317,138.388 132.167 C 140.991 157.744,138.555 163.834,113.856 193.500 C 97.470 213.182,94.298 218.675,90.175 234.518 C 84.639 255.783,81.658 263.057,69.897 284.000 C 64.945 292.816,62.086 299.060,60.509 304.500 C 58.854 310.207,58.527 318.728,59.875 321.029 L 60.541 322.167 59.456 323.680 C 58.860 324.512,57.710 327.062,56.901 329.347 C 54.080 337.317,53.784 337.844,51.500 338.962 C 48.201 340.575,47.462 340.663,37.137 340.665 L 27.440 340.667 25.358 341.707 C 15.797 346.484,13.514 355.488,16.614 376.189 C 18.577 389.296,18.715 390.715,18.298 393.482 C 17.675 397.612,14.594 404.350,10.384 410.792 C 6.260 417.101,6.265 424.273,10.396 427.810 C 15.077 431.816,23.974 434.567,42.333 437.684 C 53.655 439.606,70.016 444.085,88.000 450.186 C 112.355 458.448,120.192 460.324,128.536 459.889 C 137.876 459.402,143.913 456.672,151.167 449.656 C 162.529 438.665,192.411 436.327,246.500 442.197 C 255.469 443.171,254.693 442.852,256.667 446.371 C 261.441 454.883,271.822 460.788,284.458 462.179 C 298.451 463.720,307.105 460.313,320.833 447.859 C 342.080 428.585,353.952 420.044,370.167 412.365 C 384.876 405.399,384.731 405.476,387.411 403.189 C 391.902 399.357,393.484 395.828,393.281 390.087 C 393.035 383.106,389.450 379.306,378.000 373.890 C 374.336 372.158,372.890 371.222,367.241 366.929 C 362.110 363.029,360.694 360.363,359.669 352.667 C 357.754 338.292,354.612 330.946,350.048 330.175 C 348.403 329.897,348.439 330.308,349.654 325.632 C 355.578 302.851,353.020 272.247,343.316 249.808 C 342.371 247.622,340.726 243.714,339.661 241.124 C 333.842 226.971,325.604 213.599,314.979 201.061 C 311.310 196.730,311.245 196.644,303.823 186.167 C 290.059 166.738,282.235 153.241,279.527 144.254 C 278.050 139.354,277.229 135.298,276.338 128.500 C 275.954 125.567,275.424 122.192,275.161 121.000 C 274.549 118.223,273.328 106.262,273.323 103.000 C 273.322 101.625,273.174 99.493,272.996 98.262 C 272.818 97.031,272.304 92.295,271.853 87.738 C 270.208 71.099,267.759 59.043,263.510 46.667 C 262.233 42.948,256.730 34.189,252.771 29.575 C 244.272 19.669,228.234 11.225,214.974 9.674 C 213.430 9.493,211.192 9.113,210.000 8.829 C 207.313 8.189,196.583 7.922,190.667 8.348 M221.500 76.388 C 231.442 78.519,235.748 86.861,235.239 103.000 C 235.087 107.805,233.325 120.621,232.499 122.929 C 232.388 123.238,231.706 123.027,230.047 122.168 C 228.782 121.514,226.912 120.842,225.889 120.676 C 224.203 120.401,222.667 119.847,222.667 119.513 C 222.667 119.441,223.461 119.019,224.432 118.574 C 231.054 115.542,232.938 107.826,229.556 97.583 L 228.167 93.377 225.881 91.367 C 217.774 84.240,207.418 88.019,205.678 98.739 C 205.023 102.778,205.285 110.291,206.154 112.390 C 206.826 114.013,202.550 111.428,201.818 109.768 C 197.361 99.669,197.045 89.618,200.977 83.000 C 204.315 77.381,213.033 74.572,221.500 76.388 M161.189 79.029 C 166.722 80.042,172.209 86.335,173.324 92.947 C 173.952 96.669,173.666 107.415,172.917 108.242 C 172.596 108.596,172.333 109.137,172.333 109.443 C 172.333 109.778,172.067 110.000,171.667 110.000 C 171.051 110.000,170.999 109.775,170.993 107.083 C 170.979 101.592,168.894 94.437,166.636 92.134 C 159.768 85.130,150.310 90.755,149.758 102.173 C 149.347 110.679,151.496 116.294,156.167 118.917 C 156.967 119.367,156.790 119.574,154.437 120.948 L 152.708 121.958 150.885 119.729 C 146.676 114.584,145.000 109.857,145.000 103.137 C 145.000 89.819,149.667 80.476,157.044 79.026 C 159.076 78.627,158.992 78.626,161.189 79.029 M162.263 93.563 C 164.359 95.138,165.638 97.978,166.176 102.250 L 166.396 104.000 165.079 104.000 L 163.762 104.000 163.178 101.750 C 162.857 100.513,162.435 98.862,162.241 98.083 L 161.888 96.667 159.777 96.667 L 157.667 96.667 157.667 95.167 C 157.667 94.087,157.800 93.667,158.144 93.667 C 158.407 93.667,158.720 93.358,158.840 92.980 C 159.120 92.097,160.661 92.360,162.263 93.563 M222.009 92.883 C 225.034 94.901,226.333 96.887,226.333 99.494 C 226.333 100.517,226.558 101.893,226.833 102.551 C 227.475 104.086,227.509 104.000,226.250 103.998 C 225.219 103.996,225.127 103.889,224.333 101.757 C 223.393 99.230,221.235 96.667,220.049 96.667 C 219.593 96.667,219.207 96.379,219.026 95.903 C 218.867 95.483,218.495 94.940,218.201 94.695 C 217.501 94.114,217.522 93.667,218.250 93.664 C 218.571 93.663,219.283 93.364,219.833 93.000 C 221.043 92.199,220.988 92.202,222.009 92.883 M187.878 110.694 C 193.225 111.438,201.228 113.922,209.871 117.521 C 212.654 118.680,215.809 119.882,216.882 120.192 C 225.884 122.793,234.179 126.952,238.141 130.851 L 240.085 132.764 239.873 134.799 C 239.306 140.246,236.883 142.733,223.343 151.770 C 200.022 167.333,190.437 171.374,180.017 170.038 C 171.817 168.986,167.657 166.620,158.870 158.010 C 150.953 150.253,146.554 143.941,151.577 147.544 C 171.232 161.646,190.159 159.975,219.000 141.591 C 225.551 137.416,226.401 136.490,224.297 135.822 C 223.804 135.665,223.667 135.301,223.667 134.144 C 223.667 132.293,223.943 132.216,219.958 135.182 C 199.982 150.048,181.652 156.317,169.167 152.552 C 160.971 150.081,151.923 144.286,148.682 139.434 L 146.945 136.833 147.493 134.847 C 149.481 127.646,160.819 118.649,175.296 112.785 C 180.804 110.554,183.568 110.095,187.878 110.694 M177.333 113.658 C 176.692 114.005,175.593 114.388,174.891 114.511 C 173.070 114.829,172.291 116.186,172.410 118.833 L 172.500 120.833 173.964 120.938 C 177.096 121.162,181.740 114.622,179.355 113.345 C 178.570 112.925,178.740 112.898,177.333 113.658 M185.805 113.827 C 185.240 116.079,188.923 121.000,191.173 121.000 C 192.784 121.000,193.673 120.364,193.655 119.226 C 193.604 116.088,186.469 111.181,185.805 113.827 M236.897 156.626 C 237.907 158.940,239.623 163.058,240.709 165.778 C 241.796 168.498,243.337 171.873,244.134 173.278 C 244.930 174.683,246.873 178.383,248.450 181.500 C 250.027 184.617,252.146 188.722,253.159 190.624 C 254.857 193.812,255.000 194.253,255.003 196.290 C 255.007 200.196,257.179 210.665,258.332 212.333 C 258.648 212.792,260.081 215.417,261.516 218.167 C 262.951 220.917,266.374 226.542,269.124 230.667 C 275.983 240.959,279.344 248.570,281.328 258.307 C 281.713 260.194,282.322 262.960,282.681 264.453 C 285.104 274.509,285.764 303.351,283.992 321.736 C 283.476 327.089,283.707 326.795,281.072 325.458 C 271.163 320.428,262.632 327.040,260.159 341.667 C 259.280 346.864,259.091 357.930,259.851 359.723 C 260.344 360.887,260.488 362.296,260.592 367.000 L 260.721 372.833 257.126 377.333 C 237.433 401.983,212.259 413.657,180.415 412.906 C 159.423 412.411,149.016 407.766,142.860 396.143 C 140.025 390.788,140.026 390.832,142.678 390.337 C 149.204 389.118,157.333 380.796,157.333 375.333 C 157.333 367.705,141.112 350.375,122.833 338.474 C 105.163 326.969,93.756 316.947,90.389 309.969 C 84.371 297.494,86.140 283.406,96.802 258.906 C 105.658 238.557,111.146 228.868,112.938 230.423 C 113.247 230.691,113.919 231.010,114.431 231.132 C 115.921 231.486,115.879 232.189,114.242 234.272 C 109.461 240.357,103.477 251.544,99.232 262.333 C 88.607 289.334,89.144 308.013,100.760 315.493 C 101.938 316.252,101.986 316.180,101.649 314.167 C 100.027 304.467,101.690 289.696,105.945 276.000 C 109.231 265.428,111.623 259.963,122.145 239.000 C 128.094 227.147,131.047 220.908,131.297 219.667 C 131.500 218.658,131.894 216.511,132.172 214.894 C 133.359 207.999,137.212 198.387,144.154 185.000 C 150.490 172.782,152.643 167.221,152.669 163.000 C 152.684 160.710,153.013 160.770,156.534 163.705 C 158.348 165.218,161.052 167.613,162.542 169.028 C 167.294 173.544,171.492 174.993,180.571 175.255 C 195.167 175.676,208.522 169.904,227.667 154.900 L 233.833 150.067 234.447 151.243 C 234.784 151.890,235.887 154.313,236.897 156.626 M289.216 222.630 C 299.482 226.681,309.304 240.488,312.124 254.833 C 314.794 268.421,313.628 286.991,309.120 302.667 C 307.368 308.758,307.374 308.203,309.054 308.432 C 309.849 308.541,312.525 308.802,315.000 309.012 C 330.401 310.321,338.735 314.136,344.422 322.480 C 346.382 325.356,347.300 330.304,346.002 330.999 C 345.335 331.356,344.005 329.876,344.001 328.772 C 343.998 327.634,338.070 320.119,336.175 318.851 C 328.995 314.043,311.072 310.825,304.042 313.081 C 298.602 314.826,293.006 319.360,288.190 325.925 C 285.974 328.946,284.377 328.185,286.048 324.903 C 289.126 318.857,294.872 312.901,300.214 310.219 C 301.886 309.380,301.953 309.288,302.966 306.489 C 315.987 270.505,308.358 234.306,285.781 224.949 C 283.853 224.150,283.517 223.419,284.552 222.276 C 285.307 221.442,286.418 221.526,289.216 222.630 M79.685 321.987 C 89.922 325.723,96.309 332.660,107.320 352.000 C 112.785 361.599,113.575 362.771,123.499 376.018 C 140.102 398.180,146.205 408.852,149.476 421.439 C 151.161 427.925,151.504 437.377,150.188 441.038 C 148.605 445.441,139.717 452.453,133.000 454.598 C 123.965 457.485,119.750 456.695,92.586 447.027 C 70.578 439.195,58.828 435.881,44.667 433.516 C 32.843 431.540,31.337 431.257,27.820 430.347 C 17.872 427.774,12.333 424.085,12.333 420.032 C 12.333 417.774,13.622 414.283,16.388 409.050 C 20.321 401.607,20.928 400.316,21.808 397.511 C 23.867 390.949,23.831 384.898,21.670 374.500 C 18.916 361.244,19.392 356.317,24.076 349.607 C 26.299 346.422,29.224 345.725,42.000 345.336 C 56.161 344.905,59.292 343.440,60.165 336.833 C 61.270 328.482,65.300 323.870,73.389 321.697 C 76.580 320.840,76.537 320.838,79.685 321.987 M280.244 330.297 C 283.131 332.188,283.520 332.691,284.161 335.357 C 288.312 352.611,295.878 359.320,311.197 359.331 C 318.008 359.336,327.708 354.493,332.167 348.862 C 332.717 348.167,334.817 346.003,336.833 344.053 C 338.850 342.103,341.523 339.482,342.774 338.227 C 346.109 334.881,348.928 333.988,350.062 335.917 C 350.877 337.302,352.877 344.714,353.503 348.667 C 355.847 363.473,362.160 372.622,373.167 377.164 C 389.990 384.107,392.205 398.076,377.500 404.495 C 376.033 405.135,374.653 405.660,374.433 405.663 C 373.652 405.671,365.263 409.641,359.267 412.841 C 347.269 419.245,344.201 421.481,327.000 436.356 C 312.791 448.645,312.210 449.121,310.446 449.918 C 309.737 450.238,307.884 451.420,306.328 452.545 C 292.441 462.585,270.121 458.086,261.240 443.456 C 259.722 440.955,259.718 441.525,261.320 432.556 C 262.336 426.868,262.716 423.670,262.971 418.667 C 263.161 414.950,263.523 411.339,263.818 410.234 C 264.101 409.171,264.336 407.821,264.340 407.234 C 264.344 406.647,264.588 405.192,264.882 404.000 C 265.340 402.142,265.452 397.791,265.667 373.500 C 265.962 340.189,266.170 337.875,269.310 332.924 C 271.796 329.005,276.533 327.866,280.244 330.297 " stroke="none" fill="#ce2c5a" fill-rule="evenodd"></path></g></svg>