<svg id="svg" version="1.1" xmlns="http://www.w3.org/2000/svg" xmlns:xlink="http://www.w3.org/1999/xlink" width="400" height="400" viewBox="0, 0, 400,400"><g id="svgg"><path id="path0" d="M198.691 26.689 C 199.401 26.777,200.661 26.779,201.491 26.692 C 202.321 26.605,201.740 26.533,200.200 26.531 C 198.660 26.529,197.981 26.600,198.691 26.689 M190.600 27.838 C 116.829 33.486,58.484 78.768,35.612 148.125 C 34.900 150.284,34.234 151.967,34.131 151.865 C 33.871 151.604,37.976 139.525,40.425 133.346 C 43.006 126.832,43.006 126.832,42.194 127.800 C 40.558 129.749,34.757 143.955,32.067 152.600 C -7.604 280.076,100.754 403.206,231.800 379.562 C 346.011 358.956,410.051 231.754,358.321 128.258 C 355.550 122.714,355.454 123.759,358.174 129.865 C 360.882 135.942,367.627 155.760,366.658 154.792 C 366.544 154.678,365.615 151.888,364.593 148.592 C 345.557 87.203,291.482 40.278,227.936 30.002 C 217.162 28.260,198.906 27.202,190.600 27.838 M162.227 30.359 C 161.780 30.534,161.628 30.770,161.868 30.918 C 162.096 31.059,162.624 30.916,163.041 30.600 C 163.858 29.982,163.477 29.869,162.227 30.359 M139.800 36.986 C 139.140 37.288,138.881 37.550,139.224 37.568 C 139.566 37.585,140.196 37.336,140.624 37.013 C 141.588 36.283,141.351 36.276,139.800 36.986 M293.400 53.807 C 293.840 54.166,294.560 54.635,295.000 54.851 L 295.800 55.244 295.000 54.593 C 294.560 54.234,293.840 53.765,293.400 53.549 L 292.600 53.156 293.400 53.807 M298.200 57.200 C 298.598 57.640,299.104 58.000,299.324 58.000 C 299.544 58.000,299.398 57.640,299.000 57.200 C 298.602 56.760,298.096 56.400,297.876 56.400 C 297.656 56.400,297.802 56.760,298.200 57.200 M100.394 57.618 C 99.847 58.039,99.580 58.380,99.800 58.378 C 100.329 58.373,101.791 57.258,101.565 57.031 C 101.468 56.934,100.941 57.198,100.394 57.618 M80.800 73.600 C 79.590 74.686,78.787 75.580,79.015 75.587 C 79.243 75.594,80.317 74.700,81.400 73.600 C 83.905 71.056,83.634 71.056,80.800 73.600 M323.000 78.000 C 324.750 79.760,326.243 81.200,326.318 81.200 C 326.703 81.200,324.620 78.746,322.667 76.899 C 319.211 73.630,319.453 74.432,323.000 78.000 M74.971 79.300 C 72.333 82.190,71.668 83.128,73.339 81.600 C 74.750 80.310,76.653 78.000,76.306 78.000 C 76.224 78.000,75.623 78.585,74.971 79.300 M69.925 84.698 C 68.768 86.045,68.700 86.592,69.825 85.512 C 70.448 84.914,70.861 84.328,70.743 84.210 C 70.625 84.092,70.257 84.311,69.925 84.698 M337.213 93.824 C 337.194 94.444,338.293 95.840,338.577 95.556 C 338.711 95.423,338.461 94.883,338.023 94.357 C 337.585 93.830,337.221 93.591,337.213 93.824 M246.479 101.243 C 258.206 104.567,272.107 108.503,277.371 109.989 C 285.499 112.284,286.991 112.822,287.262 113.557 C 287.953 115.424,287.132 286.008,286.431 286.384 C 286.080 286.571,284.265 287.172,282.397 287.718 C 280.529 288.264,273.060 290.516,265.800 292.722 C 258.540 294.928,246.481 298.556,239.003 300.784 L 225.406 304.835 222.403 303.778 C 210.418 299.561,126.543 268.652,117.600 265.157 L 114.600 263.984 117.000 264.224 C 119.630 264.486,140.669 267.366,169.600 271.424 C 215.643 277.882,222.349 278.800,223.459 278.800 C 224.093 278.800,224.448 278.516,224.586 277.900 C 224.938 276.328,225.600 202.666,225.600 165.032 L 225.600 128.785 224.700 129.001 C 224.205 129.120,217.680 130.642,210.200 132.384 C 202.720 134.125,190.120 137.091,182.200 138.975 C 174.280 140.859,164.380 143.213,160.200 144.206 C 156.020 145.199,152.420 146.012,152.200 146.012 C 150.542 146.013,150.611 144.041,150.400 197.669 L 150.200 248.568 146.800 249.894 C 144.930 250.624,136.740 253.760,128.600 256.863 C 120.460 259.965,113.575 262.590,113.300 262.695 C 112.731 262.912,112.588 200.277,113.065 159.753 L 113.330 137.305 133.165 129.778 C 144.074 125.638,169.020 116.171,188.600 108.741 C 208.180 101.311,224.416 95.224,224.679 95.216 C 224.943 95.207,234.753 97.919,246.479 101.243 M342.800 101.394 C 342.800 101.934,346.084 106.849,346.300 106.633 C 346.405 106.528,346.121 105.848,345.669 105.121 C 344.401 103.085,342.800 101.005,342.800 101.394 M47.618 116.366 C 47.373 116.825,47.339 117.200,47.543 117.200 C 47.954 117.200,48.522 115.988,48.242 115.708 C 48.144 115.611,47.864 115.907,47.618 116.366 M353.200 119.353 C 353.200 119.683,353.380 120.064,353.600 120.200 C 353.820 120.336,354.000 120.177,354.000 119.847 C 354.000 119.517,353.820 119.136,353.600 119.000 C 353.380 118.864,353.200 119.023,353.200 119.353 M45.381 120.837 C 44.479 122.582,44.928 122.727,45.937 121.017 C 46.397 120.238,46.604 119.600,46.397 119.600 C 46.190 119.600,45.733 120.157,45.381 120.837 M43.608 124.384 C 42.701 126.163,42.648 126.400,43.157 126.400 C 43.531 126.400,43.859 125.746,44.414 123.900 C 44.883 122.338,44.550 122.538,43.608 124.384 M33.000 157.200 C 32.640 158.840,32.317 158.517,32.650 156.850 C 32.791 156.147,32.989 155.656,33.091 155.758 C 33.193 155.859,33.152 156.509,33.000 157.200 M31.197 164.287 C 30.763 164.963,30.752 164.962,30.970 164.267 C 31.096 163.864,31.221 163.234,31.246 162.867 C 31.288 162.266,31.311 162.268,31.473 162.887 C 31.573 163.266,31.448 163.896,31.197 164.287 " stroke="none" fill="#ce2c5a" fill-rule="evenodd"></path></g></svg>