<svg id="svg" version="1.1" xmlns="http://www.w3.org/2000/svg" xmlns:xlink="http://www.w3.org/1999/xlink" width="400" height="400" viewBox="0, 0, 400,400"><g id="svgg"><path id="path0" d="M16.800 200.000 L 16.800 383.200 200.000 383.200 L 383.200 383.200 383.200 200.000 L 383.200 16.800 200.000 16.800 L 16.800 16.800 16.800 200.000 M224.301 200.146 L 224.401 319.692 222.101 319.422 C 219.332 319.097,206.358 316.901,175.600 311.552 C 162.950 309.353,148.010 306.761,142.400 305.794 C 136.790 304.827,122.930 302.427,111.600 300.461 C 100.270 298.494,88.525 296.470,85.500 295.962 L 80.000 295.039 80.000 200.392 L 80.000 105.745 86.500 104.629 C 90.075 104.015,97.320 102.737,102.600 101.787 C 107.880 100.838,115.800 99.420,120.200 98.636 C 124.600 97.852,140.350 95.040,155.200 92.386 C 170.050 89.733,185.170 87.042,188.800 86.406 C 206.771 83.259,220.606 80.728,220.778 80.555 C 220.884 80.449,221.698 80.416,222.585 80.481 L 224.200 80.600 224.301 200.146 M257.200 111.397 C 272.779 115.405,272.400 115.276,272.400 116.539 C 272.400 117.468,269.824 137.504,269.423 139.691 C 269.245 140.666,269.553 141.033,272.312 143.137 C 274.010 144.433,276.834 146.686,278.586 148.146 C 280.969 150.131,281.977 150.739,282.586 150.560 C 283.034 150.428,286.730 149.061,290.800 147.522 C 303.468 142.731,304.510 142.394,305.113 142.894 C 306.240 143.829,320.000 167.703,320.000 168.723 C 320.000 169.278,317.269 171.556,308.794 178.066 C 299.716 185.041,299.928 184.789,300.421 188.009 C 300.639 189.434,301.038 192.831,301.309 195.557 L 301.800 200.514 312.523 205.227 C 323.792 210.180,324.402 210.505,324.396 211.549 C 324.386 213.187,317.265 239.306,316.665 239.907 C 316.049 240.523,315.204 240.465,304.501 239.076 C 289.845 237.175,290.477 237.165,289.122 239.301 C 288.530 240.235,286.599 242.800,284.831 245.000 C 281.311 249.381,281.197 249.758,282.442 252.885 C 282.905 254.048,284.787 258.940,286.624 263.756 L 289.964 272.513 288.845 273.556 C 287.621 274.699,269.867 285.317,264.139 288.333 C 263.335 288.757,262.767 288.113,255.394 278.412 C 248.121 268.843,247.427 268.053,246.455 268.225 C 241.595 269.086,237.369 269.597,235.100 269.598 L 232.400 269.600 232.400 256.674 L 232.400 243.747 236.300 243.285 C 265.634 239.808,282.960 210.635,271.860 183.408 C 266.114 169.314,252.533 159.296,236.295 157.171 L 232.400 156.662 232.400 143.318 L 232.400 129.973 233.436 127.928 C 234.006 126.804,236.183 121.995,238.273 117.242 C 242.288 108.110,242.583 107.559,243.329 107.799 C 243.588 107.882,249.830 109.502,257.200 111.397 M149.800 152.622 C 140.158 153.341,139.775 153.465,139.018 156.114 C 138.691 157.261,135.634 168.100,132.225 180.200 C 128.817 192.300,123.618 210.750,120.671 221.200 C 117.725 231.650,115.193 240.857,115.046 241.661 L 114.778 243.122 116.689 243.369 C 118.379 243.588,128.980 244.387,130.310 244.396 C 131.014 244.401,131.350 243.389,133.815 233.832 C 135.002 229.229,136.204 225.308,136.487 225.117 C 136.769 224.926,142.490 224.882,149.200 225.018 C 164.096 225.321,162.300 224.149,165.168 235.429 C 167.691 245.352,168.041 246.302,169.274 246.580 C 171.267 247.029,186.221 247.879,186.567 247.562 C 187.180 247.001,185.335 240.137,176.254 209.200 C 175.059 205.130,170.993 191.180,167.217 178.200 C 163.441 165.220,160.039 154.060,159.656 153.400 C 158.807 151.934,158.911 151.943,149.800 152.622 M151.973 181.211 C 153.289 186.815,155.272 195.180,156.382 199.800 C 157.491 204.420,158.399 208.335,158.399 208.500 C 158.400 208.856,141.552 208.910,140.633 208.557 C 139.733 208.212,139.797 207.717,141.771 199.749 C 142.746 195.817,144.544 188.280,145.769 183.000 C 149.377 167.436,148.781 167.608,151.973 181.211 M238.963 185.835 C 252.919 192.668,249.445 213.219,233.900 215.788 L 232.400 216.036 232.400 200.162 L 232.400 184.288 234.557 184.511 C 235.744 184.633,237.726 185.229,238.963 185.835 " stroke="none" fill="#ce2c5a" fill-rule="evenodd"></path></g></svg>