<svg xmlns="http://www.w3.org/2000/svg" xmlns:xlink="http://www.w3.org/1999/xlink" width="500" zoomAndPan="magnify" viewBox="0 0 375 374.999991" height="500" preserveAspectRatio="xMidYMid meet" version="1.0"><defs><clipPath id="e45115245d"><path d="M 123 25 L 356.265625 25 L 356.265625 252.863281 L 123 252.863281 Z M 123 25 " clip-rule="nonzero"/></clipPath><clipPath id="9aac5960f9"><path d="M 20 242 L 166 242 L 166 312.773438 L 20 312.773438 Z M 20 242 " clip-rule="nonzero"/></clipPath><clipPath id="10f909d755"><path d="M 239 237.023438 L 356.25 237.023438 L 356.25 260 L 239 260 Z M 239 237.023438 " clip-rule="nonzero"/></clipPath><clipPath id="06776bbdfb"><path d="M 355 280 L 356.25 280 L 356.25 298 L 355 298 Z M 355 280 " clip-rule="nonzero"/></clipPath></defs><g clip-path="url(#e45115245d)"><path fill="#ce2c5a" d="M 337.933594 200.988281 C 325.28125 200.632812 315.464844 201.929688 307.238281 205.390625 C 304.871094 206.34375 301.070312 206.34375 300.757812 209.324219 C 302.023438 210.574219 302.175781 212.621094 303.285156 214.355469 C 305.183594 217.503906 308.507812 221.742188 311.511719 223.941406 L 321.636719 231.175781 C 327.804688 234.945312 334.765625 237.148438 340.777344 240.921875 C 344.257812 243.125 347.738281 245.953125 351.21875 248.316406 C 352.992188 249.574219 354.066406 251.621094 356.28125 252.402344 L 356.28125 251.925781 C 355.175781 250.519531 354.855469 248.472656 353.753906 246.894531 L 349.003906 242.339844 C 344.417969 236.207031 338.71875 230.859375 332.550781 226.460938 C 327.488281 223 316.417969 218.285156 314.359375 212.472656 L 314.046875 212.117188 C 317.523438 211.765625 321.636719 210.542969 324.960938 209.597656 C 330.34375 208.1875 335.246094 208.5 340.777344 207.085938 L 348.375 204.882812 L 348.375 203.472656 C 345.527344 200.644531 343.472656 196.871094 340.46875 194.199219 C 332.402344 187.28125 323.535156 180.519531 314.359375 174.859375 C 309.457031 171.71875 303.125 169.671875 297.90625 167.003906 C 296.003906 166.058594 292.84375 165.585938 291.738281 164.015625 C 288.882812 160.5625 287.304688 155.996094 285.25 151.90625 L 272.277344 124.550781 C 269.429688 118.417969 267.6875 112.289062 264.210938 106.628906 C 247.914062 79.898438 230.191406 63.707031 202.980469 47.824219 C 197.132812 44.523438 190.171875 43.105469 182.769531 41.378906 L 170.90625 40.742188 C 168.371094 39.644531 165.84375 36.65625 163.625 35.238281 C 154.609375 29.578125 131.351562 17.316406 124.703125 33.476562 C 120.429688 43.695312 131.03125 53.757812 134.632812 58.945312 C 137.328125 62.5625 140.800781 66.648438 142.707031 70.738281 C 143.769531 73.410156 144.125 76.242188 145.234375 79.070312 C 147.761719 85.988281 150.136719 93.695312 153.460938 100.144531 C 155.234375 103.445312 157.09375 106.910156 159.3125 109.894531 C 160.578125 111.65625 162.792969 112.410156 163.265625 115.242188 C 161.046875 118.386719 160.894531 123.097656 159.628906 127.035156 C 153.933594 144.800781 156.148438 166.8125 164.214844 179.894531 C 166.75 183.820312 172.726562 192.472656 180.832031 189.167969 C 187.949219 186.339844 186.363281 177.375 188.417969 169.515625 C 188.898438 167.628906 188.578125 166.371094 189.523438 165.109375 L 189.523438 165.460938 L 196.015625 178.511719 C 200.917969 186.214844 209.464844 194.234375 216.578125 199.585938 C 220.375 202.414062 223.382812 207.289062 228.125 209.015625 L 228.125 208.542969 L 227.8125 208.542969 C 226.863281 207.132812 225.4375 206.496094 224.171875 205.398438 C 221.324219 202.570312 218.160156 199.109375 215.945312 195.964844 C 209.304688 187.164062 203.453125 177.410156 198.230469 167.351562 C 195.695312 162.476562 193.480469 157.132812 191.429688 152.257812 C 190.472656 150.371094 190.472656 147.535156 188.894531 146.597656 C 186.519531 150.054688 183.042969 153.046875 181.296875 157.289062 C 178.289062 164.050781 177.976562 172.382812 176.871094 181.03125 C 176.230469 181.191406 176.515625 181.03125 176.230469 181.382812 C 171.175781 180.128906 169.429688 174.933594 167.535156 170.535156 C 162.789062 159.375 161.996094 141.449219 166.109375 128.558594 C 167.214844 125.253906 171.964844 114.878906 170.070312 111.734375 C 169.113281 108.746094 165.957031 107.019531 164.210938 104.660156 C 162.15625 101.671875 159.945312 97.898438 158.519531 94.597656 C 154.726562 85.789062 152.828125 76.042969 148.710938 67.238281 C 146.808594 63.152344 143.488281 58.90625 140.796875 55.132812 C 137.792969 50.886719 134.476562 47.898438 132.101562 42.871094 C 131.308594 41.109375 130.203125 38.3125 131.46875 36.421875 C 131.78125 35.164062 132.417969 34.660156 133.679688 34.378906 C 135.734375 32.617188 141.59375 34.851562 143.648438 35.789062 C 149.5 38.148438 154.402344 40.347656 159.308594 43.648438 C 161.523438 45.21875 163.898438 48.207031 166.746094 48.996094 L 170.074219 48.996094 C 175.136719 50.09375 180.828125 49.347656 185.566406 50.757812 C 193.953125 53.4375 201.546875 57.363281 208.355469 61.609375 C 229.074219 74.660156 246.167969 93.214844 257.710938 115.386719 C 259.609375 119 260.398438 122.300781 262.144531 126.078125 C 265.46875 133.78125 269.582031 141.640625 272.898438 149.191406 C 276.226562 156.582031 279.386719 164.132812 284.132812 170.265625 C 286.507812 173.566406 295.996094 175.292969 300.265625 177.023438 C 303.433594 178.433594 308.332031 179.703125 311.1875 181.429688 C 316.5625 184.730469 321.941406 188.503906 327 192.121094 C 329.527344 194.003906 337.445312 197.933594 337.914062 201.070312 Z M 176.597656 64.359375 C 174.402344 64.339844 172.242188 64.601562 170.113281 65.144531 L 170.113281 65.496094 L 170.425781 65.496094 C 171.691406 68.015625 173.910156 69.746094 175.492188 71.945312 L 179.132812 79.496094 L 179.445312 79.140625 C 181.660156 77.570312 182.769531 75.054688 182.769531 71.285156 C 181.820312 70.183594 181.664062 69.082031 180.875 67.980469 C 179.921875 66.410156 177.867188 65.621094 176.597656 64.367188 Z M 176.597656 64.359375 " fill-opacity="1" fill-rule="evenodd"/></g><g clip-path="url(#9aac5960f9)"><path fill="#ce2c5a" d="M 20.046875 296.722656 L 31.671875 296.722656 L 31.671875 250.835938 L 49.671875 290.851562 C 51.792969 295.675781 54.703125 297.410156 60.402344 297.410156 C 66.101562 297.410156 68.898438 295.695312 71.023438 290.851562 L 89.023438 250.835938 L 89.023438 296.738281 L 100.652344 296.738281 L 100.652344 250.914062 C 100.652344 246.441406 98.859375 244.28125 95.171875 243.164062 C 86.34375 240.40625 80.414062 242.792969 77.734375 248.753906 L 60.070312 288.242188 L 42.964844 248.734375 C 40.394531 242.773438 34.355469 240.390625 25.527344 243.144531 C 21.835938 244.265625 20.046875 246.425781 20.046875 250.894531 Z M 110.316406 259.359375 L 121.941406 259.359375 L 121.941406 284.652344 C 121.832031 286.027344 122.378906 289.25 128.75 289.351562 C 132 289.402344 153.828125 289.351562 154.03125 289.351562 L 154.03125 259.234375 L 165.679688 259.234375 C 165.734375 259.234375 165.667969 300.296875 165.671875 300.472656 C 165.734375 310.597656 153.101562 312.796875 147.28125 312.96875 L 110.570312 312.96875 L 110.570312 305.148438 L 147.347656 305.144531 C 154.828125 304.351562 153.945312 300.636719 153.945312 299.386719 L 153.945312 296.335938 L 129.234375 296.335938 C 117.738281 296.230469 110.417969 291.214844 110.328125 285.441406 C 110.316406 284.925781 110.574219 259.609375 110.320312 259.359375 Z M 110.316406 259.359375 " fill-opacity="1" fill-rule="nonzero"/></g><path fill="#ce2c5a" d="M 174.644531 296.722656 L 208.070312 296.722656 C 211.980469 296.722656 215.785156 295.902344 218.804688 294.484375 C 223.835938 292.175781 226.296875 289.046875 226.296875 284.949219 L 226.296875 276.453125 C 226.296875 273.101562 223.5 269.972656 218.023438 267.886719 C 215.117188 266.765625 211.539062 266.171875 208.074219 266.171875 L 193.988281 266.171875 C 189.292969 266.171875 187.058594 264.753906 186.5 261.625 C 186.386719 261.253906 186.386719 260.9375 186.386719 260.582031 L 186.386719 255.292969 C 186.386719 254.996094 186.386719 254.695312 186.5 254.324219 C 187.058594 251.941406 188.289062 251.265625 192.421875 250.878906 C 192.757812 250.878906 193.207031 250.800781 193.542969 250.800781 L 226.746094 250.800781 L 226.746094 243.054688 L 194.101562 243.054688 C 189.40625 243.054688 186.945312 243.351562 184.710938 244.023438 C 177.769531 246.183594 174.75 249.632812 174.75 255.589844 L 174.75 262.371094 C 174.75 267.589844 180.675781 272.058594 190.625 273.101562 C 191.742188 273.175781 192.859375 273.25 193.976562 273.25 L 206.050781 273.25 C 206.5 273.25 206.949219 273.25 207.28125 273.324219 C 210.96875 273.625 212.539062 274.292969 213.652344 275.632812 C 214.34375 276.324219 214.550781 276.976562 214.550781 277.703125 L 214.550781 284.484375 C 214.550781 285.304688 213.992188 286.347656 212.875 287.238281 C 211.867188 288.136719 210.191406 288.730469 207.953125 288.878906 C 207.507812 288.878906 207.171875 288.953125 206.726562 288.953125 L 174.640625 288.953125 L 174.640625 296.703125 Z M 298.824219 283.234375 C 298.824219 291.207031 304.746094 295.679688 316.710938 296.574219 C 317.824219 296.660156 318.941406 296.710938 320.0625 296.722656 L 350.359375 296.722656 L 350.359375 288.972656 L 319.839844 288.972656 C 313.019531 288.972656 310.449219 287.257812 310.449219 283.160156 L 310.449219 243.070312 L 298.820312 243.070312 L 298.820312 283.230469 Z M 233.710938 283.640625 L 233.710938 256.015625 C 233.710938 248.996094 238.640625 244.738281 248.386719 243.394531 C 249.425781 243.246094 250.472656 243.171875 251.523438 243.171875 L 273.59375 243.171875 C 274.683594 243.171875 275.765625 243.246094 276.84375 243.394531 C 286.589844 244.738281 291.519531 248.992188 291.519531 256.015625 L 291.519531 283.640625 C 291.519531 289.332031 289.425781 292.378906 284.597656 294.367188 L 296.050781 304.703125 L 282.550781 304.703125 L 273.285156 296.339844 L 263.960938 296.933594 L 251.523438 296.933594 C 249.398438 296.933594 247.15625 296.632812 244.691406 295.960938 C 237.28125 293.945312 233.714844 290.0625 233.714844 283.640625 Z M 246.261719 282.949219 C 246.261719 283.324219 246.375 283.695312 246.484375 284.144531 C 247.175781 287.355469 250.183594 289.148438 254.757812 289.148438 L 265.320312 289.148438 L 255.617188 280.390625 L 269.117188 280.390625 L 277.5625 288.027344 C 279.121094 287.199219 280.148438 285.925781 280.492188 284.296875 C 280.601562 283.921875 280.601562 283.550781 280.601562 283.175781 L 280.601562 256.6875 C 280.601562 256.390625 280.601562 256 280.492188 255.640625 C 279.800781 252.65625 276.792969 250.9375 272.3125 250.9375 L 254.789062 250.9375 C 249.617188 250.9375 246.277344 253.179688 246.277344 256.6875 L 246.277344 282.96875 Z M 246.261719 282.949219 " fill-opacity="1" fill-rule="nonzero"/><g clip-path="url(#10f909d755)"><path fill="#ce2c5a" d="M 360.582031 230.214844 C 353.4375 230.023438 347.976562 230.683594 343.308594 232.652344 C 341.980469 233.210938 339.867188 233.226562 339.648438 234.890625 C 340.378906 235.652344 340.496094 236.792969 341.070312 237.730469 C 342.1875 239.535156 344.070312 241.953125 345.746094 243.21875 C 347.582031 244.601562 349.46875 246.082031 351.4375 247.28125 C 354.9375 249.414062 358.839844 250.632812 362.207031 252.769531 C 364.195312 254.027344 366.164062 255.609375 368.101562 257.035156 C 369.058594 257.738281 369.703125 258.828125 370.945312 259.269531 L 370.945312 259.066406 C 370.289062 258.234375 370.121094 257.089844 369.523438 256.222656 L 366.882812 253.582031 C 364.296875 250.136719 361.019531 247.144531 357.535156 244.640625 C 354.753906 242.644531 348.53125 239.949219 347.371094 236.714844 L 347.167969 236.511719 C 349.140625 236.289062 351.445312 235.578125 353.269531 235.089844 C 356.324219 234.273438 359.054688 234.484375 362.210938 233.667969 L 366.480469 232.449219 L 366.480469 231.636719 C 364.882812 230 363.746094 227.835938 362.007812 226.355469 C 357.460938 222.476562 352.492188 218.609375 347.378906 215.378906 C 344.542969 213.589844 341.039062 212.425781 338.03125 210.910156 C 337.019531 210.398438 335.242188 210.132812 334.574219 209.285156 C 332.996094 207.269531 332.136719 204.71875 330.917969 202.390625 C 328.367188 197.480469 325.863281 192.117188 323.601562 186.949219 C 322.058594 183.425781 321.050781 179.953125 319.132812 176.792969 C 309.90625 161.625 299.96875 152.46875 284.585938 143.472656 C 281.3125 141.5625 277.371094 140.800781 273.203125 139.816406 L 266.496094 139.410156 C 265.132812 138.839844 263.710938 137.167969 262.429688 136.359375 C 257.332031 133.136719 244.257812 126.136719 240.484375 135.324219 C 238.101562 141.136719 244.046875 146.804688 246.175781 149.753906 C 247.667969 151.820312 249.578125 154.132812 250.644531 156.457031 C 251.34375 157.984375 251.46875 159.515625 252.066406 161.132812 C 253.542969 165.09375 254.828125 169.441406 256.742188 173.117188 C 257.707031 174.980469 258.769531 176.941406 259.992188 178.605469 C 260.742188 179.625 262.027344 180.074219 262.226562 181.652344 C 260.972656 183.410156 260.902344 186.132812 260.195312 188.359375 C 257.019531 198.371094 258.214844 210.816406 262.835938 218.226562 C 264.253906 220.5 267.589844 225.378906 272.183594 223.507812 C 276.199219 221.871094 275.285156 216.808594 276.453125 212.335938 C 276.710938 211.316406 276.550781 210.578125 277.0625 209.898438 L 277.0625 210.101562 L 280.71875 217.414062 C 283.425781 221.773438 288.234375 226.328125 292.304688 229.402344 C 294.414062 230.996094 296.09375 233.753906 298.808594 234.6875 L 298.808594 234.484375 L 298.605469 234.484375 C 298.074219 233.65625 297.246094 233.316406 296.570312 232.65625 C 294.980469 231.097656 293.210938 229.160156 291.894531 227.375 C 288.191406 222.347656 284.921875 216.847656 281.9375 211.121094 C 280.515625 208.386719 279.277344 205.367188 278.078125 202.585938 C 277.617188 201.511719 277.621094 199.890625 276.65625 199.335938 C 275.34375 201.375 273.40625 203.023438 272.390625 205.429688 C 270.761719 209.28125 270.550781 213.972656 269.949219 218.839844 C 269.59375 218.96875 269.753906 218.882812 269.542969 219.042969 C 266.714844 218.363281 265.71875 215.449219 264.667969 212.949219 C 262.007812 206.625 261.515625 196.453125 263.855469 189.179688 C 264.457031 187.296875 267.195312 181.367188 266.089844 179.628906 C 265.558594 177.894531 263.816406 176.871094 262.835938 175.5625 C 261.632812 173.925781 260.421875 171.765625 259.585938 169.875 C 257.40625 164.949219 256.390625 159.417969 254.097656 154.433594 C 253.003906 152.050781 251.152344 149.644531 249.628906 147.542969 C 247.945312 145.199219 246.058594 143.46875 244.753906 140.652344 C 244.289062 139.644531 243.65625 138.03125 244.347656 136.992188 C 244.414062 136.6875 244.558594 136.425781 244.777344 136.207031 C 245 135.984375 245.261719 135.839844 245.566406 135.773438 C 246.746094 134.867188 250.027344 136.074219 251.257812 136.585938 C 254.511719 137.941406 257.234375 139.230469 259.996094 141.058594 C 261.324219 141.917969 262.660156 143.636719 264.261719 144.105469 L 266.089844 144.105469 C 268.949219 144.765625 272.15625 144.3125 274.824219 145.125 C 279.550781 146.558594 283.78125 148.792969 287.628906 151.21875 C 299.34375 158.613281 308.917969 169.140625 315.46875 181.710938 C 316.523438 183.734375 316.980469 185.664062 317.910156 187.808594 C 319.78125 192.113281 322.140625 196.582031 324.003906 200.808594 C 325.867188 205.03125 327.675781 209.285156 330.304688 212.796875 C 331.6875 214.640625 337.027344 215.632812 339.449219 216.65625 C 341.152344 217.375 343.9375 218.121094 345.546875 219.09375 C 348.621094 220.949219 351.605469 223.160156 354.492188 225.191406 C 355.933594 226.207031 360.367188 228.433594 360.585938 230.269531 Z M 360.582031 230.214844 " fill-opacity="1" fill-rule="nonzero"/></g><g clip-path="url(#06776bbdfb)"><path fill="#ce2c5a" d="M 355.824219 288.753906 C 355.824219 293.867188 359.871094 297.316406 364.394531 297.316406 C 368.917969 297.316406 372.960938 293.867188 372.960938 288.753906 C 372.960938 283.636719 368.917969 280.1875 364.394531 280.1875 C 359.871094 280.1875 355.824219 283.636719 355.824219 288.753906 Z M 371.042969 288.753906 C 371.042969 292.636719 368.074219 295.535156 364.390625 295.535156 C 360.667969 295.535156 357.738281 292.636719 357.738281 288.753906 C 357.738281 284.867188 360.664062 281.96875 364.390625 281.96875 C 368.070312 281.96875 371.042969 284.867188 371.042969 288.753906 Z M 366.699219 293.640625 L 368.617188 293.640625 L 365.808594 289.347656 C 367.316406 289.1875 368.457031 288.457031 368.457031 286.675781 C 368.457031 284.6875 367.199219 283.867188 364.78125 283.867188 L 360.960938 283.867188 L 360.960938 293.644531 L 362.609375 293.644531 L 362.609375 289.417969 L 364.136719 289.417969 L 366.699219 293.644531 Z M 362.609375 288.042969 L 362.609375 285.234375 L 364.503906 285.234375 C 365.484375 285.234375 366.675781 285.417969 366.675781 286.5625 C 366.675781 287.929688 365.601562 288.046875 364.367188 288.046875 L 362.609375 288.046875 Z M 362.609375 288.042969 " fill-opacity="1" fill-rule="evenodd"/></g></svg>