<svg xmlns="http://www.w3.org/2000/svg" xmlns:xlink="http://www.w3.org/1999/xlink" width="500" zoomAndPan="magnify" viewBox="0 0 375 374.999991" height="500" preserveAspectRatio="xMidYMid meet" version="1.0"><defs><clipPath id="6a88c3477a"><path d="M 60 8.117188 L 316 8.117188 L 316 291 L 60 291 Z M 60 8.117188 " clip-rule="nonzero"/></clipPath><clipPath id="eb65325a0a"><path d="M 250 329 L 280.015625 329 L 280.015625 364 L 250 364 Z M 250 329 " clip-rule="nonzero"/></clipPath><clipPath id="f6d9b363d5"><path d="M 94.765625 311 L 241 311 L 241 364 L 94.765625 364 Z M 94.765625 311 " clip-rule="nonzero"/></clipPath></defs><g clip-path="url(#6a88c3477a)"><path fill="#ce2c5a" d="M 176.507812 11.886719 C 183.574219 7.886719 192.585938 7.867188 199.476562 11.886719 L 304.980469 71.351562 C 311.578125 75.058594 315.996094 82.417969 315.933594 90.023438 L 315.933594 209.25 C 315.976562 217.171875 311.128906 224.6875 304.167969 228.328125 L 199.226562 287.519531 C 198.335938 288.011719 197.414062 288.445312 196.460938 288.8125 C 195.511719 289.183594 194.539062 289.492188 193.546875 289.730469 C 192.554688 289.972656 191.550781 290.148438 190.539062 290.253906 C 189.523438 290.363281 188.503906 290.402344 187.484375 290.375 C 186.464844 290.34375 185.449219 290.25 184.441406 290.085938 C 183.433594 289.921875 182.441406 289.691406 181.464844 289.398438 C 180.488281 289.101562 179.535156 288.742188 178.605469 288.320312 C 177.679688 287.898438 176.78125 287.414062 175.917969 286.871094 L 144.425781 268.679688 C 142.28125 267.398438 139.867188 266.382812 138.347656 264.308594 C 139.691406 262.507812 142.078125 262.277344 144.019531 261.480469 C 148.402344 260.085938 152.410156 257.949219 156.4375 255.6875 C 157.457031 254.980469 158.699219 255.246094 159.671875 255.882812 L 186.527344 271.410156 C 188.441406 272.511719 190.386719 271.054688 192.027344 270.128906 L 295.070312 211.988281 C 296.339844 211.371094 297.046875 210.027344 296.941406 208.632812 L 296.941406 90.550781 C 297.082031 88.960938 296.171875 87.511719 294.734375 86.867188 L 190.058594 27.933594 C 189.757812 27.726562 189.429688 27.566406 189.082031 27.457031 C 188.730469 27.347656 188.375 27.292969 188.007812 27.292969 C 187.640625 27.289062 187.28125 27.34375 186.929688 27.453125 C 186.582031 27.558594 186.253906 27.71875 185.953125 27.925781 L 81.425781 86.984375 C 80.015625 87.628906 79.042969 89.058594 79.21875 90.648438 L 79.21875 208.730469 C 79.09375 210.125 79.835938 211.441406 81.117188 212.042969 L 109.046875 227.804688 C 114.296875 230.632812 120.734375 232.222656 126.511719 230.148438 C 127.140625 229.910156 127.746094 229.625 128.332031 229.296875 C 128.917969 228.96875 129.476562 228.597656 130.003906 228.183594 C 130.53125 227.769531 131.027344 227.320312 131.488281 226.828125 C 131.949219 226.339844 132.367188 225.820312 132.75 225.265625 C 133.128906 224.714844 133.46875 224.136719 133.761719 223.53125 C 134.054688 222.929688 134.300781 222.304688 134.496094 221.664062 C 134.695312 221.023438 134.84375 220.371094 134.945312 219.707031 C 135.042969 219.042969 135.089844 218.375 135.089844 217.703125 L 135.117188 100.328125 C 134.992188 98.589844 136.636719 97.148438 138.324219 97.324219 L 151.75 97.324219 C 153.515625 97.28125 154.902344 99.152344 154.664062 100.902344 L 154.636719 219.019531 C 154.644531 229.511719 150.335938 240.921875 140.628906 246.070312 C 128.667969 252.253906 113.878906 250.953125 102.0625 245.011719 L 72.027344 228.40625 C 64.960938 224.875 60.21875 217.242188 60.261719 209.328125 L 60.261719 90.101562 C 60.269531 89.136719 60.339844 88.175781 60.476562 87.222656 C 60.613281 86.265625 60.808594 85.324219 61.070312 84.394531 C 61.332031 83.46875 61.652344 82.558594 62.03125 81.675781 C 62.414062 80.789062 62.851562 79.933594 63.347656 79.105469 C 63.84375 78.277344 64.390625 77.484375 64.992188 76.730469 C 65.59375 75.976562 66.242188 75.265625 66.9375 74.597656 C 67.632812 73.929688 68.371094 73.308594 69.148438 72.738281 C 69.925781 72.171875 70.738281 71.652344 71.585938 71.191406 Z M 206.929688 94.535156 C 222.183594 93.652344 238.519531 93.953125 252.246094 101.46875 C 262.871094 107.226562 268.761719 119.308594 268.957031 131.125 C 268.65625 132.714844 266.996094 133.597656 265.476562 133.484375 C 261.0625 133.472656 256.625 133.542969 252.191406 133.457031 C 250.3125 133.527344 249.222656 131.796875 248.984375 130.136719 C 247.714844 124.484375 244.632812 118.894531 239.3125 116.164062 C 231.152344 112.074219 221.683594 112.277344 212.777344 112.367188 C 206.277344 112.71875 199.289062 113.277344 193.785156 117.089844 C 189.546875 119.988281 188.273438 125.921875 189.785156 130.53125 C 191.199219 133.914062 195.113281 135 198.300781 136.007812 C 216.691406 140.8125 236.167969 140.425781 254.214844 146.667969 C 261.679688 149.246094 268.984375 154.265625 271.546875 162.078125 C 274.886719 172.554688 273.425781 185.078125 265.980469 193.484375 C 259.9375 200.410156 251.140625 204.082031 242.351562 206.222656 C 230.664062 208.828125 218.546875 208.886719 206.683594 207.722656 C 195.527344 206.449219 183.917969 203.519531 175.308594 195.921875 C 167.941406 189.527344 164.355469 179.566406 164.707031 169.957031 C 164.796875 168.332031 166.414062 167.203125 167.976562 167.335938 L 181.226562 167.335938 C 183.011719 167.210938 184.316406 168.746094 184.40625 170.425781 C 185.226562 175.726562 187.25 181.464844 191.949219 184.558594 C 201.011719 190.402344 212.378906 189.996094 222.75 190.164062 C 231.34375 189.785156 240.992188 189.671875 248.015625 183.984375 C 251.722656 180.742188 252.808594 175.328125 251.8125 170.664062 C 250.726562 166.726562 246.511719 164.898438 242.980469 163.597656 C 224.828125 157.859375 205.128906 159.941406 187.152344 153.441406 C 179.855469 150.863281 172.796875 145.988281 170 138.492188 C 166.085938 127.890625 167.878906 114.757812 176.121094 106.632812 C 184.070312 98.554688 195.730469 95.433594 206.769531 94.324219 Z M 206.929688 94.535156 " fill-opacity="1" fill-rule="nonzero"/></g><g clip-path="url(#eb65325a0a)"><path fill="#ce2c5a" d="M 265.191406 329.800781 C 264.742188 329.800781 264.304688 329.894531 263.914062 330.113281 L 251.632812 337.210938 C 250.835938 337.667969 250.355469 338.535156 250.355469 339.457031 L 250.355469 353.625 C 250.355469 354.546875 250.835938 355.410156 251.632812 355.871094 L 254.839844 357.71875 C 256.398438 358.488281 256.972656 358.476562 257.683594 358.476562 C 259.988281 358.476562 261.308594 357.074219 261.308594 354.640625 L 261.308594 340.660156 C 261.308594 340.460938 261.136719 340.320312 260.941406 340.320312 L 259.402344 340.320312 C 259.207031 340.320312 259.039062 340.464844 259.039062 340.660156 L 259.039062 354.644531 C 259.039062 355.726562 257.914062 356.8125 256.09375 355.898438 L 252.757812 353.941406 C 252.640625 353.878906 252.546875 353.761719 252.546875 353.628906 L 252.546875 339.457031 C 252.546875 339.324219 252.636719 339.1875 252.757812 339.121094 L 265.015625 332.046875 C 265.128906 331.980469 265.265625 331.980469 265.378906 332.046875 L 277.636719 339.121094 C 277.753906 339.191406 277.84375 339.320312 277.84375 339.457031 L 277.84375 353.628906 C 277.84375 353.765625 277.777344 353.902344 277.660156 353.96875 L 265.378906 361.039062 C 265.269531 361.101562 265.125 361.101562 265.015625 361.039062 L 261.859375 359.160156 C 261.765625 359.105469 261.636719 359.109375 261.546875 359.160156 C 260.675781 359.65625 260.511719 359.714844 259.695312 359.996094 C 259.492188 360.066406 259.1875 360.175781 259.800781 360.519531 L 263.917969 362.949219 C 264.3125 363.175781 264.75 363.289062 265.195312 363.289062 C 265.652344 363.289062 266.082031 363.179688 266.476562 362.949219 L 278.757812 355.875 C 279.550781 355.414062 280.035156 354.550781 280.035156 353.632812 L 280.035156 339.460938 C 280.035156 338.542969 279.550781 337.679688 278.757812 337.21875 L 266.476562 330.121094 C 266.089844 329.902344 265.648438 329.808594 265.195312 329.808594 Z M 268.476562 339.925781 C 264.980469 339.925781 262.898438 341.414062 262.898438 343.890625 C 262.898438 346.578125 264.964844 347.316406 268.320312 347.648438 C 272.339844 348.042969 272.652344 348.632812 272.652344 349.425781 C 272.652344 350.796875 271.558594 351.382812 268.972656 351.382812 C 265.726562 351.382812 265.015625 350.570312 264.777344 348.953125 C 264.746094 348.777344 264.613281 348.640625 264.4375 348.640625 L 262.84375 348.640625 C 262.742188 348.640625 262.65625 348.675781 262.585938 348.746094 C 262.515625 348.820312 262.480469 348.902344 262.476562 349.003906 C 262.476562 351.074219 263.601562 353.519531 268.96875 353.519531 C 272.855469 353.519531 275.097656 351.996094 275.097656 349.316406 C 275.097656 346.667969 273.289062 345.953125 269.519531 345.453125 C 265.710938 344.945312 265.347656 344.703125 265.347656 343.808594 C 265.347656 343.074219 265.652344 342.085938 268.476562 342.085938 C 270.996094 342.085938 271.925781 342.632812 272.308594 344.332031 C 272.34375 344.492188 272.484375 344.621094 272.648438 344.621094 L 274.242188 344.621094 C 274.339844 344.621094 274.433594 344.5625 274.503906 344.492188 C 274.570312 344.417969 274.617188 344.332031 274.609375 344.230469 C 274.359375 341.300781 272.410156 339.925781 268.480469 339.925781 Z M 268.476562 339.925781 " fill-opacity="1" fill-rule="nonzero"/></g><g clip-path="url(#f6d9b363d5)"><path fill="#ce2c5a" d="M 192.984375 311.226562 C 192.84375 311.226562 192.714844 311.261719 192.59375 311.328125 C 192.335938 311.480469 192.203125 311.707031 192.203125 312.007812 L 192.203125 331.972656 C 192.203125 332.167969 192.109375 332.34375 191.941406 332.441406 C 191.757812 332.546875 191.578125 332.546875 191.394531 332.441406 L 188.132812 330.5625 C 187.890625 330.421875 187.632812 330.351562 187.351562 330.351562 C 187.074219 330.351562 186.8125 330.421875 186.570312 330.5625 L 173.558594 338.078125 C 173.070312 338.359375 172.773438 338.898438 172.773438 339.460938 L 172.773438 354.492188 C 172.773438 354.769531 172.84375 355.03125 172.984375 355.273438 C 173.125 355.515625 173.316406 355.707031 173.558594 355.847656 L 186.570312 363.363281 C 186.8125 363.503906 187.074219 363.574219 187.351562 363.574219 C 187.632812 363.574219 187.894531 363.503906 188.136719 363.363281 L 201.148438 355.847656 C 201.390625 355.707031 201.582031 355.515625 201.722656 355.273438 C 201.859375 355.03125 201.929688 354.769531 201.929688 354.492188 L 201.929688 317.019531 C 201.929688 316.449219 201.617188 315.914062 201.121094 315.636719 L 193.375 311.300781 C 193.253906 311.234375 193.121094 311.222656 192.984375 311.222656 Z M 109.277344 329.988281 C 109.027344 329.996094 108.796875 330.039062 108.574219 330.171875 L 95.558594 337.683594 C 95.316406 337.824219 95.125 338.015625 94.988281 338.257812 C 94.847656 338.5 94.777344 338.761719 94.777344 339.042969 L 94.804688 359.214844 C 94.804688 359.496094 94.949219 359.753906 95.195312 359.894531 C 95.4375 360.039062 95.738281 360.039062 95.976562 359.894531 L 103.695312 355.457031 C 104.1875 355.167969 104.503906 354.660156 104.503906 354.101562 L 104.503906 344.679688 C 104.503906 344.117188 104.800781 343.601562 105.289062 343.320312 L 108.574219 341.417969 C 108.816406 341.277344 109.078125 341.207031 109.355469 341.207031 C 109.636719 341.207031 109.898438 341.277344 110.136719 341.417969 L 113.421875 343.320312 C 113.910156 343.601562 114.207031 344.117188 114.207031 344.675781 L 114.207031 354.097656 C 114.207031 354.660156 114.53125 355.167969 115.011719 355.453125 L 122.730469 359.890625 C 122.976562 360.035156 123.273438 360.035156 123.515625 359.890625 C 123.753906 359.753906 123.90625 359.492188 123.90625 359.210938 L 123.933594 339.039062 C 123.933594 338.761719 123.863281 338.5 123.722656 338.257812 C 123.585938 338.015625 123.394531 337.824219 123.148438 337.683594 L 110.136719 330.171875 C 109.917969 330.042969 109.683594 330 109.433594 329.988281 Z M 226.207031 330.171875 C 225.925781 330.167969 225.664062 330.238281 225.421875 330.378906 L 212.410156 337.894531 C 211.925781 338.175781 211.628906 338.691406 211.628906 339.25 L 211.628906 354.28125 C 211.628906 354.847656 211.945312 355.359375 212.4375 355.636719 L 225.34375 363 C 225.820312 363.273438 226.402344 363.292969 226.882812 363.027344 L 234.707031 358.667969 C 234.953125 358.53125 235.121094 358.273438 235.121094 357.988281 C 235.125 357.707031 234.976562 357.453125 234.730469 357.3125 L 221.640625 349.796875 C 221.394531 349.65625 221.222656 349.375 221.222656 349.089844 L 221.222656 344.390625 C 221.222656 344.109375 221.398438 343.851562 221.640625 343.714844 L 225.707031 341.363281 C 225.949219 341.222656 226.246094 341.222656 226.492188 341.363281 L 230.566406 343.714844 C 230.828125 343.863281 230.960938 344.089844 230.960938 344.390625 L 230.960938 348.097656 C 230.957031 348.398438 231.089844 348.625 231.351562 348.773438 C 231.59375 348.914062 231.890625 348.917969 232.132812 348.773438 L 239.929688 344.234375 C 240.414062 343.953125 240.710938 343.4375 240.710938 342.878906 L 240.710938 339.25 C 240.710938 338.972656 240.640625 338.710938 240.503906 338.46875 C 240.363281 338.226562 240.171875 338.035156 239.929688 337.894531 L 226.996094 330.378906 C 226.753906 330.238281 226.492188 330.167969 226.210938 330.167969 Z M 187.296875 341.390625 C 187.371094 341.390625 187.441406 341.410156 187.507812 341.445312 L 191.964844 344.027344 C 192.085938 344.097656 192.175781 344.226562 192.175781 344.367188 L 192.175781 349.53125 C 192.175781 349.671875 192.085938 349.800781 191.964844 349.871094 L 187.507812 352.457031 C 187.386719 352.523438 187.238281 352.523438 187.117188 352.457031 L 182.65625 349.871094 C 182.535156 349.800781 182.449219 349.671875 182.449219 349.53125 L 182.449219 344.367188 C 182.449219 344.226562 182.535156 344.097656 182.65625 344.027344 L 187.117188 341.445312 C 187.175781 341.410156 187.230469 341.394531 187.296875 341.394531 Z M 187.296875 341.390625 " fill-opacity="1" fill-rule="nonzero"/></g><path fill="#ce2c5a" d="M 148.367188 330.089844 C 148.085938 330.089844 147.824219 330.160156 147.582031 330.300781 L 134.570312 337.789062 C 134.082031 338.070312 133.789062 338.613281 133.789062 339.171875 L 133.789062 354.203125 C 133.785156 354.484375 133.855469 354.746094 133.996094 354.988281 C 134.136719 355.230469 134.328125 355.421875 134.570312 355.558594 L 147.582031 363.074219 C 147.824219 363.214844 148.085938 363.285156 148.363281 363.285156 C 148.644531 363.285156 148.90625 363.214844 149.148438 363.074219 L 162.160156 355.558594 C 162.402344 355.421875 162.59375 355.230469 162.734375 354.988281 C 162.871094 354.746094 162.941406 354.484375 162.941406 354.203125 L 162.941406 339.171875 C 162.941406 338.613281 162.644531 338.070312 162.160156 337.789062 L 149.148438 330.300781 C 148.90625 330.160156 148.644531 330.089844 148.363281 330.09375 Z M 226.179688 343.503906 C 226.128906 343.503906 226.070312 343.503906 226.023438 343.53125 L 223.519531 344.992188 C 223.417969 345.046875 223.367188 345.136719 223.363281 345.253906 L 223.363281 348.125 C 223.363281 348.230469 223.425781 348.328125 223.519531 348.382812 L 226.023438 349.820312 C 226.117188 349.878906 226.214844 349.878906 226.308594 349.820312 L 228.8125 348.382812 C 228.90625 348.332031 228.96875 348.230469 228.96875 348.125 L 228.96875 345.253906 C 228.96875 345.144531 228.90625 345.046875 228.8125 344.992188 L 226.308594 343.53125 C 226.261719 343.503906 226.230469 343.503906 226.179688 343.503906 Z M 226.179688 343.503906 " fill-opacity="1" fill-rule="nonzero"/></svg>