<svg xmlns="http://www.w3.org/2000/svg" xmlns:xlink="http://www.w3.org/1999/xlink" width="500" zoomAndPan="magnify" viewBox="0 0 375 374.999991" height="500" preserveAspectRatio="xMidYMid meet" version="1.0"><defs><clipPath id="8cadf34fd6"><path d="M 12.269531 92.65625 L 362.519531 92.65625 L 362.519531 282.40625 L 12.269531 282.40625 Z M 12.269531 92.65625 " clip-rule="nonzero"/></clipPath></defs><g clip-path="url(#8cadf34fd6)"><path fill="#ce2c5a" d="M 187.394531 92.65625 C 89.277344 92.65625 12.40625 134.335938 12.40625 187.53125 C 12.40625 240.726562 89.277344 282.40625 187.394531 282.40625 C 285.511719 282.40625 362.382812 240.726562 362.382812 187.53125 C 362.382812 134.335938 285.511719 92.65625 187.394531 92.65625 Z M 169.222656 121.847656 L 188.335938 121.847656 L 182.269531 151.042969 L 199.328125 151.042969 C 210.152344 151.042969 217.414062 152.550781 221.542969 156.34375 C 225.589844 160.078125 226.8125 166.207031 225.191406 174.5625 L 217.613281 209.425781 L 198.1875 209.425781 L 205.167969 177.183594 C 206.023438 172.765625 205.679688 169.6875 204.199219 168.0625 C 202.71875 166.4375 199.472656 165.636719 194.601562 165.636719 L 179.304688 165.636719 L 170.078125 209.425781 L 150.9375 209.425781 Z M 85.316406 151.042969 L 124.195312 151.042969 C 142.734375 151.042969 153.957031 163.472656 149.570312 182.03125 C 144.472656 203.582031 130.800781 209.425781 105.683594 209.425781 L 93.664062 209.425781 L 89.847656 231.320312 L 70.535156 231.320312 Z M 238.433594 151.042969 L 277.3125 151.042969 C 295.851562 151.042969 307.074219 163.472656 302.6875 182.03125 C 297.589844 203.582031 283.917969 209.425781 258.796875 209.425781 L 246.777344 209.425781 L 242.960938 231.320312 L 223.652344 231.320312 Z M 101.867188 165.636719 L 96.367188 194.828125 L 108.84375 194.828125 C 119.636719 194.828125 129.664062 193.605469 131.34375 177.496094 C 131.96875 171.253906 129.378906 165.636719 116.902344 165.636719 Z M 254.980469 165.636719 L 249.484375 194.828125 L 261.960938 194.828125 C 272.753906 194.828125 282.777344 193.605469 284.460938 177.496094 C 285.085938 171.253906 282.496094 165.636719 270.019531 165.636719 Z M 254.980469 165.636719 " fill-opacity="1" fill-rule="nonzero"/></g></svg>