<svg xmlns="http://www.w3.org/2000/svg" xmlns:xlink="http://www.w3.org/1999/xlink" width="500" zoomAndPan="magnify" viewBox="0 0 375 374.999991" height="500" preserveAspectRatio="xMidYMid meet" version="1.0"><defs><clipPath id="37b144bd4a"><path d="M 30 15 L 344.992188 15 L 344.992188 296 L 30 296 Z M 30 15 " clip-rule="nonzero"/></clipPath></defs><g clip-path="url(#37b144bd4a)"><path fill="#ce2c5a" d="M 288.773438 106.300781 C 285.519531 105.175781 282.140625 104.113281 278.652344 103.109375 C 279.230469 100.773438 279.757812 98.46875 280.226562 96.203125 C 287.875 58.988281 282.878906 29.007812 265.773438 19.136719 C 249.367188 9.671875 222.546875 19.542969 195.460938 43.132812 C 192.855469 45.402344 190.242188 47.804688 187.636719 50.320312 C 185.894531 48.65625 184.164062 47.046875 182.429688 45.507812 C 154.039062 20.28125 125.585938 9.648438 108.5 19.550781 C 92.113281 29.042969 87.261719 57.222656 94.160156 92.492188 C 94.824219 95.898438 95.605469 99.378906 96.484375 102.914062 C 92.457031 104.058594 88.570312 105.277344 84.847656 106.578125 C 51.566406 118.1875 30.3125 136.390625 30.3125 155.269531 C 30.3125 174.761719 53.128906 194.324219 87.796875 206.183594 C 90.53125 207.117188 93.367188 208.003906 96.292969 208.839844 C 95.34375 212.660156 94.519531 216.410156 93.824219 220.070312 C 87.25 254.726562 92.386719 282.242188 108.726562 291.667969 C 125.601562 301.414062 153.929688 291.398438 181.511719 267.273438 C 183.695312 265.371094 185.882812 263.34375 188.066406 261.226562 C 190.917969 263.957031 193.753906 266.550781 196.566406 268.984375 C 223.285156 291.988281 249.675781 301.28125 265.992188 291.828125 C 282.851562 282.058594 288.34375 252.492188 281.21875 216.53125 C 280.679688 213.777344 280.042969 210.976562 279.339844 208.125 C 281.332031 207.535156 283.28125 206.921875 285.1875 206.292969 C 321.226562 194.335938 344.667969 175.03125 344.667969 155.269531 C 344.667969 136.320312 322.726562 117.996094 288.773438 106.300781 Z M 280.960938 193.539062 C 279.242188 194.105469 277.476562 194.65625 275.683594 195.183594 C 271.703125 182.589844 266.335938 169.179688 259.753906 155.332031 C 266.03125 141.8125 271.1875 128.582031 275.054688 116.058594 C 278.273438 116.992188 281.390625 117.972656 284.402344 119.007812 C 313.492188 129.03125 331.234375 143.851562 331.234375 155.269531 C 331.234375 167.421875 312.078125 183.214844 280.960938 193.539062 Z M 268.042969 219.136719 C 271.199219 235.039062 271.640625 249.417969 269.554688 260.664062 C 267.6875 270.765625 263.917969 277.5 259.265625 280.191406 C 249.355469 285.929688 228.171875 278.46875 205.332031 258.796875 C 202.703125 256.535156 200.066406 254.125 197.425781 251.582031 C 206.277344 241.886719 215.132812 230.617188 223.777344 218.09375 C 238.964844 216.753906 253.320312 214.539062 266.347656 211.53125 C 266.988281 214.125 267.554688 216.65625 268.042969 219.136719 Z M 137.488281 279.195312 C 127.808594 282.625 120.101562 282.722656 115.441406 280.03125 C 105.523438 274.304688 101.402344 252.207031 107.023438 222.578125 C 107.667969 219.1875 108.4375 215.695312 109.320312 212.132812 C 122.195312 214.984375 136.449219 217.035156 151.683594 218.265625 C 160.382812 230.515625 169.492188 241.773438 178.667969 251.628906 C 176.664062 253.570312 174.664062 255.414062 172.675781 257.148438 C 160.480469 267.828125 148.257812 275.398438 137.488281 279.195312 Z M 92.144531 193.464844 C 76.816406 188.21875 64.15625 181.410156 55.480469 173.960938 C 47.679688 167.289062 43.746094 160.652344 43.746094 155.269531 C 43.746094 143.816406 60.8125 129.199219 89.273438 119.265625 C 92.726562 118.0625 96.34375 116.925781 100.09375 115.859375 C 104.027344 128.664062 109.1875 142.058594 115.414062 155.589844 C 109.109375 169.328125 103.875 182.933594 99.902344 195.898438 C 97.226562 195.125 94.636719 194.3125 92.144531 193.464844 Z M 107.34375 89.910156 C 101.433594 59.695312 105.359375 36.902344 115.234375 31.179688 C 125.75 25.085938 149.003906 33.773438 173.507812 55.558594 C 175.082031 56.949219 176.652344 58.40625 178.238281 59.914062 C 169.101562 69.730469 160.074219 80.902344 151.453125 93.078125 C 136.667969 94.453125 122.515625 96.652344 109.503906 99.605469 C 108.6875 96.3125 107.960938 93.074219 107.34375 89.910156 Z M 242.933594 123.421875 C 239.828125 118.042969 236.632812 112.792969 233.378906 107.6875 C 243.414062 108.957031 253.015625 110.640625 262.039062 112.703125 C 259.339844 121.390625 255.960938 130.476562 251.984375 139.796875 C 249.136719 134.375 246.113281 128.914062 242.933594 123.421875 Z M 187.640625 69.519531 C 193.839844 76.234375 200.042969 83.734375 206.144531 91.867188 C 199.992188 91.578125 193.765625 91.425781 187.492188 91.425781 C 181.277344 91.425781 175.101562 91.574219 168.984375 91.859375 C 175.089844 83.800781 181.351562 76.3125 187.640625 69.519531 Z M 131.992188 123.515625 C 128.882812 128.90625 125.921875 134.339844 123.117188 139.785156 C 119.207031 130.5 115.859375 121.375 113.128906 112.558594 C 122.097656 110.550781 131.660156 108.910156 141.628906 107.664062 C 138.324219 112.816406 135.105469 118.105469 131.992188 123.511719 Z M 141.914062 203.824219 C 131.617188 202.683594 121.910156 201.121094 112.941406 199.167969 C 115.71875 190.195312 119.136719 180.878906 123.132812 171.394531 C 125.945312 176.835938 128.917969 182.269531 132.042969 187.675781 C 135.230469 193.183594 138.527344 198.566406 141.914062 203.824219 Z M 188.007812 241.957031 C 181.648438 235.089844 175.296875 227.480469 169.097656 219.308594 C 175.113281 219.542969 181.253906 219.664062 187.492188 219.664062 C 193.902344 219.664062 200.238281 219.519531 206.464844 219.246094 C 200.347656 227.566406 194.160156 235.1875 188.007812 241.957031 Z M 252.105469 170.914062 C 256.304688 180.5 259.855469 189.765625 262.667969 198.589844 C 253.554688 200.667969 243.707031 202.335938 233.34375 203.589844 C 236.609375 198.417969 239.828125 193.070312 242.996094 187.578125 C 246.199219 182.023438 249.234375 176.457031 252.105469 170.914062 Z M 231.355469 180.867188 C 226.441406 189.398438 221.394531 197.53125 216.273438 205.214844 C 206.953125 205.875 197.316406 206.222656 187.492188 206.222656 C 177.703125 206.222656 168.1875 205.925781 159.027344 205.324219 C 153.699219 197.542969 148.546875 189.382812 143.664062 180.941406 C 138.796875 172.523438 134.3125 164.03125 130.253906 155.589844 C 134.3125 147.132812 138.785156 138.628906 143.625 130.226562 C 148.476562 121.804688 153.585938 113.679688 158.867188 105.941406 C 168.210938 105.234375 177.804688 104.867188 187.492188 104.867188 C 197.230469 104.867188 206.820312 105.238281 216.164062 105.953125 C 221.371094 113.632812 226.441406 121.730469 231.316406 130.15625 C 236.242188 138.679688 240.773438 147.121094 244.863281 155.40625 C 240.785156 163.824219 236.265625 172.351562 231.355469 180.867188 Z M 259.058594 30.777344 C 269.59375 36.855469 273.683594 61.355469 267.0625 93.484375 C 266.644531 95.535156 266.167969 97.625 265.652344 99.738281 C 252.609375 96.726562 238.453125 94.488281 223.628906 93.09375 C 214.984375 80.785156 206.035156 69.59375 197.046875 59.902344 C 199.464844 57.578125 201.882812 55.359375 204.277344 53.265625 C 227.484375 33.054688 249.183594 25.074219 259.058594 30.777344 Z M 187.492188 127.167969 C 202.988281 127.167969 215.5625 139.742188 215.5625 155.265625 C 215.5625 170.773438 202.988281 183.359375 187.492188 183.359375 C 171.996094 183.359375 159.421875 170.773438 159.421875 155.265625 C 159.421875 139.742188 171.996094 127.167969 187.492188 127.167969 Z M 187.492188 127.167969 " fill-opacity="1" fill-rule="nonzero"/></g><path fill="#ce2c5a" d="M 159.746094 346.996094 L 152.476562 336.0625 C 156.152344 335.738281 159.460938 333.085938 159.460938 328.246094 C 159.460938 323.320312 155.949219 320.164062 151.023438 320.164062 L 140.203125 320.164062 L 140.203125 346.972656 L 143.554688 346.972656 L 143.554688 336.320312 L 148.925781 336.320312 L 155.789062 346.972656 Z M 150.621094 333.410156 L 143.554688 333.410156 L 143.554688 323.160156 L 150.621094 323.160156 C 153.8125 323.160156 155.992188 325.25 155.992188 328.265625 C 155.992188 331.28125 153.8125 333.410156 150.621094 333.410156 Z M 172.222656 347.476562 C 175.414062 347.476562 178.039062 346.429688 179.976562 344.503906 L 178.523438 342.53125 C 176.988281 344.101562 174.726562 344.984375 172.507812 344.984375 C 168.308594 344.984375 165.722656 341.929688 165.480469 338.273438 L 181.269531 338.273438 L 181.269531 337.507812 C 181.269531 331.679688 177.796875 327.097656 171.898438 327.097656 C 166.328125 327.097656 162.289062 331.640625 162.289062 337.265625 C 162.289062 343.335938 166.449219 347.460938 172.222656 347.460938 Z M 178.28125 336.058594 L 165.484375 336.058594 C 165.644531 333.085938 167.703125 329.585938 171.863281 329.585938 C 176.304688 329.585938 178.242188 333.164062 178.28125 336.058594 Z M 201.382812 346.992188 L 201.382812 333.648438 C 201.382812 328.945312 197.949219 327.09375 193.832031 327.09375 C 190.640625 327.09375 188.136719 328.140625 186.039062 330.3125 L 187.453125 332.402344 C 189.1875 330.554688 191.085938 329.707031 193.429688 329.707031 C 196.253906 329.707031 198.355469 331.195312 198.355469 333.808594 L 198.355469 337.304688 C 196.78125 335.496094 194.558594 334.652344 191.894531 334.652344 C 188.582031 334.652344 185.066406 336.699219 185.066406 341.042969 C 185.066406 345.261719 188.578125 347.472656 191.894531 347.472656 C 194.519531 347.472656 196.742188 346.550781 198.355469 344.78125 L 198.355469 346.988281 Z M 192.984375 345.304688 C 190.15625 345.304688 188.179688 343.539062 188.179688 341.085938 C 188.179688 338.59375 190.15625 336.824219 192.984375 336.824219 C 195.125 336.824219 197.183594 337.628906 198.355469 339.234375 L 198.355469 342.894531 C 197.183594 344.5 195.125 345.304688 192.984375 345.304688 Z M 216.023438 347.476562 C 219.578125 347.476562 221.675781 346.027344 223.171875 344.101562 L 221.152344 342.25 C 219.859375 343.980469 218.207031 344.78125 216.203125 344.78125 C 212.042969 344.78125 209.460938 341.566406 209.460938 337.265625 C 209.460938 332.96875 212.046875 329.792969 216.203125 329.792969 C 218.222656 329.792969 219.878906 330.554688 221.152344 332.324219 L 223.171875 330.476562 C 221.679688 328.542969 219.578125 327.097656 216.023438 327.097656 C 210.210938 327.097656 206.292969 331.519531 206.292969 337.269531 C 206.292969 343.058594 210.210938 347.460938 216.023438 347.460938 Z M 232.339844 347.476562 C 234.113281 347.476562 235.207031 346.953125 235.976562 346.230469 L 235.089844 343.980469 C 234.683594 344.421875 233.894531 344.78125 233.027344 344.78125 C 231.695312 344.78125 231.046875 343.738281 231.046875 342.289062 L 231.046875 330.230469 L 235.007812 330.230469 L 235.007812 327.578125 L 231.046875 327.578125 L 231.046875 322.273438 L 228.019531 322.273438 L 228.019531 327.578125 L 224.789062 327.578125 L 224.789062 330.234375 L 228.019531 330.234375 L 228.019531 342.9375 C 228.019531 345.832031 229.472656 347.480469 232.339844 347.480469 Z M 232.339844 347.476562 " fill-opacity="1" fill-rule="evenodd"/></svg>