<svg xmlns="http://www.w3.org/2000/svg" xmlns:xlink="http://www.w3.org/1999/xlink" width="500" zoomAndPan="magnify" viewBox="0 0 375 374.999991" height="500" preserveAspectRatio="xMidYMid meet" version="1.0"><defs><clipPath id="208232f49c"><path d="M 22.039062 88.636719 L 352.789062 88.636719 L 352.789062 286 L 22.039062 286 Z M 22.039062 88.636719 " clip-rule="nonzero"/></clipPath></defs><path fill="#fbfbfb" d="M 162.941406 107.203125 C 159.441406 107.964844 157.339844 109.824219 155.066406 114.171875 C 147.644531 128.375 142.011719 151.273438 138.699219 180.707031 C 138.335938 183.9375 138 186.625 137.953125 186.683594 C 137.675781 187.015625 133.769531 175.695312 131.632812 168.355469 C 129.730469 161.824219 127.347656 152.082031 126.179688 146.0625 C 124.386719 136.839844 123.804688 135.089844 121.695312 132.546875 C 119.019531 129.324219 113.820312 128.660156 109.804688 131.023438 C 107.421875 132.425781 105.703125 134.671875 102.847656 140.113281 C 101.828125 142.054688 100.046875 145.445312 98.894531 147.648438 C 97.738281 149.851562 95.867188 153.421875 94.730469 155.585938 C 93.59375 157.75 91.628906 161.507812 90.359375 163.9375 C 89.089844 166.367188 87.816406 168.789062 87.53125 169.320312 C 87.246094 169.851562 85.90625 172.398438 84.554688 174.980469 C 83.207031 177.5625 81.121094 181.535156 79.925781 183.816406 C 78.730469 186.09375 77.085938 189.242188 76.269531 190.816406 C 75.453125 192.394531 74.742188 193.679688 74.691406 193.683594 C 74.25 193.691406 68.367188 166.277344 66.445312 155.242188 C 66.285156 154.328125 65.761719 151.347656 65.277344 148.613281 C 64.246094 142.78125 62.519531 132.203125 61.828125 127.496094 C 60.640625 119.390625 60.273438 118.070312 58.625 115.917969 C 55.085938 111.308594 45.390625 111.511719 41.378906 116.28125 C 38.667969 119.496094 38.203125 122.296875 39.285156 128.875 C 39.609375 130.847656 40.460938 136.035156 41.179688 140.402344 C 42.640625 149.292969 44.03125 157.230469 45.773438 166.644531 C 46.722656 171.765625 48.824219 182.355469 49.480469 185.332031 C 49.78125 186.699219 50.132812 188.347656 50.261719 188.992188 C 52.492188 200.308594 57.425781 218.457031 60.519531 226.746094 C 66.859375 243.710938 76.515625 240.046875 89.621094 215.703125 C 90.191406 214.636719 91.078125 212.898438 91.585938 211.835938 C 94.171875 206.429688 109.867188 175.1875 109.996094 175.1875 C 110.042969 175.1875 110.214844 175.667969 110.382812 176.257812 C 117.210938 200.28125 128.46875 221.621094 140.273438 232.917969 C 147.230469 239.578125 155.101562 238.738281 158.085938 231.023438 C 159.066406 228.492188 159.179688 226.972656 158.90625 220.042969 C 158.503906 209.84375 159.722656 192.976562 161.9375 178.085938 C 165.847656 151.796875 169.90625 135.566406 175.230469 124.925781 C 176.898438 121.59375 177.339844 119.902344 177.175781 117.5 C 176.710938 110.753906 169.746094 105.71875 162.941406 107.203125 M 214 121.636719 C 201.925781 122.640625 191.972656 129.972656 184.21875 143.574219 C 169.222656 169.894531 172.582031 204.976562 191.269531 217.183594 C 199.730469 222.707031 211.003906 224.179688 220.636719 221.015625 C 242.128906 213.957031 256.902344 179.246094 250.566406 150.683594 C 246.355469 131.691406 231.832031 120.15625 214 121.636719 M 298.871094 121.582031 C 286.695312 122.433594 277.039062 129.136719 269.199219 142.167969 C 254.699219 166.273438 255.703125 198.9375 271.40625 213.976562 C 281.914062 224.042969 299.980469 225.558594 312.175781 217.398438 C 323.597656 209.753906 332.859375 193.035156 335.367188 175.53125 C 338.996094 150.1875 330.46875 130.1875 313.289062 123.777344 C 308.976562 122.167969 303.164062 121.28125 298.871094 121.582031 M 219.800781 144.394531 C 226.792969 146.5625 231.25 160.695312 228.9375 173.390625 C 227.234375 182.753906 223.957031 189.742188 219.058594 194.46875 C 211.636719 201.625 204.90625 201.324219 200.847656 193.648438 C 194.269531 181.210938 196.417969 164.039062 206.175781 151.132812 C 210.492188 145.417969 215.347656 143.019531 219.800781 144.394531 M 304.246094 144.457031 C 308.035156 145.777344 311.078125 150.390625 312.792969 157.425781 C 315.855469 169.976562 311.578125 186.664062 303.265625 194.589844 C 295.746094 201.757812 288.929688 201.242188 284.917969 193.199219 C 278.390625 180.117188 280.941406 162.917969 291.308594 150.050781 C 295.277344 145.128906 300.140625 143.023438 304.246094 144.457031 " fill-opacity="1" fill-rule="evenodd"/><g clip-path="url(#208232f49c)"><path fill="#ce2c5a" d="M 48.605469 88.726562 C 48.453125 88.757812 47.667969 88.914062 46.855469 89.066406 C 42.371094 89.929688 38.480469 91.667969 34.070312 94.792969 C 32.648438 95.796875 29.371094 99.023438 28.53125 100.246094 C 28.351562 100.503906 27.921875 101.101562 27.574219 101.570312 C 25.433594 104.457031 23.460938 108.980469 22.476562 113.277344 L 22.160156 114.65625 L 22.117188 170.285156 C 22.089844 208.347656 22.121094 226.222656 22.21875 226.882812 C 22.460938 228.492188 22.929688 230.378906 23.488281 231.984375 C 23.78125 232.824219 24.074219 233.695312 24.140625 233.921875 C 25.730469 239.566406 32.328125 246.722656 39.125 250.179688 C 40.273438 250.765625 41.546875 251.335938 41.949219 251.445312 C 42.351562 251.554688 43.238281 251.828125 43.921875 252.058594 C 45.265625 252.503906 46.359375 252.777344 48.316406 253.144531 C 49.488281 253.367188 53.894531 253.386719 115.082031 253.453125 L 180.59375 253.523438 L 181.972656 254.347656 C 182.730469 254.800781 183.8125 255.40625 184.382812 255.695312 C 184.949219 255.984375 185.726562 256.414062 186.105469 256.648438 C 186.484375 256.886719 187.382812 257.386719 188.101562 257.769531 C 188.820312 258.148438 189.566406 258.566406 189.753906 258.699219 C 189.945312 258.832031 190.78125 259.296875 191.613281 259.738281 C 192.449219 260.175781 193.285156 260.644531 193.476562 260.777344 C 193.664062 260.90625 194.4375 261.34375 195.195312 261.742188 C 195.953125 262.144531 197.128906 262.804688 197.808594 263.210938 C 198.492188 263.613281 199.097656 263.945312 199.164062 263.945312 C 199.230469 263.945312 199.757812 264.234375 200.335938 264.589844 C 200.917969 264.941406 201.890625 265.488281 202.496094 265.804688 C 203.105469 266.121094 203.851562 266.539062 204.160156 266.734375 C 204.464844 266.929688 205.457031 267.476562 206.363281 267.953125 C 207.269531 268.425781 208.101562 268.894531 208.21875 268.988281 C 208.332031 269.085938 209.230469 269.597656 210.214844 270.125 C 211.199219 270.65625 212.375 271.3125 212.824219 271.589844 C 213.273438 271.863281 213.699219 272.089844 213.769531 272.089844 C 213.839844 272.089844 214.566406 272.492188 215.386719 272.984375 C 216.210938 273.476562 217.210938 274.039062 217.613281 274.226562 C 218.015625 274.417969 218.652344 274.769531 219.03125 275.007812 C 219.410156 275.246094 220.308594 275.75 221.03125 276.132812 C 221.75 276.511719 222.496094 276.929688 222.683594 277.0625 C 222.875 277.191406 223.679688 277.644531 224.472656 278.0625 C 225.269531 278.484375 226.507812 279.175781 227.222656 279.601562 C 227.9375 280.027344 228.566406 280.371094 228.613281 280.371094 C 228.664062 280.371094 229.226562 280.683594 229.863281 281.0625 C 230.5 281.445312 231.453125 281.976562 231.984375 282.242188 C 232.511719 282.511719 233.257812 282.921875 233.636719 283.15625 C 234.015625 283.394531 234.882812 283.882812 235.566406 284.242188 C 236.246094 284.605469 237.175781 285.125 237.625 285.398438 C 239.066406 286.273438 239.066406 286.261719 237.90625 283.566406 C 237.414062 282.425781 237.011719 281.433594 237.011719 281.363281 C 237.011719 281.296875 236.585938 280.246094 236.066406 279.039062 C 235.546875 277.828125 235.042969 276.59375 234.945312 276.292969 C 234.84375 275.992188 234.339844 274.765625 233.820312 273.5625 C 233.304688 272.359375 232.878906 271.3125 232.878906 271.238281 C 232.878906 271.164062 232.414062 270.019531 231.84375 268.695312 C 231.277344 267.371094 230.8125 266.226562 230.8125 266.152344 C 230.8125 266.074219 230.371094 265.003906 229.835938 263.773438 C 229.296875 262.539062 228.808594 261.34375 228.753906 261.117188 C 228.695312 260.886719 228.214844 259.675781 227.683594 258.425781 C 226.875 256.511719 226.230469 254.917969 225.777344 253.695312 C 225.691406 253.464844 228.074219 253.457031 274.683594 253.457031 C 326.046875 253.457031 324.871094 253.46875 328.011719 252.824219 C 336.664062 251.054688 344.859375 245.175781 348.773438 237.925781 C 349.605469 236.386719 350.570312 234.375 350.6875 233.921875 C 350.75 233.695312 351.023438 232.886719 351.296875 232.128906 C 351.859375 230.5625 352.371094 228.507812 352.597656 226.882812 C 352.714844 226.074219 352.742188 210.96875 352.710938 170.285156 L 352.667969 114.792969 L 352.359375 113.484375 C 351.753906 110.910156 350.816406 108.109375 349.976562 106.375 C 348.808594 103.957031 347.453125 101.707031 346.828125 101.136719 C 346.671875 100.996094 346.542969 100.816406 346.542969 100.742188 C 346.542969 100.582031 345.78125 99.628906 344.972656 98.78125 C 344.660156 98.457031 344.214844 97.980469 343.980469 97.726562 C 343.035156 96.707031 340.886719 94.847656 340.652344 94.847656 C 340.582031 94.847656 340.40625 94.71875 340.265625 94.5625 C 339.925781 94.1875 338.3125 93.117188 337.105469 92.464844 C 335.8125 91.765625 333.914062 90.839844 333.621094 90.769531 C 333.492188 90.734375 332.488281 90.402344 331.386719 90.03125 C 330.289062 89.65625 328.738281 89.207031 327.941406 89.027344 L 326.496094 88.707031 L 187.6875 88.6875 C 111.34375 88.675781 48.757812 88.695312 48.605469 88.726562 M 167.726562 107.054688 C 175.960938 108.804688 179.53125 116.582031 175.664062 124.335938 C 170.253906 135.179688 164.984375 155.703125 162.339844 176.222656 C 162.183594 177.4375 161.875 179.734375 161.652344 181.328125 C 159.351562 197.832031 158.628906 210.058594 159.121094 224.132812 C 159.449219 233.570312 154.308594 239 146.84375 237.101562 C 140.730469 235.546875 131.347656 224.488281 123.1875 209.214844 C 120.941406 205.007812 118.582031 199.816406 116.253906 193.960938 C 114.640625 189.902344 112.214844 182.816406 110.726562 177.808594 C 110.378906 176.632812 110.046875 175.621094 109.992188 175.5625 C 109.941406 175.507812 109.339844 176.5625 108.65625 177.910156 C 106.425781 182.332031 93.242188 208.71875 91.511719 212.234375 C 84.511719 226.4375 77.335938 235.535156 71.960938 237.019531 C 64.871094 238.976562 60.847656 231.988281 54.128906 206.039062 C 53.226562 202.546875 51.730469 196.320312 51.359375 194.511719 C 51.179688 193.640625 50.8125 191.976562 50.539062 190.8125 C 49.589844 186.789062 46.0625 169.25 45.363281 165.109375 C 45.203125 164.160156 44.769531 161.769531 44.398438 159.796875 C 43.65625 155.855469 42.539062 149.351562 40.277344 135.777344 C 38.25 123.601562 38.171875 121.753906 39.578125 118.800781 C 41.570312 114.621094 45.304688 112.515625 50.722656 112.519531 C 56.648438 112.519531 60.273438 115.761719 61.070312 121.769531 C 61.15625 122.410156 61.65625 125.703125 62.183594 129.082031 C 63.070312 134.757812 63.386719 136.703125 64.726562 144.75 C 65.496094 149.375 67.214844 158.796875 68.328125 164.488281 C 68.890625 167.375 69.417969 170.074219 69.496094 170.492188 C 69.578125 170.910156 70.03125 173.054688 70.507812 175.253906 C 70.988281 177.457031 71.417969 179.507812 71.472656 179.8125 C 71.523438 180.113281 71.992188 182.195312 72.515625 184.4375 C 74.609375 193.386719 74.617188 193.425781 74.796875 193.238281 C 74.890625 193.140625 75.988281 191.105469 77.234375 188.714844 C 78.484375 186.324219 80.417969 182.628906 81.535156 180.5 C 85.019531 173.867188 87.957031 168.265625 88.628906 166.972656 C 89.597656 165.117188 93.636719 157.40625 95.863281 153.171875 C 96.9375 151.121094 98.828125 147.515625 100.066406 145.164062 C 101.300781 142.808594 102.785156 139.984375 103.363281 138.882812 C 106.867188 132.222656 109.847656 129.722656 114.535156 129.527344 C 119.992188 129.296875 123.8125 133.082031 125.078125 139.960938 C 125.625 142.929688 127.695312 152.710938 128.238281 154.894531 C 128.574219 156.222656 128.972656 157.902344 129.128906 158.621094 C 129.511719 160.355469 131.3125 166.9375 132.191406 169.804688 C 132.574219 171.054688 133.09375 172.765625 133.34375 173.597656 C 134.269531 176.699219 137.789062 186.578125 137.921875 186.445312 C 137.949219 186.417969 138.0625 185.441406 138.171875 184.277344 C 138.566406 180.074219 139.242188 174.773438 140.582031 165.386719 C 140.738281 164.285156 141.144531 161.832031 141.484375 159.933594 C 141.824219 158.035156 142.257812 155.582031 142.445312 154.480469 C 142.632812 153.378906 143.121094 150.957031 143.53125 149.097656 C 143.941406 147.238281 144.40625 145.09375 144.566406 144.335938 C 147.613281 129.882812 154.453125 112.601562 158.441406 109.285156 C 160.859375 107.273438 164.566406 106.386719 167.726562 107.054688 M 220.851562 121.699219 C 232.914062 123.246094 241.550781 129.363281 246.972656 140.203125 C 254.542969 155.332031 253.8125 177.941406 245.171875 196.039062 C 236.617188 213.949219 225.160156 222.695312 210.214844 222.71875 C 185.292969 222.761719 171.066406 200.296875 175.570312 168.007812 C 176.375 162.261719 178.566406 154.925781 181.164062 149.304688 C 188.695312 133.015625 199.257812 123.503906 211.660156 121.84375 C 212.53125 121.726562 213.402344 121.609375 213.589844 121.578125 C 214.574219 121.429688 219.378906 121.507812 220.851562 121.699219 M 304.945312 121.695312 C 320.703125 123.765625 330.554688 133.332031 334.953125 150.824219 C 337.511719 161.003906 336.398438 176.984375 332.308594 188.714844 C 326.625 205.023438 316.929688 216.714844 305.691406 220.808594 C 292.601562 225.582031 276.082031 221.230469 268.492188 211.007812 C 268.269531 210.703125 267.855469 210.175781 267.578125 209.835938 C 266.910156 209.015625 265.023438 205.914062 264.21875 204.308594 C 255.792969 187.496094 257.367188 162.769531 268.070312 143.871094 C 275.964844 129.925781 284.925781 123.1875 297.703125 121.582031 C 298.875 121.433594 303.507812 121.507812 304.945312 121.695312 M 215.246094 144.34375 C 208.835938 145.734375 201.320312 156.117188 198.363281 167.664062 C 194.890625 181.234375 199.632812 197.714844 207.488281 199.351562 C 213.074219 200.511719 220.828125 194.589844 224.886719 186.0625 C 229.140625 177.125 230.558594 166.101562 228.515625 157.863281 C 225.988281 147.65625 221.417969 143.003906 215.246094 144.34375 M 299.347656 144.398438 C 295.289062 145.464844 291.660156 148.929688 287.566406 155.65625 C 280.199219 167.746094 279.472656 184.101562 285.835938 194.644531 C 289.828125 201.261719 296.578125 201.058594 303.539062 194.113281 C 311.777344 185.890625 315.808594 169.4375 312.585938 157.171875 C 309.988281 147.28125 305.363281 142.816406 299.347656 144.398438 " fill-opacity="1" fill-rule="evenodd"/></g><path fill="#ce2c5a" d="M 193.0625 131.496094 C 192.726562 131.839844 192.484375 132.117188 192.523438 132.117188 C 192.558594 132.117188 192.863281 131.839844 193.199219 131.496094 C 193.535156 131.15625 193.777344 130.875 193.738281 130.875 C 193.703125 130.875 193.398438 131.15625 193.0625 131.496094 M 276.203125 132.566406 L 275.65625 133.152344 L 276.242188 132.609375 C 276.566406 132.308594 276.828125 132.042969 276.828125 132.023438 C 276.828125 131.917969 276.710938 132.023438 276.203125 132.566406 M 252.066406 162.554688 C 252.066406 162.859375 252.09375 162.96875 252.128906 162.796875 C 252.160156 162.625 252.160156 162.375 252.125 162.246094 C 252.089844 162.113281 252.0625 162.253906 252.066406 162.554688 M 229.484375 166.558594 C 229.484375 167.320312 229.507812 167.613281 229.535156 167.210938 C 229.5625 166.808594 229.5625 166.1875 229.535156 165.832031 C 229.507812 165.472656 229.484375 165.800781 229.484375 166.558594 M 252.066406 166.558594 C 252.066406 166.863281 252.09375 166.972656 252.128906 166.800781 C 252.160156 166.628906 252.160156 166.378906 252.125 166.246094 C 252.089844 166.117188 252.0625 166.257812 252.066406 166.558594 M 281.429688 178.15625 C 281.429688 179.066406 281.449219 179.421875 281.476562 178.941406 C 281.503906 178.464844 281.503906 177.71875 281.476562 177.285156 C 281.449219 176.851562 281.429688 177.242188 281.429688 178.15625 M 197.097656 178.15625 C 197.097656 178.535156 197.125 178.671875 197.15625 178.464844 C 197.1875 178.253906 197.1875 177.945312 197.15625 177.773438 C 197.121094 177.605469 197.097656 177.773438 197.097656 178.15625 M 287.300781 196.765625 C 287.300781 196.789062 287.5 196.992188 287.746094 197.214844 L 288.195312 197.617188 L 287.789062 197.171875 C 287.414062 196.75 287.300781 196.65625 287.300781 196.765625 M 208.734375 199.578125 C 208.90625 199.613281 209.183594 199.613281 209.355469 199.578125 C 209.523438 199.546875 209.382812 199.519531 209.042969 199.519531 C 208.703125 199.519531 208.5625 199.546875 208.734375 199.578125 M 293.050781 199.578125 C 293.222656 199.613281 293.5 199.613281 293.671875 199.578125 C 293.84375 199.546875 293.703125 199.519531 293.363281 199.519531 C 293.019531 199.519531 292.882812 199.546875 293.050781 199.578125 M 233.558594 212.976562 L 233.085938 213.492188 L 233.601562 213.015625 C 233.886719 212.753906 234.117188 212.523438 234.117188 212.5 C 234.117188 212.394531 234.003906 212.492188 233.558594 212.976562 M 155.578125 235.0625 L 155.105469 235.578125 L 155.621094 235.101562 C 156.101562 234.660156 156.203125 234.542969 156.097656 234.542969 C 156.074219 234.542969 155.839844 234.777344 155.578125 235.0625 " fill-opacity="1" fill-rule="evenodd"/><path fill="#ce2c5a" d="M 157.648438 110 L 157.171875 110.515625 L 157.6875 110.039062 C 158.167969 109.597656 158.269531 109.480469 158.164062 109.480469 C 158.140625 109.480469 157.90625 109.714844 157.648438 110 M 174.042969 110.480469 C 174.613281 111.089844 174.738281 111.199219 174.738281 111.097656 C 174.738281 111.074219 174.441406 110.78125 174.082031 110.441406 L 173.429688 109.824219 L 174.042969 110.480469 M 41.710938 115.726562 L 41.164062 116.3125 L 41.75 115.769531 C 42.074219 115.46875 42.335938 115.203125 42.335938 115.179688 C 42.335938 115.078125 42.21875 115.179688 41.710938 115.726562 M 177.25 118.175781 C 177.25 118.441406 177.277344 118.550781 177.3125 118.417969 C 177.347656 118.285156 177.347656 118.066406 177.3125 117.933594 C 177.277344 117.804688 177.25 117.910156 177.25 118.175781 M 121.214844 131.980469 C 121.585938 132.359375 121.921875 132.671875 121.960938 132.671875 C 122 132.671875 121.722656 132.359375 121.351562 131.980469 C 120.976562 131.601562 120.640625 131.289062 120.601562 131.289062 C 120.566406 131.289062 120.839844 131.601562 121.214844 131.980469 M 241.285156 131.886719 C 241.285156 131.910156 241.484375 132.113281 241.730469 132.335938 L 242.179688 132.738281 L 241.773438 132.292969 C 241.398438 131.871094 241.285156 131.78125 241.285156 131.886719 M 191.953125 132.636719 L 191.476562 133.152344 L 191.996094 132.679688 C 192.277344 132.417969 192.511719 132.183594 192.511719 132.160156 C 192.511719 132.054688 192.394531 132.15625 191.953125 132.636719 M 209.105469 147.890625 L 208.699219 148.339844 L 209.148438 147.933594 C 209.566406 147.554688 209.660156 147.441406 209.550781 147.441406 C 209.527344 147.441406 209.328125 147.644531 209.105469 147.890625 M 336.257812 163.730469 C 336.257812 164.375 336.28125 164.640625 336.3125 164.316406 C 336.339844 163.992188 336.339844 163.464844 336.3125 163.144531 C 336.28125 162.820312 336.257812 163.085938 336.257812 163.730469 M 229.335938 163.316406 C 229.335938 163.65625 229.363281 163.796875 229.394531 163.625 C 229.425781 163.457031 229.425781 163.175781 229.394531 163.003906 C 229.363281 162.832031 229.335938 162.972656 229.335938 163.316406 M 229.335938 169.25 C 229.335938 169.59375 229.363281 169.734375 229.394531 169.5625 C 229.425781 169.390625 229.425781 169.113281 229.394531 168.941406 C 229.363281 168.769531 229.335938 168.910156 229.335938 169.25 M 281.546875 174.773438 C 281.546875 175.039062 281.574219 175.148438 281.609375 175.015625 C 281.644531 174.882812 281.644531 174.664062 281.609375 174.53125 C 281.574219 174.398438 281.546875 174.507812 281.546875 174.773438 M 197.238281 175.324219 C 197.238281 175.742188 197.261719 175.914062 197.292969 175.703125 C 197.324219 175.496094 197.324219 175.152344 197.292969 174.945312 C 197.261719 174.738281 197.238281 174.90625 197.238281 175.324219 M 258.820312 179.464844 C 258.820312 179.882812 258.847656 180.054688 258.878906 179.847656 C 258.910156 179.636719 258.910156 179.296875 258.878906 179.085938 C 258.847656 178.878906 258.820312 179.046875 258.820312 179.464844 M 197.234375 180.570312 C 197.234375 180.910156 197.257812 181.050781 197.292969 180.882812 C 197.324219 180.710938 197.324219 180.429688 197.292969 180.261719 C 197.257812 180.089844 197.234375 180.226562 197.234375 180.570312 M 159.890625 196.03125 C 159.890625 196.296875 159.917969 196.40625 159.953125 196.273438 C 159.988281 196.140625 159.988281 195.921875 159.953125 195.789062 C 159.917969 195.65625 159.890625 195.765625 159.890625 196.03125 M 158.929688 211.007812 C 158.929688 211.3125 158.957031 211.417969 158.992188 211.25 C 159.023438 211.074219 159.023438 210.828125 158.988281 210.695312 C 158.953125 210.5625 158.925781 210.703125 158.929688 211.007812 M 234.671875 211.835938 C 234.335938 212.175781 234.09375 212.457031 234.128906 212.457031 C 234.167969 212.457031 234.472656 212.175781 234.808594 211.835938 C 235.140625 211.496094 235.386719 211.214844 235.347656 211.214844 C 235.308594 211.214844 235.003906 211.496094 234.671875 211.835938 M 318.019531 212.699219 L 316.851562 213.90625 L 318.058594 212.738281 C 318.722656 212.09375 319.261719 211.550781 319.261719 211.527344 C 319.261719 211.429688 319.105469 211.578125 318.019531 212.699219 M 187.273438 214.15625 C 187.273438 214.179688 187.476562 214.382812 187.722656 214.605469 L 188.171875 215.011719 L 187.765625 214.5625 C 187.390625 214.144531 187.273438 214.050781 187.273438 214.15625 M 158.925781 220.1875 C 158.925781 220.453125 158.953125 220.5625 158.988281 220.429688 C 159.023438 220.296875 159.023438 220.078125 158.988281 219.945312 C 158.953125 219.8125 158.925781 219.921875 158.925781 220.1875 " fill-opacity="1" fill-rule="evenodd"/><path fill="#ce2c5a" d="M 165.128906 106.957031 C 165.410156 106.988281 165.878906 106.988281 166.160156 106.957031 C 166.445312 106.929688 166.214844 106.902344 165.644531 106.902344 C 165.078125 106.902344 164.84375 106.929688 165.128906 106.957031 M 174.050781 110.652344 C 174.460938 111.070312 174.828125 111.414062 174.867188 111.414062 C 174.90625 111.414062 174.597656 111.070312 174.1875 110.652344 C 173.773438 110.234375 173.40625 109.894531 173.371094 109.894531 C 173.332031 109.894531 173.636719 110.234375 174.050781 110.652344 M 50.019531 112.617188 C 50.414062 112.648438 51.066406 112.648438 51.464844 112.617188 C 51.863281 112.589844 51.535156 112.570312 50.742188 112.570312 C 49.945312 112.570312 49.621094 112.589844 50.019531 112.617188 M 214.589844 121.585938 C 214.722656 121.621094 214.9375 121.621094 215.070312 121.585938 C 215.203125 121.550781 215.09375 121.523438 214.832031 121.523438 C 214.566406 121.523438 214.457031 121.550781 214.589844 121.585938 M 298.769531 121.585938 C 298.902344 121.621094 299.117188 121.621094 299.253906 121.585938 C 299.382812 121.550781 299.277344 121.523438 299.011719 121.523438 C 298.746094 121.523438 298.636719 121.550781 298.769531 121.585938 M 114.5 129.597656 C 114.824219 129.625 115.320312 129.625 115.601562 129.597656 C 115.882812 129.566406 115.617188 129.542969 115.011719 129.542969 C 114.40625 129.542969 114.175781 129.566406 114.5 129.597656 M 194.363281 130.359375 L 193.820312 130.945312 L 194.40625 130.398438 C 194.726562 130.101562 194.992188 129.835938 194.992188 129.8125 C 194.992188 129.707031 194.871094 129.8125 194.363281 130.359375 M 240.25 130.875 C 240.699219 131.332031 241.097656 131.703125 241.136719 131.703125 C 241.175781 131.703125 240.835938 131.332031 240.386719 130.875 C 239.9375 130.421875 239.539062 130.046875 239.5 130.046875 C 239.464844 130.046875 239.800781 130.421875 240.25 130.875 M 324.429688 130.875 C 324.726562 131.179688 325 131.429688 325.035156 131.429688 C 325.074219 131.429688 324.863281 131.179688 324.566406 130.875 C 324.273438 130.574219 324 130.324219 323.960938 130.324219 C 323.921875 130.324219 324.132812 130.574219 324.429688 130.875 M 277.304688 131.464844 L 276.761719 132.050781 L 277.347656 131.503906 C 277.667969 131.203125 277.929688 130.941406 277.929688 130.917969 C 277.929688 130.8125 277.8125 130.917969 277.304688 131.464844 M 107.496094 132.773438 L 107.023438 133.292969 L 107.539062 132.816406 C 108.019531 132.375 108.117188 132.257812 108.011719 132.257812 C 107.992188 132.257812 107.757812 132.488281 107.496094 132.773438 M 191.546875 133.152344 C 191.210938 133.496094 190.96875 133.773438 191.007812 133.773438 C 191.042969 133.773438 191.351562 133.496094 191.683594 133.152344 C 192.019531 132.8125 192.261719 132.53125 192.222656 132.53125 C 192.1875 132.53125 191.882812 132.8125 191.546875 133.152344 M 216.863281 144.089844 C 217.109375 144.121094 217.511719 144.121094 217.757812 144.089844 C 218.003906 144.058594 217.800781 144.035156 217.3125 144.035156 C 216.816406 144.035156 216.617188 144.058594 216.863281 144.089844 M 301.039062 144.089844 C 301.285156 144.121094 301.71875 144.121094 302.003906 144.089844 C 302.289062 144.0625 302.089844 144.035156 301.558594 144.035156 C 301.027344 144.035156 300.796875 144.058594 301.039062 144.089844 M 293.355469 147.820312 L 292.878906 148.339844 L 293.394531 147.863281 C 293.679688 147.601562 293.914062 147.367188 293.914062 147.34375 C 293.914062 147.238281 293.796875 147.339844 293.355469 147.820312 M 208.898438 147.957031 L 208.425781 148.476562 L 208.941406 148 C 209.222656 147.738281 209.457031 147.503906 209.457031 147.484375 C 209.457031 147.378906 209.339844 147.476562 208.898438 147.957031 M 292.253906 148.925781 L 291.777344 149.441406 L 292.292969 148.96875 C 292.578125 148.707031 292.8125 148.472656 292.8125 148.449219 C 292.8125 148.34375 292.695312 148.445312 292.253906 148.925781 M 336.105469 160.417969 C 336.105469 160.683594 336.132812 160.792969 336.167969 160.65625 C 336.203125 160.527344 336.203125 160.308594 336.167969 160.175781 C 336.132812 160.042969 336.105469 160.152344 336.105469 160.417969 M 252.082031 164.558594 C 252.082031 165.429688 252.105469 165.789062 252.132812 165.351562 C 252.160156 164.914062 252.160156 164.199219 252.132812 163.765625 C 252.105469 163.328125 252.082031 163.683594 252.082031 164.558594 M 229.480469 164.351562 C 229.480469 164.882812 229.503906 165.082031 229.535156 164.796875 C 229.566406 164.511719 229.5625 164.074219 229.535156 163.832031 C 229.503906 163.585938 229.480469 163.820312 229.480469 164.351562 M 336.109375 167.871094 C 336.109375 168.210938 336.136719 168.351562 336.167969 168.183594 C 336.203125 168.011719 336.203125 167.730469 336.167969 167.5625 C 336.136719 167.390625 336.109375 167.527344 336.109375 167.871094 M 229.472656 168.421875 C 229.472656 168.765625 229.5 168.90625 229.53125 168.734375 C 229.566406 168.5625 229.566406 168.285156 229.53125 168.113281 C 229.5 167.941406 229.472656 168.082031 229.472656 168.421875 M 251.925781 168.90625 C 251.929688 169.210938 251.957031 169.316406 251.988281 169.144531 C 252.023438 168.972656 252.019531 168.726562 251.988281 168.59375 C 251.953125 168.460938 251.925781 168.601562 251.925781 168.90625 M 281.546875 173.53125 C 281.546875 173.796875 281.574219 173.90625 281.609375 173.773438 C 281.644531 173.640625 281.644531 173.421875 281.609375 173.289062 C 281.574219 173.15625 281.546875 173.265625 281.546875 173.53125 M 259.089844 174.289062 C 259.09375 174.59375 259.121094 174.703125 259.152344 174.53125 C 259.1875 174.359375 259.183594 174.109375 259.152344 173.976562 C 259.117188 173.84375 259.089844 173.984375 259.089844 174.289062 M 174.90625 174.910156 C 174.90625 175.175781 174.9375 175.285156 174.96875 175.152344 C 175.003906 175.019531 175.003906 174.800781 174.96875 174.667969 C 174.9375 174.535156 174.90625 174.644531 174.90625 174.910156 M 281.421875 175.667969 C 281.421875 176.203125 281.445312 176.402344 281.476562 176.117188 C 281.503906 175.828125 281.503906 175.394531 281.476562 175.148438 C 281.445312 174.90625 281.421875 175.140625 281.421875 175.667969 M 197.105469 176.566406 C 197.105469 177.136719 197.128906 177.371094 197.15625 177.085938 C 197.1875 176.800781 197.1875 176.335938 197.15625 176.050781 C 197.128906 175.765625 197.105469 175.996094 197.105469 176.566406 M 258.976562 179.535156 C 258.976562 181.433594 258.996094 182.230469 259.019531 181.304688 C 259.042969 180.378906 259.042969 178.824219 259.023438 177.851562 C 258.996094 176.878906 258.976562 177.636719 258.976562 179.535156 M 174.792969 179.605469 C 174.792969 180.78125 174.8125 181.261719 174.839844 180.675781 C 174.867188 180.085938 174.867188 179.121094 174.839844 178.535156 C 174.8125 177.945312 174.792969 178.425781 174.792969 179.605469 M 197.101562 179.535156 C 197.101562 179.992188 197.125 180.160156 197.15625 179.914062 C 197.1875 179.664062 197.1875 179.292969 197.15625 179.082031 C 197.125 178.875 197.097656 179.078125 197.101562 179.535156 M 281.414062 180.363281 C 281.417969 180.742188 281.441406 180.882812 281.472656 180.671875 C 281.507812 180.460938 281.503906 180.152344 281.472656 179.980469 C 281.4375 179.8125 281.414062 179.984375 281.414062 180.363281 M 259.089844 184.644531 C 259.09375 184.945312 259.121094 185.054688 259.152344 184.882812 C 259.1875 184.710938 259.183594 184.460938 259.152344 184.332031 C 259.117188 184.199219 259.089844 184.339844 259.089844 184.644531 M 220.402344 193.027344 L 219.996094 193.476562 L 220.445312 193.070312 C 220.863281 192.695312 220.957031 192.578125 220.847656 192.578125 C 220.824219 192.578125 220.625 192.78125 220.402344 193.027344 M 304.304688 193.441406 L 303.902344 193.890625 L 304.347656 193.484375 C 304.765625 193.109375 304.859375 192.992188 304.753906 192.992188 C 304.730469 192.992188 304.527344 193.195312 304.304688 193.441406 M 302.789062 194.960938 L 302.386719 195.410156 L 302.832031 195.003906 C 303.25 194.625 303.34375 194.511719 303.238281 194.511719 C 303.214844 194.511719 303.011719 194.714844 302.789062 194.960938 M 203.25 197.03125 C 203.820312 197.640625 203.945312 197.75 203.945312 197.648438 C 203.945312 197.625 203.652344 197.328125 203.292969 196.992188 L 202.636719 196.375 L 203.25 197.03125 M 159.613281 198.101562 C 159.613281 198.367188 159.644531 198.476562 159.675781 198.34375 C 159.710938 198.210938 159.710938 197.992188 159.675781 197.859375 C 159.644531 197.726562 159.613281 197.835938 159.613281 198.101562 M 159.480469 199.828125 C 159.480469 200.132812 159.511719 200.238281 159.542969 200.066406 C 159.574219 199.894531 159.574219 199.644531 159.539062 199.515625 C 159.503906 199.382812 159.476562 199.523438 159.480469 199.828125 M 159.34375 201.828125 C 159.34375 202.171875 159.371094 202.308594 159.40625 202.140625 C 159.4375 201.96875 159.4375 201.6875 159.40625 201.519531 C 159.371094 201.347656 159.34375 201.488281 159.34375 201.828125 M 159.207031 203.898438 C 159.207031 204.242188 159.234375 204.378906 159.265625 204.210938 C 159.300781 204.039062 159.300781 203.757812 159.265625 203.589844 C 159.234375 203.417969 159.207031 203.558594 159.207031 203.898438 M 180.113281 204.226562 C 180.113281 204.375 180.523438 205.140625 180.601562 205.140625 C 180.636719 205.140625 180.566406 204.941406 180.441406 204.691406 C 180.1875 204.1875 180.113281 204.085938 180.113281 204.226562 M 159.070312 206.382812 C 159.070312 206.726562 159.097656 206.867188 159.128906 206.695312 C 159.160156 206.523438 159.160156 206.246094 159.128906 206.074219 C 159.097656 205.902344 159.070312 206.042969 159.070312 206.382812 M 158.933594 209.351562 C 158.933594 209.730469 158.960938 209.871094 158.992188 209.660156 C 159.023438 209.449219 159.023438 209.140625 158.992188 208.96875 C 158.957031 208.800781 158.933594 208.972656 158.933594 209.351562 M 235.144531 211.25 L 234.601562 211.835938 L 235.1875 211.289062 C 235.730469 210.78125 235.835938 210.664062 235.730469 210.664062 C 235.707031 210.664062 235.445312 210.925781 235.144531 211.25 M 318.914062 211.664062 L 318.367188 212.25 L 318.953125 211.703125 C 319.5 211.195312 319.601562 211.078125 319.5 211.078125 C 319.476562 211.078125 319.210938 211.339844 318.914062 211.664062 M 269.800781 212.496094 C 269.800781 212.515625 270.28125 212.996094 270.871094 213.566406 L 271.9375 214.597656 L 270.90625 213.527344 C 269.953125 212.535156 269.800781 212.394531 269.800781 212.496094 M 186.171875 213.054688 C 186.171875 213.078125 186.375 213.277344 186.621094 213.5 L 187.070312 213.90625 L 186.664062 213.457031 C 186.289062 213.039062 186.171875 212.945312 186.171875 213.054688 M 317.050781 213.527344 L 316.578125 214.046875 L 317.09375 213.570312 C 317.574219 213.125 317.675781 213.011719 317.566406 213.011719 C 317.546875 213.011719 317.3125 213.242188 317.050781 213.527344 M 158.8125 215.632812 C 158.8125 216.960938 158.832031 217.503906 158.859375 216.839844 C 158.882812 216.175781 158.882812 215.089844 158.859375 214.425781 C 158.832031 213.761719 158.8125 214.304688 158.8125 215.632812 M 158.929688 221.636719 C 158.929688 221.941406 158.957031 222.046875 158.992188 221.878906 C 159.023438 221.707031 159.023438 221.457031 158.988281 221.324219 C 158.953125 221.191406 158.925781 221.332031 158.929688 221.636719 M 209.5625 222.773438 C 209.808594 222.804688 210.210938 222.804688 210.457031 222.773438 C 210.703125 222.742188 210.5 222.71875 210.007812 222.71875 C 209.515625 222.71875 209.316406 222.742188 209.5625 222.773438 M 293.742188 222.773438 C 293.988281 222.804688 294.390625 222.804688 294.636719 222.773438 C 294.882812 222.742188 294.679688 222.71875 294.1875 222.71875 C 293.695312 222.71875 293.496094 222.742188 293.742188 222.773438 M 159.070312 224.191406 C 159.070312 224.53125 159.097656 224.671875 159.128906 224.5 C 159.160156 224.332031 159.160156 224.050781 159.128906 223.878906 C 159.097656 223.710938 159.070312 223.847656 159.070312 224.191406 M 159.074219 226.125 C 159.074219 226.539062 159.097656 226.710938 159.128906 226.503906 C 159.160156 226.292969 159.160156 225.953125 159.128906 225.742188 C 159.097656 225.535156 159.074219 225.707031 159.074219 226.125 M 137.402344 230.03125 C 137.402344 230.054688 137.601562 230.257812 137.847656 230.480469 L 138.296875 230.886719 L 137.890625 230.4375 C 137.515625 230.019531 137.402344 229.925781 137.402344 230.03125 M 139.738281 232.507812 C 140.308594 233.117188 140.433594 233.226562 140.433594 233.121094 C 140.433594 233.101562 140.136719 232.804688 139.777344 232.46875 L 139.121094 231.851562 L 139.738281 232.507812 M 78.082031 232.785156 L 77.675781 233.230469 L 78.125 232.828125 C 78.542969 232.449219 78.636719 232.335938 78.527344 232.335938 C 78.503906 232.335938 78.304688 232.539062 78.082031 232.785156 " fill-opacity="1" fill-rule="evenodd"/></svg>