<svg xmlns="http://www.w3.org/2000/svg" xmlns:xlink="http://www.w3.org/1999/xlink" width="500" zoomAndPan="magnify" viewBox="0 0 375 374.999991" height="500" preserveAspectRatio="xMidYMid meet" version="1.0"><defs><clipPath id="53c2f63fe4"><path d="M 26.1875 26.1875 L 348.6875 26.1875 L 348.6875 348.6875 L 26.1875 348.6875 Z M 26.1875 26.1875 " clip-rule="nonzero"/></clipPath></defs><g clip-path="url(#53c2f63fe4)"><path fill="#ce2c5a" d="M 178.304688 26.347656 C 165.617188 27.144531 153.507812 29.230469 142.320312 32.539062 C 137.960938 33.832031 137.292969 34.042969 134.84375 34.902344 C 121.0625 39.734375 108.242188 46.183594 96.828125 54.019531 C 94.257812 55.785156 93.671875 56.199219 92.324219 57.207031 C 92.109375 57.367188 91.472656 57.835938 90.917969 58.242188 C 90.359375 58.648438 89.828125 59.046875 89.734375 59.121094 C 89.644531 59.199219 88.648438 59.980469 87.519531 60.863281 C 86.394531 61.742188 85.398438 62.539062 85.304688 62.632812 C 85.210938 62.722656 84.824219 63.046875 84.449219 63.351562 C 84.070312 63.652344 83.605469 64.042969 83.417969 64.214844 C 83.226562 64.390625 82.726562 64.8125 82.304688 65.160156 C 77.007812 69.527344 67.875 78.816406 63.375 84.410156 C 63.085938 84.769531 62.730469 85.203125 62.585938 85.375 C 61.867188 86.226562 61.585938 86.578125 60.023438 88.578125 C 59.09375 89.765625 58.105469 91.074219 57.820312 91.492188 C 57.539062 91.90625 57.265625 92.28125 57.214844 92.324219 C 57.089844 92.425781 56.019531 93.902344 55.320312 94.933594 C 55.015625 95.378906 54.324219 96.390625 53.78125 97.179688 C 52.808594 98.597656 49.179688 104.269531 49.179688 104.371094 C 49.179688 104.402344 48.824219 104.996094 48.390625 105.695312 C 47.957031 106.390625 47.601562 107.007812 47.601562 107.058594 C 47.601562 107.113281 47.472656 107.34375 47.3125 107.574219 C 47.152344 107.804688 46.753906 108.488281 46.425781 109.09375 C 46.097656 109.703125 45.367188 111.046875 44.804688 112.085938 C 40.484375 120.035156 35.65625 131.722656 33.03125 140.589844 C 31.902344 144.398438 30.421875 150.023438 29.984375 152.167969 C 29.902344 152.554688 29.617188 153.933594 29.347656 155.234375 C 28.542969 159.109375 27.757812 164.007812 27.292969 168.066406 C 27.117188 169.582031 26.945312 171.070312 26.910156 171.375 C 26.871094 171.679688 26.796875 172.527344 26.738281 173.265625 C 26.683594 174 26.613281 174.816406 26.582031 175.074219 C 26.203125 178.105469 26.082031 194.605469 26.410156 197.671875 C 26.453125 198.0625 26.566406 199.410156 26.664062 200.664062 C 27.007812 205.210938 27.726562 210.699219 28.691406 216.253906 C 30.277344 225.347656 33.464844 236.722656 36.796875 245.1875 C 37.109375 245.984375 37.367188 246.671875 37.367188 246.714844 C 37.367188 246.757812 37.535156 247.167969 37.742188 247.625 C 37.949219 248.082031 38.332031 248.988281 38.589844 249.636719 C 41.136719 256.03125 46.109375 265.679688 50.222656 272.195312 C 50.425781 272.519531 50.761719 273.050781 50.964844 273.375 C 51.777344 274.675781 54.472656 278.746094 55.074219 279.582031 C 55.425781 280.070312 55.820312 280.628906 55.949219 280.820312 C 56.4375 281.542969 58.992188 284.992188 59.089844 285.070312 C 59.148438 285.113281 59.589844 285.679688 60.070312 286.328125 C 60.550781 286.976562 61.078125 287.664062 61.242188 287.851562 C 61.5625 288.214844 61.675781 288.359375 62.636719 289.5625 C 62.980469 289.992188 63.300781 290.378906 63.351562 290.421875 C 63.398438 290.464844 63.578125 290.683594 63.75 290.90625 C 64.054688 291.304688 65.570312 293.078125 66.027344 293.566406 C 66.15625 293.707031 66.503906 294.101562 66.796875 294.445312 C 69.601562 297.726562 75.4375 303.597656 79.628906 307.351562 C 81.949219 309.433594 83.378906 310.671875 83.96875 311.125 C 84.191406 311.292969 84.40625 311.472656 84.449219 311.523438 C 84.492188 311.574219 84.882812 311.894531 85.3125 312.238281 C 86.503906 313.1875 86.65625 313.3125 87.023438 313.628906 C 87.210938 313.792969 87.753906 314.214844 88.230469 314.574219 C 88.707031 314.929688 89.132812 315.261719 89.175781 315.308594 C 89.347656 315.492188 93.691406 318.695312 95 319.605469 C 98.84375 322.265625 107.777344 327.902344 108.152344 327.902344 C 108.199219 327.902344 108.5 328.070312 108.824219 328.277344 C 110.164062 329.144531 117.597656 332.929688 120.648438 334.304688 C 128.582031 337.875 136.941406 340.910156 144.449219 342.941406 C 145.183594 343.140625 146.316406 343.449219 146.96875 343.628906 C 153.820312 345.519531 165.488281 347.507812 173.421875 348.140625 C 174.070312 348.191406 174.816406 348.261719 175.074219 348.292969 C 182.371094 349.195312 199.035156 348.667969 210.109375 347.183594 C 222.273438 345.550781 238.058594 341.273438 248.457031 336.785156 C 248.714844 336.671875 249.355469 336.40625 249.875 336.191406 C 254.609375 334.253906 261.410156 330.945312 265.621094 328.53125 C 265.96875 328.332031 266.640625 327.957031 267.117188 327.695312 C 267.59375 327.4375 268.171875 327.09375 268.402344 326.933594 C 268.632812 326.773438 268.867188 326.640625 268.929688 326.640625 C 268.988281 326.640625 269.355469 326.429688 269.738281 326.167969 C 270.125 325.910156 270.46875 325.695312 270.507812 325.695312 C 270.570312 325.695312 271.238281 325.28125 273.257812 323.992188 C 279.4375 320.046875 288.132812 313.726562 290.515625 311.453125 C 290.613281 311.363281 291.003906 311.027344 291.382812 310.710938 C 291.765625 310.394531 292.226562 310.003906 292.40625 309.84375 C 292.589844 309.6875 293.1875 309.164062 293.734375 308.6875 C 298.386719 304.636719 303.546875 299.539062 307.523438 295.066406 C 310.105469 292.160156 311.539062 290.492188 312.316406 289.484375 C 312.617188 289.097656 313.234375 288.332031 313.6875 287.789062 C 320.371094 279.777344 329.148438 265.585938 333.878906 255.144531 C 334.332031 254.152344 334.871094 252.96875 335.078125 252.519531 C 335.289062 252.070312 335.460938 251.667969 335.460938 251.621094 C 335.460938 251.574219 335.679688 251.058594 335.945312 250.472656 C 336.359375 249.570312 337.601562 246.480469 338.386719 244.402344 C 338.507812 244.078125 338.710938 243.546875 338.835938 243.21875 C 343.117188 232.148438 346.585938 217.144531 347.960938 203.734375 C 348.863281 194.96875 348.960938 182.855469 348.207031 173.894531 C 346.976562 159.269531 343.511719 143.8125 338.605469 131.0625 C 338.417969 130.585938 338.210938 130.019531 338.144531 129.804688 C 337.398438 127.5 334.8125 121.609375 332.226562 116.339844 C 330.816406 113.460938 330.066406 112.039062 327.710938 107.757812 C 327.449219 107.28125 327.101562 106.703125 326.9375 106.472656 C 326.773438 106.242188 326.640625 106.011719 326.640625 105.960938 C 326.640625 105.636719 321.121094 97.082031 319.265625 94.53125 C 318.777344 93.855469 318.269531 93.144531 318.136719 92.949219 C 317.605469 92.160156 314.246094 87.757812 313.351562 86.679688 C 312.824219 86.039062 312.210938 85.285156 311.996094 85 C 311.492188 84.335938 309.171875 81.585938 308.945312 81.378906 C 308.847656 81.292969 308.527344 80.9375 308.234375 80.59375 C 305.46875 77.335938 297.542969 69.40625 294.28125 66.640625 C 293.933594 66.347656 293.367188 65.847656 293.019531 65.53125 C 292.675781 65.214844 292.058594 64.683594 291.652344 64.351562 C 287.835938 61.214844 286.675781 60.296875 284.28125 58.5 C 282.765625 57.363281 281.347656 56.300781 281.132812 56.132812 C 280.441406 55.605469 273.902344 51.226562 273.804688 51.226562 C 273.75 51.226562 273.476562 51.046875 273.195312 50.832031 C 272.910156 50.613281 272.625 50.4375 272.5625 50.4375 C 272.5 50.4375 272.222656 50.269531 271.949219 50.0625 C 271.671875 49.855469 271.152344 49.519531 270.792969 49.316406 C 270.433594 49.109375 268.730469 48.128906 267.011719 47.140625 C 262.210938 44.371094 255.929688 41.238281 251.054688 39.183594 C 249.886719 38.691406 248.789062 38.226562 248.613281 38.148438 C 248.3125 38.011719 247.496094 37.6875 245.78125 37.019531 C 240.636719 35.019531 236.609375 33.695312 229.402344 31.625 C 221.378906 29.324219 210.164062 27.433594 198.933594 26.488281 C 196.414062 26.277344 181.097656 26.171875 178.304688 26.347656 M 192.160156 33.75 C 207.859375 34.285156 221.664062 36.761719 236.523438 41.714844 C 243.324219 43.980469 253.179688 48.175781 258.234375 50.953125 C 259.09375 51.425781 260.324219 52.09375 260.976562 52.441406 C 265.378906 54.785156 272.429688 59.222656 276.957031 62.496094 C 278.617188 63.695312 279.390625 64.273438 281.683594 66.027344 C 282.847656 66.917969 284.207031 67.984375 284.28125 68.070312 C 284.324219 68.117188 284.75 68.472656 285.226562 68.863281 C 285.703125 69.25 286.128906 69.601562 286.171875 69.648438 C 286.214844 69.695312 286.671875 70.085938 287.1875 70.519531 C 287.703125 70.949219 288.242188 71.410156 288.382812 71.539062 C 288.523438 71.667969 289.269531 72.339844 290.039062 73.035156 C 295.253906 77.730469 301.386719 84.070312 305.339844 88.859375 C 305.519531 89.078125 306.046875 89.714844 306.515625 90.277344 C 307.3125 91.234375 308.824219 93.148438 310.113281 94.828125 C 331.328125 122.464844 343.1875 160.675781 341.0625 194.535156 C 340.65625 201.03125 340.546875 202.28125 339.953125 207.121094 C 339.726562 208.980469 339.085938 213.046875 338.527344 216.175781 C 337.25 223.332031 334.253906 233.9375 331.363281 241.527344 C 330.367188 244.152344 329.628906 246.042969 329.394531 246.566406 C 329.277344 246.828125 329.011719 247.429688 328.804688 247.90625 C 326.472656 253.210938 323.15625 259.894531 321.308594 262.992188 C 321.039062 263.449219 320.816406 263.851562 320.816406 263.882812 C 320.816406 263.941406 318.96875 266.980469 317.515625 269.320312 C 316.03125 271.707031 312.933594 276.265625 311.523438 278.140625 C 303.996094 288.144531 297.058594 295.710938 288.691406 303.03125 C 287.867188 303.753906 287.117188 304.417969 287.023438 304.507812 C 286.929688 304.597656 286.542969 304.921875 286.167969 305.226562 C 285.789062 305.527344 284.96875 306.203125 284.347656 306.71875 C 283.726562 307.242188 282.84375 307.949219 282.390625 308.296875 C 281.941406 308.640625 281.488281 309 281.390625 309.089844 C 281.292969 309.179688 280.539062 309.753906 279.714844 310.359375 C 257.960938 326.433594 235.566406 335.730469 209.011719 339.710938 C 187.898438 342.871094 163.378906 340.972656 142.714844 334.570312 C 138.066406 333.128906 130.53125 330.402344 127.992188 329.242188 C 127.730469 329.125 126.667969 328.660156 125.628906 328.214844 C 123.351562 327.230469 116.449219 323.847656 114.371094 322.695312 C 113.546875 322.238281 112.589844 321.710938 112.246094 321.519531 C 111.054688 320.867188 108.828125 319.566406 108.070312 319.078125 C 107.941406 318.996094 107.585938 318.78125 107.285156 318.605469 C 106.980469 318.429688 106.4375 318.09375 106.074219 317.855469 C 105.710938 317.621094 105.074219 317.222656 104.65625 316.964844 C 103.992188 316.5625 98.898438 313.0625 96.871094 311.621094 C 94.210938 309.726562 87.53125 304.328125 85.238281 302.222656 C 84.933594 301.945312 84.015625 301.105469 83.195312 300.359375 C 81.128906 298.484375 76.699219 294.042969 74.539062 291.683594 C 73.546875 290.601562 72.664062 289.636719 72.570312 289.539062 C 72.03125 288.972656 71.246094 288.074219 70.933594 287.667969 C 70.730469 287.40625 70.34375 286.945312 70.066406 286.644531 C 68.621094 285.0625 63.242188 278.089844 61.375 275.382812 C 60.183594 273.65625 58.128906 270.566406 57.539062 269.625 C 57.246094 269.15625 56.851562 268.523438 56.660156 268.21875 C 56.46875 267.914062 56.179688 267.457031 56.015625 267.195312 C 55.664062 266.628906 53.847656 263.515625 53.359375 262.628906 C 49.429688 255.523438 46.5625 249.40625 43.585938 241.765625 C 40.90625 234.882812 37.328125 222.191406 36.285156 215.859375 C 36.199219 215.339844 35.949219 213.851562 35.730469 212.554688 C 35.398438 210.59375 35.023438 207.925781 34.609375 204.601562 C 34.441406 203.207031 34.214844 200.691406 34.066406 198.460938 C 33.972656 197.117188 33.859375 195.398438 33.808594 194.640625 C 32.976562 182.269531 34.675781 164.800781 38.054688 150.980469 C 39.816406 143.78125 43.347656 133.03125 45.554688 128.148438 C 45.808594 127.585938 46.378906 126.277344 46.6875 125.550781 C 50.445312 116.707031 56.921875 105.558594 63.65625 96.34375 C 64.738281 94.871094 65.664062 93.628906 65.71875 93.585938 C 65.773438 93.539062 66.023438 93.222656 66.277344 92.875 C 75.195312 80.59375 93.699219 64.1875 108.195312 55.710938 C 108.34375 55.625 108.925781 55.277344 109.488281 54.941406 C 110.671875 54.234375 111.0625 54.015625 113.777344 52.511719 C 117.289062 50.570312 126.253906 46.1875 126.710938 46.1875 C 126.753906 46.1875 127.238281 45.980469 127.785156 45.730469 C 130.78125 44.355469 138.816406 41.445312 143.109375 40.175781 C 156.238281 36.296875 168.933594 34.207031 182.101562 33.757812 C 187.34375 33.578125 187.160156 33.578125 192.160156 33.75 M 180.664062 49.183594 C 163.339844 50.113281 146.015625 54.207031 131.511719 60.800781 C 130.960938 61.050781 129.910156 61.527344 129.179688 61.855469 C 122.199219 64.988281 112.578125 70.675781 105.867188 75.632812 C 103.996094 77.011719 102.761719 77.945312 102.585938 78.113281 C 102.46875 78.222656 102.117188 78.507812 101.796875 78.738281 C 101.480469 78.972656 100.96875 79.378906 100.660156 79.644531 C 100.351562 79.90625 99.855469 80.308594 99.558594 80.542969 C 98.292969 81.53125 96.414062 83.136719 94.449219 84.914062 C 93.015625 86.207031 85.808594 93.445312 84.6875 94.714844 C 84.082031 95.402344 83.441406 96.121094 83.269531 96.316406 C 83.097656 96.511719 82.679688 97 82.347656 97.402344 C 82.011719 97.804688 81.527344 98.367188 81.269531 98.652344 C 81.007812 98.941406 80.609375 99.421875 80.378906 99.726562 C 80.152344 100.027344 79.875 100.371094 79.761719 100.488281 C 79.652344 100.601562 79.371094 100.957031 79.132812 101.269531 C 78.898438 101.585938 78.582031 101.988281 78.4375 102.164062 C 76.574219 104.386719 71.742188 111.320312 71.925781 111.503906 C 72.117188 111.695312 89.050781 111.621094 93.425781 111.410156 C 101.277344 111.03125 109.363281 110.550781 114.292969 110.179688 C 119.308594 109.796875 120.398438 109.992188 121.933594 111.527344 C 124.992188 114.59375 123.644531 119.800781 119.488281 120.96875 C 118.648438 121.203125 112.207031 121.851562 107.597656 122.164062 C 105.5625 122.304688 103.605469 122.453125 103.242188 122.496094 L 102.589844 122.574219 L 105.652344 131.660156 C 107.335938 136.65625 109.554688 143.261719 110.585938 146.335938 C 111.613281 149.410156 113.851562 156.074219 115.554688 161.140625 C 117.261719 166.207031 120.027344 174.425781 121.699219 179.40625 C 123.371094 184.386719 126.125 192.570312 127.8125 197.59375 C 133.933594 215.785156 137.136719 225.320312 140.121094 234.207031 C 141.792969 239.1875 145.121094 249.070312 147.515625 256.171875 C 149.910156 263.273438 152.121094 269.851562 152.429688 270.789062 C 152.738281 271.726562 153.042969 272.433594 153.109375 272.363281 C 153.171875 272.292969 160.015625 251.859375 168.3125 226.953125 L 183.398438 181.671875 L 183.121094 180.816406 C 182.96875 180.34375 182.679688 179.53125 182.484375 179.011719 C 181.976562 177.679688 179.617188 171.222656 177.59375 165.625 C 177.3125 164.847656 176.832031 163.535156 176.523438 162.714844 C 175.816406 160.8125 174.558594 157.359375 174.203125 156.335938 C 174.054688 155.902344 173.574219 154.59375 173.136719 153.421875 C 172.699219 152.253906 171.886719 150.023438 171.328125 148.460938 C 170.765625 146.902344 169.8125 144.28125 169.203125 142.636719 C 167.882812 139.070312 166.707031 135.847656 166.328125 134.761719 C 166.066406 134.003906 164.742188 130.398438 164.132812 128.777344 C 163.96875 128.347656 163.644531 127.460938 163.414062 126.8125 C 161.640625 121.859375 162.167969 122.480469 159.59375 122.34375 C 155.558594 122.132812 146.492188 121.136719 145.621094 120.808594 C 141.207031 119.160156 141.058594 112.535156 145.390625 110.457031 C 146.523438 109.914062 147.96875 109.917969 156.414062 110.484375 C 179.761719 112.054688 193.304688 112.019531 215.78125 110.328125 C 222.964844 109.785156 223.96875 109.894531 225.578125 111.367188 C 228.679688 114.199219 227.699219 119.328125 223.777344 120.796875 C 222.703125 121.199219 216.535156 121.867188 210.347656 122.25 C 207.390625 122.429688 206.492188 122.523438 206.492188 122.644531 C 206.492188 122.746094 209.886719 132.925781 213.816406 144.605469 C 215.609375 149.929688 218.421875 158.292969 220.066406 163.1875 C 221.710938 168.078125 224.429688 176.15625 226.101562 181.136719 C 234.386719 205.777344 240.882812 225.105469 244.65625 236.332031 C 254.0625 264.335938 256.394531 271.25 256.460938 271.316406 C 256.527344 271.382812 256.75 270.707031 257.464844 268.296875 C 257.59375 267.863281 257.757812 267.332031 257.835938 267.117188 C 257.992188 266.664062 259.585938 261.335938 260.402344 258.535156 C 260.707031 257.496094 261.421875 255.085938 261.992188 253.179688 C 262.5625 251.277344 263.175781 249.21875 263.351562 248.613281 C 263.53125 248.007812 263.738281 247.335938 263.8125 247.117188 C 263.890625 246.902344 264.019531 246.476562 264.101562 246.171875 C 264.183594 245.871094 264.609375 244.453125 265.042969 243.023438 C 265.75 240.703125 266.617188 237.789062 267.195312 235.78125 C 267.308594 235.390625 267.871094 233.511719 268.441406 231.605469 C 269.015625 229.703125 269.632812 227.648438 269.808594 227.039062 C 269.988281 226.433594 270.195312 225.761719 270.273438 225.546875 C 270.507812 224.878906 274.191406 212.964844 275.117188 209.875 C 275.375 209.011719 275.769531 207.699219 275.992188 206.964844 C 276.210938 206.226562 276.546875 205.058594 276.730469 204.363281 C 276.914062 203.671875 277.164062 202.75 277.285156 202.316406 C 277.476562 201.628906 278.503906 197.496094 278.929688 195.703125 C 279.679688 192.550781 280.375 188.445312 280.585938 185.941406 C 280.632812 185.335938 280.714844 184.636719 280.761719 184.386719 C 280.914062 183.609375 280.84375 176.574219 280.664062 174.683594 C 279.734375 164.703125 276.871094 155.609375 271.6875 146.179688 C 271.234375 145.355469 270.613281 144.222656 270.304688 143.660156 C 269.996094 143.097656 269.304688 141.929688 268.761719 141.0625 C 258.851562 125.171875 256.261719 119.046875 255.984375 110.828125 C 255.851562 107.019531 256.339844 104.136719 257.730469 100.4375 C 261.027344 91.664062 269.621094 85.515625 278.640625 85.484375 C 280.890625 85.472656 280.945312 85.46875 280.6875 85.175781 C 279.9375 84.335938 273.476562 78.914062 271.4375 77.417969 C 271.183594 77.230469 270.371094 76.625 269.636719 76.066406 C 268.898438 75.511719 267.730469 74.664062 267.039062 74.183594 C 266.34375 73.707031 265.210938 72.925781 264.519531 72.445312 C 263.1875 71.527344 258.707031 68.710938 257.511719 68.042969 C 257.121094 67.824219 256.378906 67.398438 255.859375 67.09375 C 253.453125 65.695312 248.3125 63.042969 245.699219 61.851562 C 244.617188 61.359375 243.34375 60.777344 242.867188 60.5625 C 242.390625 60.34375 241.644531 60.027344 241.210938 59.863281 C 240.78125 59.695312 240.210938 59.457031 239.945312 59.335938 C 229.230469 54.390625 211.980469 50.46875 195.703125 49.265625 C 193.507812 49.105469 183.199219 49.046875 180.664062 49.183594 M 308.75 121.257812 C 308.851562 121.621094 309.292969 125.917969 309.460938 128.226562 C 309.632812 130.566406 309.636719 139.917969 309.46875 142.164062 C 308.898438 149.78125 307.984375 155.65625 306.242188 162.871094 C 304.761719 169 302.5 176.199219 300.234375 181.984375 C 299.445312 184.003906 298.46875 186.746094 296.222656 193.261719 C 295.789062 194.519531 295.269531 196.042969 295.070312 196.648438 C 294.867188 197.253906 294.230469 199.097656 293.652344 200.742188 C 292.421875 204.25 291.445312 207.066406 290.503906 209.796875 C 289.519531 212.660156 288.355469 216.027344 287.515625 218.457031 C 287.113281 219.628906 286.652344 220.972656 286.488281 221.449219 C 286.328125 221.925781 285.6875 223.769531 285.066406 225.546875 C 284.441406 227.320312 283.617188 229.695312 283.230469 230.820312 C 282.84375 231.945312 282.222656 233.753906 281.847656 234.835938 C 281.035156 237.175781 279.65625 241.179688 279.246094 242.394531 C 279.082031 242.871094 278.441406 244.710938 277.820312 246.488281 C 277.199219 248.261719 276.386719 250.601562 276.015625 251.683594 C 275.375 253.546875 275.066406 254.4375 273.101562 260.109375 C 272.652344 261.410156 272.15625 262.863281 271.996094 263.335938 C 271.835938 263.8125 271.199219 265.65625 270.578125 267.433594 C 268.863281 272.34375 265.90625 280.902344 264.757812 284.28125 C 264.597656 284.757812 263.957031 286.601562 263.335938 288.375 C 261.636719 293.226562 259.425781 299.621094 258.921875 301.128906 C 258.671875 301.867188 258.113281 303.492188 257.675781 304.738281 C 256.867188 307.058594 256.816406 307.363281 257.324219 306.902344 C 257.484375 306.761719 257.65625 306.640625 257.703125 306.640625 C 257.753906 306.640625 258.246094 306.359375 258.792969 306.015625 C 259.34375 305.667969 260.007812 305.269531 260.265625 305.125 C 263.027344 303.609375 271.925781 297.230469 275.378906 294.292969 C 275.898438 293.855469 276.496094 293.351562 276.707031 293.179688 C 281.457031 289.308594 289.660156 281.035156 293.960938 275.777344 C 294.703125 274.867188 295.539062 273.84375 295.820312 273.503906 C 296.378906 272.824219 299.054688 269.28125 300.203125 267.714844 C 300.855469 266.820312 303.890625 262.25 305.144531 260.265625 C 309.332031 253.664062 313.839844 244.539062 316.929688 236.410156 C 325.488281 213.894531 327.945312 188.820312 323.957031 164.660156 C 321.929688 152.367188 318.753906 141.996094 313.246094 129.644531 C 311.570312 125.890625 308.347656 119.882812 308.75 121.257812 M 60.601562 132.039062 C 53.949219 147.171875 49.980469 164.105469 49.195312 180.742188 C 48.929688 186.410156 49.121094 196.058594 49.570312 199.71875 C 49.609375 200.023438 49.683594 200.730469 49.734375 201.292969 C 51.035156 215.738281 55.207031 231.09375 61.738281 245.457031 C 64.585938 251.722656 69.695312 260.675781 73.332031 265.773438 C 73.949219 266.640625 74.570312 267.535156 74.714844 267.765625 C 74.859375 268 75.085938 268.320312 75.210938 268.480469 C 75.339844 268.640625 76.214844 269.796875 77.160156 271.054688 C 78.101562 272.308594 78.988281 273.480469 79.128906 273.652344 C 80.292969 275.078125 82.972656 278.269531 83.175781 278.472656 C 83.3125 278.613281 83.851562 279.210938 84.371094 279.800781 C 87.71875 283.609375 93.898438 289.679688 97.046875 292.253906 C 97.351562 292.5 97.675781 292.773438 97.773438 292.863281 C 97.972656 293.046875 99.910156 294.664062 101.160156 295.691406 C 107.210938 300.65625 116.71875 306.773438 124.589844 310.769531 C 127.328125 312.15625 127.285156 312.152344 126.839844 311.019531 C 126.496094 310.140625 125.847656 308.351562 125.390625 307.035156 C 125.238281 306.601562 124.621094 304.902344 124.011719 303.257812 C 122.734375 299.808594 121.53125 296.519531 121.132812 295.382812 C 120.984375 294.949219 120.523438 293.710938 120.117188 292.628906 C 119.710938 291.542969 119.316406 290.480469 119.246094 290.265625 C 119.175781 290.050781 118.820312 289.054688 118.457031 288.0625 C 118.09375 287.0625 117.53125 285.503906 117.203125 284.597656 C 116.875 283.6875 116.417969 282.445312 116.1875 281.839844 C 115.957031 281.234375 115.375 279.640625 114.894531 278.296875 C 114.417969 276.953125 113.4375 274.261719 112.714844 272.3125 C 111.328125 268.550781 110.292969 265.71875 109.328125 263.023438 C 109.003906 262.113281 108.546875 260.875 108.3125 260.265625 C 107.902344 259.210938 106.601562 255.621094 106.023438 253.96875 C 105.871094 253.535156 105.25 251.835938 104.640625 250.1875 C 103.335938 246.667969 102.152344 243.417969 101.765625 242.316406 C 101.503906 241.554688 100.179688 237.949219 99.570312 236.332031 C 99.195312 235.34375 98.503906 233.425781 98.148438 232.394531 C 97.996094 231.960938 97.378906 230.261719 96.765625 228.613281 C 95.492188 225.167969 94.289062 221.878906 93.890625 220.742188 C 93.742188 220.308594 93.28125 219.066406 92.875 217.988281 C 92.46875 216.902344 92.074219 215.839844 92.003906 215.625 C 91.933594 215.40625 91.578125 214.414062 91.214844 213.417969 C 90.847656 212.421875 90.425781 211.253906 90.277344 210.820312 C 90.125 210.386719 89.503906 208.6875 88.894531 207.042969 C 87.882812 204.308594 87.234375 202.53125 85.789062 198.539062 C 85.503906 197.757812 85.023438 196.449219 84.71875 195.625 C 84.179688 194.175781 83.21875 191.539062 82.167969 188.617188 C 81.890625 187.839844 81.265625 186.136719 80.78125 184.839844 C 80.300781 183.539062 79.578125 181.554688 79.175781 180.429688 C 78.773438 179.304688 77.960938 177.070312 77.367188 175.46875 C 76.050781 171.90625 74.890625 168.726562 74.523438 167.675781 C 74.261719 166.914062 72.9375 163.308594 72.328125 161.691406 C 71.953125 160.699219 71.261719 158.785156 70.90625 157.753906 C 70.753906 157.320312 70.132812 155.621094 69.523438 153.972656 C 68.246094 150.527344 67.046875 147.234375 66.648438 146.101562 C 66.5 145.667969 66.039062 144.425781 65.632812 143.34375 C 65.222656 142.261719 64.832031 141.199219 64.761719 140.984375 C 64.691406 140.765625 64.335938 139.773438 63.972656 138.777344 C 63.605469 137.78125 63.207031 136.683594 63.085938 136.335938 C 62.160156 133.730469 61.238281 131.277344 61.144531 131.171875 C 61.085938 131.101562 60.839844 131.492188 60.601562 132.039062 M 189.277344 201 C 188.964844 201.898438 188.429688 203.445312 188.085938 204.445312 C 187.742188 205.441406 187.128906 207.210938 186.726562 208.378906 C 186.324219 209.550781 185.617188 211.605469 185.15625 212.949219 C 184.699219 214.289062 183.5625 217.585938 182.636719 220.269531 C 181.707031 222.953125 180.78125 225.648438 180.582031 226.253906 C 180.378906 226.859375 179.632812 229.019531 178.929688 231.054688 C 177.441406 235.339844 176.074219 239.320312 175.542969 240.898438 C 175.339844 241.503906 174.597656 243.664062 173.890625 245.699219 C 173.183594 247.734375 172.21875 250.535156 171.742188 251.921875 C 169.921875 257.234375 169.335938 258.933594 168.464844 261.449219 C 167.972656 262.875 167.402344 264.542969 167.195312 265.148438 C 166.992188 265.753906 166.25 267.914062 165.542969 269.953125 C 164.058594 274.234375 162.6875 278.214844 162.160156 279.792969 C 161.957031 280.398438 161.210938 282.558594 160.5 284.597656 C 159.792969 286.632812 159.050781 288.792969 158.847656 289.398438 C 158.644531 290.003906 157.902344 292.167969 157.199219 294.203125 C 155.710938 298.484375 154.34375 302.464844 153.8125 304.042969 C 153.609375 304.648438 152.863281 306.8125 152.15625 308.847656 C 151.449219 310.882812 150.632812 313.257812 150.347656 314.121094 C 150.058594 314.988281 149.46875 316.703125 149.03125 317.933594 L 148.238281 320.175781 L 149.292969 320.488281 C 169.820312 326.570312 196.769531 327.492188 216.488281 322.785156 C 223.515625 321.109375 224.660156 320.804688 228.457031 319.625 C 233.824219 317.957031 233.597656 318.082031 233.035156 317.113281 C 232.796875 316.714844 232.394531 315.804688 232.136719 315.097656 C 231.496094 313.339844 230.757812 311.292969 230.425781 310.34375 C 230.144531 309.542969 228.765625 305.800781 228.222656 304.359375 C 227.933594 303.585938 227.679688 302.882812 226.488281 299.554688 C 226.164062 298.648438 225.671875 297.300781 225.394531 296.5625 C 224.621094 294.511719 224.339844 293.753906 223.882812 292.46875 C 223.648438 291.820312 223.191406 290.542969 222.867188 289.636719 C 222.539062 288.726562 222.082031 287.484375 221.847656 286.878906 C 221.441406 285.824219 220.136719 282.234375 219.558594 280.582031 C 219.410156 280.148438 218.785156 278.445312 218.175781 276.800781 C 217.566406 275.15625 216.738281 272.886719 216.335938 271.761719 C 215.929688 270.636719 215.117188 268.40625 214.523438 266.800781 C 213.539062 264.136719 212.863281 262.28125 211.449219 258.378906 C 211.167969 257.597656 210.6875 256.289062 210.378906 255.464844 C 209.875 254.113281 209.457031 252.960938 207.828125 248.457031 C 207.546875 247.675781 207.066406 246.367188 206.757812 245.542969 C 206.070312 243.695312 204.804688 240.222656 204.4375 239.164062 C 204.285156 238.734375 203.828125 237.492188 203.417969 236.410156 C 203.011719 235.328125 202.621094 234.265625 202.550781 234.046875 C 202.480469 233.832031 202.121094 232.839844 201.757812 231.84375 C 201.390625 230.847656 200.96875 229.679688 200.816406 229.246094 C 200.546875 228.46875 199.199219 224.800781 198.617188 223.261719 C 198.328125 222.488281 198.074219 221.785156 196.882812 218.457031 C 196.558594 217.550781 196.066406 216.203125 195.789062 215.46875 C 195.015625 213.414062 194.738281 212.65625 194.277344 211.371094 C 194.042969 210.722656 193.585938 209.449219 193.261719 208.539062 C 192.933594 207.628906 192.476562 206.386719 192.242188 205.78125 C 192.007812 205.175781 191.476562 203.722656 191.058594 202.554688 C 190.640625 201.386719 190.199219 200.191406 190.074219 199.898438 L 189.84375 199.371094 L 189.277344 201 " fill-opacity="1" fill-rule="evenodd"/></g></svg>