<svg id="svg" version="1.1" xmlns="http://www.w3.org/2000/svg" xmlns:xlink="http://www.w3.org/1999/xlink" width="400" height="400" viewBox="0, 0, 400,400"><g id="svgg"><path id="path0" d="M73.341 27.385 C 70.281 27.860,61.079 30.539,60.200 31.211 C 59.980 31.379,58.630 32.006,57.200 32.603 C 55.770 33.201,54.510 33.829,54.400 34.000 C 54.290 34.170,53.300 34.808,52.200 35.416 C 47.125 38.226,37.877 46.411,34.821 50.800 C 31.806 55.128,29.276 59.133,28.503 60.800 C 26.257 65.645,25.391 67.942,23.524 74.000 L 22.600 77.000 22.600 200.413 C 22.600 313.552,22.654 323.958,23.252 325.413 C 23.610 326.286,24.471 328.757,25.165 330.905 C 28.655 341.706,38.468 355.647,45.800 360.222 C 46.460 360.634,47.720 361.539,48.600 362.232 C 49.480 362.926,51.010 363.942,52.000 364.490 C 52.990 365.039,54.753 366.053,55.918 366.744 C 57.082 367.435,58.162 368.001,58.318 368.002 C 58.473 368.004,59.091 368.261,59.691 368.574 C 60.292 368.887,63.082 369.904,65.891 370.833 L 71.000 372.522 83.800 372.785 C 105.661 373.234,326.390 372.991,328.200 372.516 C 332.939 371.274,339.359 369.071,342.000 367.781 C 346.002 365.825,350.400 363.194,350.400 362.754 C 350.400 362.559,350.593 362.400,350.829 362.400 C 354.143 362.400,367.200 347.575,371.350 339.100 C 376.688 328.197,376.766 327.745,377.229 305.000 C 377.627 285.448,377.401 79.880,376.978 77.201 C 373.921 57.807,357.880 38.403,338.674 30.867 C 330.397 27.619,329.641 27.498,315.600 27.171 C 292.112 26.625,77.013 26.815,73.341 27.385 M323.976 103.187 C 324.668 103.557,324.710 106.658,324.952 175.087 C 325.092 214.419,325.315 250.497,325.448 255.261 L 325.691 263.922 324.639 264.611 C 321.549 266.636,307.740 270.599,298.226 272.191 C 247.823 280.626,215.476 258.053,215.417 214.400 C 215.364 176.103,240.920 152.355,283.700 150.948 L 292.000 150.675 292.000 128.187 C 292.000 104.802,292.066 103.354,293.146 103.067 C 294.530 102.699,323.272 102.811,323.976 103.187 M109.690 115.938 C 113.483 116.284,112.732 115.342,118.983 127.600 C 121.732 132.990,126.300 141.470,129.134 146.444 C 131.968 151.419,135.868 158.439,137.801 162.044 C 139.734 165.650,141.938 169.742,142.699 171.138 L 144.082 173.677 144.764 172.538 C 145.140 171.912,147.640 167.129,150.320 161.908 C 153.000 156.688,157.500 148.138,160.320 142.908 C 163.140 137.679,167.494 129.577,169.995 124.905 C 174.411 116.656,174.584 116.401,175.971 116.128 C 177.909 115.747,207.570 115.766,208.700 116.149 C 209.981 116.583,210.144 116.229,203.941 126.463 C 193.541 143.620,179.943 166.078,172.535 178.332 C 168.501 185.005,165.200 190.749,165.200 191.097 C 165.200 191.932,164.382 190.562,187.596 228.600 C 212.659 269.666,212.538 269.463,212.274 270.153 C 211.834 271.297,174.571 271.144,172.835 269.991 C 172.293 269.630,169.804 265.302,166.739 259.391 C 156.359 239.371,143.304 215.539,141.995 214.222 C 141.053 213.274,141.286 213.012,138.995 217.600 C 136.762 222.072,122.657 248.566,116.103 260.600 C 113.587 265.220,111.090 269.450,110.555 270.000 L 109.583 271.000 91.991 271.116 C 74.405 271.232,74.400 271.231,74.400 270.400 C 74.400 269.311,75.237 267.713,79.220 261.200 C 81.036 258.230,84.536 252.470,86.997 248.400 C 89.458 244.330,97.986 230.359,105.949 217.354 L 120.426 193.708 118.471 190.354 C 115.290 184.896,108.953 174.145,101.994 162.400 C 73.086 113.617,74.804 116.671,75.914 116.024 C 76.702 115.565,104.805 115.493,109.690 115.938 M275.200 179.194 C 259.035 182.701,250.233 192.986,249.348 209.400 C 248.359 227.739,255.665 239.888,270.200 244.077 C 274.055 245.188,290.262 245.498,291.280 244.480 C 291.696 244.064,291.822 237.506,291.911 211.641 L 292.023 179.321 289.234 178.860 C 285.204 178.195,279.141 178.339,275.200 179.194 " stroke="none" fill="#ce2c5a" fill-rule="evenodd"></path></g></svg>